<svg xmlns="http://www.w3.org/2000/svg" width="40" height="40" viewBox="0 0 40 40" fill="none"><path d="M25 13.3334C25 16.0948 22.7615 18.3334 20 18.3334C17.2385 18.3334 15 16.0948 15 13.3334C15 10.572 17.2385 8.33337 20 8.33337C22.7615 8.33337 25 10.572 25 13.3334Z" stroke="#458EB7" stroke-width="2.5" stroke-linecap="round" stroke-linejoin="round"></path><path d="M26.6671 6.66663C29.4284 6.66663 31.6671 8.90521 31.6671 11.6666C31.6671 13.7051 30.4471 15.4587 28.6976 16.2371" stroke="#458EB7" stroke-width="2.5" stroke-linecap="round" stroke-linejoin="round"></path><path d="M22.8572 23.3334H17.1429C13.198 23.3334 10 26.5314 10 30.4762C10 32.0542 11.2792 33.3334 12.8571 33.3334H27.1429C28.7209 33.3334 30 32.0542 30 30.4762C30 26.5314 26.802 23.3334 22.8572 23.3334Z" stroke="#458EB7" stroke-width="2.5" stroke-linecap="round" stroke-linejoin="round"></path><path d="M29.5239 21.6666C33.4688 21.6666 36.6668 24.8646 36.6668 28.8095C36.6668 30.3875 35.3876 31.6666 33.8096 31.6666" stroke="#458EB7" stroke-width="2.5" stroke-linecap="round" stroke-linejoin="round"></path><path d="M13.3329 6.66663C10.5715 6.66663 8.33295 8.90521 8.33295 11.6666C8.33295 13.7051 9.55283 15.4587 11.3024 16.2371" stroke="#458EB7" stroke-width="2.5" stroke-linecap="round" stroke-linejoin="round"></path><path d="M6.1901 31.6666C4.61213 31.6666 3.33295 30.3875 3.33295 28.8095C3.33295 24.8646 6.53091 21.6666 10.4758 21.6666" stroke="#458EB7" stroke-width="2.5" stroke-linecap="round" stroke-linejoin="round"></path></svg>