<svg xmlns="http://www.w3.org/2000/svg" width="41" height="40" viewBox="0 0 41 40" fill="none"><path d="M17.1667 11.6666L16.3069 13.99C15.1796 17.0366 14.6159 18.56 13.5046 19.6713C12.3934 20.7825 10.8701 21.3461 7.82342 22.4736L5.5 23.3333L7.82342 24.193C10.8701 25.3205 12.3934 25.8841 13.5046 26.9953C14.6159 28.1066 15.1796 29.63 16.3069 32.6765L17.1667 35L18.0263 32.6765C19.1538 29.63 19.7175 28.1066 20.8287 26.9953C21.94 25.8841 23.4633 25.3205 26.5098 24.193L28.8333 23.3333L26.5098 22.4736C23.4633 21.3461 21.94 20.7825 20.8287 19.6713C19.7175 18.56 19.1538 17.0366 18.0263 13.99L17.1667 11.6666Z" stroke="#4992C1" stroke-width="2.5" stroke-linejoin="round"></path><path d="M30.5 5L30.1315 5.99575C29.6483 7.30145 29.4068 7.95432 28.9305 8.43055C28.4543 8.9068 27.8015 9.14838 26.4958 9.63153L25.5 10L26.4958 10.3685C27.8015 10.8516 28.4543 11.0932 28.9305 11.5694C29.4068 12.0457 29.6483 12.6985 30.1315 14.0042L30.5 15L30.8685 14.0042C31.3517 12.6985 31.5932 12.0457 32.0695 11.5694C32.5457 11.0932 33.1985 10.8516 34.5042 10.3685L35.5 10L34.5042 9.63153C33.1985 9.14838 32.5457 8.9068 32.0695 8.43055C31.5932 7.95432 31.3517 7.30145 30.8685 5.99575L30.5 5Z" stroke="#4992C1" stroke-width="2.5" stroke-linejoin="round"></path></svg>