<svg xmlns="http://www.w3.org/2000/svg" width="41" height="40" viewBox="0 0 41 40" fill="none"><path d="M19.9616 14.4558C20.2124 14.0616 20.7878 14.0616 21.0386 14.4558L21.7644 15.5961C22.5669 16.8572 23.6364 17.9267 24.8974 18.7292L26.0378 19.4548C26.4319 19.7058 26.4319 20.2812 26.0378 20.532L24.8974 21.2578C23.6364 22.0603 22.5669 23.1298 21.7644 24.3908L21.0386 25.5312C20.7878 25.9253 20.2124 25.9253 19.9616 25.5312L19.2358 24.3908C18.4333 23.1298 17.3638 22.0603 16.1027 21.2578L14.9624 20.532C14.5682 20.2812 14.5682 19.7058 14.9624 19.4548L16.1027 18.7292C17.3638 17.9267 18.4333 16.8572 19.2358 15.5961L19.9616 14.4558Z" stroke="#4992C1" stroke-width="2.5" stroke-linejoin="round"></path><path d="M7.01126 8.80645C11.9524 9.164 15.1384 4.16189 20.5436 4.16189C25.8679 4.05569 28.4733 8.87325 33.9316 8.87325C36.8578 23.7677 30.7703 33.1238 20.5883 35.8268C11.1498 33.5833 4.05794 24.1313 7.01126 8.80645Z" stroke="#4992C1" stroke-width="2.5" stroke-linejoin="round"></path></svg>