<svg xmlns="http://www.w3.org/2000/svg" width="40" height="40" viewBox="0 0 40 40" fill="none"><path d="M18.3333 3.33337C10.9695 3.33337 5 9.24236 5 16.5315C5 19.0197 5.69558 21.347 6.90477 23.3334" stroke="#4992C1" stroke-width="2.5" stroke-linecap="round"></path><path d="M28.3334 8.33337H25.0001C23.4287 8.33337 22.6431 8.33337 22.1549 8.82152C21.6667 9.30969 21.6667 10.0954 21.6667 11.6667V15C21.6667 16.5714 21.6667 17.357 22.1549 17.8452C22.6431 18.3334 23.4287 18.3334 25.0001 18.3334H28.3334C29.9047 18.3334 30.6904 18.3334 31.1786 17.8452C31.6667 17.357 31.6667 16.5714 31.6667 15V11.6667C31.6667 10.0954 31.6667 9.30969 31.1786 8.82152C30.6904 8.33337 29.9047 8.33337 28.3334 8.33337Z" stroke="#4992C1" stroke-width="2.5" stroke-linecap="round" stroke-linejoin="round"></path><path d="M24.1666 18.3333V21.6667M29.1666 18.3333V21.6667M24.1666 5V8.33333M29.1666 5V8.33333M21.6666 10.8333H18.3333M21.6666 15.8333H18.3333M34.9999 10.8333H31.6666M34.9999 15.8333H31.6666" stroke="#4992C1" stroke-width="2.5" stroke-linecap="round" stroke-linejoin="round"></path><path d="M10.6382 28.497C10.4851 28.036 10.4085 27.8055 10.4174 27.6188C10.4363 27.2238 10.6853 26.877 11.0527 26.7341C11.2264 26.6666 11.4685 26.6666 11.9527 26.6666H24.7141C25.1984 26.6666 25.4404 26.6666 25.6141 26.7341C25.9816 26.877 26.2306 27.2238 26.2494 27.6188C26.2582 27.8055 26.1817 28.036 26.0286 28.497C25.7456 29.349 25.6041 29.7751 25.3859 30.12C24.9287 30.8426 24.2121 31.3611 23.3844 31.568C22.9892 31.6666 22.5417 31.6666 21.6469 31.6666H15.0198C14.125 31.6666 13.6776 31.6666 13.2825 31.568C12.4548 31.3611 11.7381 30.8426 11.2809 30.12C11.0627 29.7751 10.9212 29.349 10.6382 28.497Z" stroke="#4992C1" stroke-width="2.5"></path><path d="M23.3333 31.6666L23.1178 32.7443C22.8821 33.9228 22.7643 34.512 22.5001 34.9776C22.0919 35.6975 21.4303 36.2398 20.6443 36.499C20.1359 36.6666 19.5351 36.6666 18.3333 36.6666C17.1314 36.6666 16.5306 36.6666 16.0222 36.499C15.2362 36.2398 14.5747 35.6975 14.1664 34.9776C13.9023 34.512 13.7845 33.9228 13.5488 32.7443L13.3333 31.6666" stroke="#4992C1" stroke-width="2.5"></path></svg>