<svg xmlns="http://www.w3.org/2000/svg" width="40" height="40" viewBox="0 0 40 40" fill="none"><path d="M20.0049 36.667L16.6709 26.667H3.33789L6.67089 36.667H25.8379M6.67189 21.667V15.833C6.67189 14.913 7.41789 14.167 8.33889 14.167H18.3389C19.2589 14.167 20.0049 14.913 20.0049 15.833V21.667M30.8379 36.667H35.0049C35.9249 36.667 36.6709 35.921 36.6709 35V30.833C36.6709 29.913 35.9249 29.167 35.0049 29.167H23.3379" stroke="#4992C1" stroke-width="2.5" stroke-linecap="round" stroke-linejoin="round"></path><path d="M31.7049 21.667C31.7046 22.1051 31.6181 22.5388 31.4502 22.9433C31.2823 23.3479 31.0363 23.7155 30.7263 24.025C30.4163 24.3345 30.0484 24.5799 29.6436 24.7472C29.2388 24.9145 28.8049 25.0004 28.3669 25C27.9289 25.0003 27.4952 24.9143 27.0905 24.7469C26.6858 24.5796 26.318 24.3341 26.0081 24.0246C25.6982 23.7151 25.4524 23.3476 25.2845 22.9431C25.1167 22.5386 25.0301 22.105 25.0299 21.667C25.03 21.229 25.1164 20.7952 25.2842 20.3906C25.452 19.986 25.6979 19.6184 26.0077 19.3087C26.3176 18.9991 26.6855 18.7536 27.0903 18.5862C27.495 18.4188 27.9288 18.3327 28.3669 18.333C28.8048 18.3329 29.2385 18.419 29.6432 18.5865C30.0479 18.754 30.4156 18.9995 30.7254 19.3091C31.0352 19.6187 31.2809 19.9863 31.4486 20.3908C31.6164 20.7954 31.7028 21.229 31.7029 21.667H31.7049ZM16.6779 6.66701C16.6774 7.55133 16.3256 8.39924 15.7 9.02427C15.0744 9.6493 14.2262 10.0003 13.3419 10C12.9039 10.0003 12.4702 9.91427 12.0655 9.74691C11.6608 9.57956 11.293 9.33412 10.9831 9.02462C10.6732 8.71513 10.4274 8.34763 10.2595 7.94311C10.0917 7.53859 10.0051 7.10497 10.0049 6.66701C10.005 6.22905 10.0914 5.79541 10.2591 5.39084C10.4268 4.98626 10.6726 4.61869 10.9824 4.3091C11.2922 3.99951 11.6599 3.75397 12.0646 3.58649C12.4692 3.41901 12.9029 3.33288 13.3409 3.33301C13.7789 3.33275 14.2127 3.41878 14.6175 3.5862C15.0223 3.75362 15.3901 3.99914 15.7 4.30875C16.0099 4.61835 16.2558 4.98597 16.4235 5.3906C16.5913 5.79524 16.6778 6.22897 16.6779 6.66701Z" stroke="#4992C1" stroke-width="2.5"></path></svg>