
<svg xmlns="http://www.w3.org/2000/svg" width="48" height="48" viewBox="0 0 48 48" fill="none"><path d="M24 39.5553C23.9992 40.6477 24.4007 41.7022 25.1279 42.5174C25.855 43.3327 26.857 43.8515 27.9424 43.975C29.0279 44.0985 30.1207 43.8179 31.0125 43.1868C31.9042 42.5558 32.5323 41.6184 32.7768 40.5537C33.9667 40.7767 35.1949 40.6715 36.3295 40.2492C37.4641 39.827 38.4624 39.1038 39.2171 38.1572C39.9717 37.2106 40.4544 36.0763 40.6132 34.8761C40.772 33.676 40.6009 32.4552 40.1184 31.3449C41.3151 30.5297 42.2943 29.4343 42.9707 28.1541C43.6471 26.8738 44.0002 25.4476 43.9992 23.9997C44.0001 22.5513 43.6468 21.1247 42.9699 19.8442C42.2931 18.5638 41.3133 17.4683 40.116 16.6533C40.5985 15.543 40.7696 14.3222 40.6108 13.122C40.452 11.9219 39.9693 10.7876 39.2147 9.84097C38.46 8.89436 37.4617 8.17113 36.3271 7.74892C35.1925 7.32671 33.9643 7.22147 32.7744 7.44449C32.5256 6.38405 31.8961 5.45185 31.0055 4.8248C30.1148 4.19774 29.025 3.91945 27.9427 4.04274C26.8605 4.16603 25.8612 4.68233 25.1344 5.49364C24.4076 6.30496 24.0039 7.35485 24 8.44409V39.5553Z" stroke="#4992C1" stroke-width="2.5" stroke-linejoin="round"></path><path d="M23.9999 39.5557C24.0008 40.6481 23.5993 41.7026 22.8721 42.5178C22.1449 43.3331 21.1429 43.8519 20.0575 43.9754C18.9721 44.0989 17.8792 43.8183 16.9875 43.1872C16.0957 42.5562 15.4677 41.6188 15.2231 40.5541C14.0332 40.7771 12.805 40.6719 11.6704 40.2497C10.5358 39.8274 9.53754 39.1042 8.78286 38.1576C8.02818 37.211 7.54554 36.0767 7.38674 34.8765C7.22795 33.6764 7.39899 32.4556 7.88151 31.3453C6.6846 30.5303 5.70517 29.4349 5.02855 28.1547C4.35192 26.8744 3.99865 25.4481 3.99951 24.0001C3.99846 22.5518 4.35164 21.1253 5.02826 19.8448C5.70489 18.5644 6.68444 17.4688 7.88151 16.6537C7.39943 15.5434 7.22873 14.3227 7.3877 13.1228C7.54668 11.9228 8.02935 10.7887 8.78393 9.84223C9.5385 8.89574 10.5365 8.17254 11.6709 7.75019C12.8053 7.32785 14.0333 7.22231 15.2231 7.44489C15.4699 6.38214 16.0988 5.44722 16.9901 4.81808C17.8815 4.18894 18.973 3.9095 20.057 4.03296C21.141 4.15642 22.1418 4.67416 22.8689 5.48762C23.5959 6.30108 23.9985 7.35348 23.9999 8.44449V39.5557Z" stroke="#4992C1" stroke-width="2.5" stroke-linejoin="round"></path><path d="M30 18C28.4087 18 26.8826 17.3679 25.7574 16.2426C24.6321 15.1174 24 13.5913 24 12C24 13.5913 23.3679 15.1174 22.2426 16.2426C21.1174 17.3679 19.5913 18 18 18M18 30C19.5913 30 21.1174 30.6321 22.2426 31.7574C23.3679 32.8826 24 34.4087 24 36C24 34.4087 24.6321 32.8826 25.7574 31.7574C26.8826 30.6321 28.4087 30 30 30" stroke="#4992C1" stroke-width="2.5" stroke-linecap="round"></path></svg>