<svg xmlns="http://www.w3.org/2000/svg" width="48" height="48" viewBox="0 0 48 48" fill="none"><path d="M38.9975 35.9999V31.0007C38.9977 30.4755 38.8944 29.9554 38.6935 29.47C38.4927 28.9847 38.1982 28.5437 37.8269 28.1722C37.4556 27.8007 37.0148 27.506 36.5296 27.3048C36.0444 27.1037 35.5243 27.0001 34.9991 26.9999H28.9991M8.99751 35.9999V30.9995C8.99751 29.9388 9.4189 28.9214 10.169 28.1714C10.919 27.4213 11.9364 26.9999 12.9971 26.9999H18.9995M23.9987 14.0003V21.9995M13.9991 41.9999V38.0003C13.9991 36.8963 13.1039 35.9999 11.9999 35.9999H5.99991C4.89591 35.9999 3.99951 36.8951 3.99951 38.0003V41.9999C3.99951 43.1039 4.89471 44.0003 5.99991 44.0003H11.9999C13.1039 44.0003 13.9991 43.1039 13.9991 41.9999ZM43.9991 41.9999V38.0003C43.9991 36.8963 43.1039 35.9999 41.9999 35.9999H35.9999C34.8959 35.9999 33.9995 36.8951 33.9995 38.0003V41.9999C33.9995 43.1039 34.8947 44.0003 35.9999 44.0003H41.9999C43.1039 44.0003 43.9991 43.1039 43.9991 41.9999ZM31.9991 11.9999V5.99991C31.9991 4.89591 31.1039 3.99951 29.9999 3.99951H17.9999C16.8959 3.99951 15.9995 4.89471 15.9995 5.99991V11.9999C15.9995 13.1039 16.8947 14.0003 17.9999 14.0003H29.9999C31.1039 14.0003 31.9991 13.1039 31.9991 11.9999Z" stroke="#4992C1" stroke-width="2.5" stroke-linejoin="round"></path><path d="M28.9992 26.9998C29.0095 27.6629 28.8878 28.3215 28.6411 28.9371C28.3945 29.5527 28.0278 30.1131 27.5625 30.5856C27.0972 31.0582 26.5426 31.4335 25.9309 31.6896C25.3192 31.9458 24.6626 32.0777 23.9994 32.0777C23.3362 32.0777 22.6797 31.9458 22.068 31.6896C21.4563 31.4335 20.9016 31.0582 20.4363 30.5856C19.971 30.1131 19.6044 29.5527 19.3577 28.9371C19.1111 28.3215 18.9894 27.6629 18.9996 26.9998C19.02 25.6872 19.5557 24.4353 20.4911 23.5142C21.4265 22.5932 22.6867 22.0769 23.9994 22.0769C25.3122 22.0769 26.5723 22.5932 27.5077 23.5142C28.4432 24.4353 28.9789 25.6872 28.9992 26.9998Z" stroke="#4992C1" stroke-width="2.5"></path></svg>