<svg xmlns="http://www.w3.org/2000/svg" width="48" height="49" viewBox="0 0 48 49" fill="none"><path d="M23.3372 10.6136C23.6132 10.0481 24.3868 10.0481 24.6628 10.6136L26.2898 13.9487C26.3978 14.17 26.6006 14.3241 26.8356 14.3632L30.3724 14.9516C30.9718 15.0513 31.2108 15.8186 30.782 16.2675L28.25 18.9194C28.0824 19.0951 28.005 19.3439 28.042 19.589L28.6 23.2899C28.6946 23.9167 28.069 24.3911 27.5276 24.1031L24.3376 22.4057C24.1256 22.2927 23.8744 22.2927 23.6624 22.4057L20.4724 24.1031C19.9311 24.3911 19.3054 23.9167 19.3999 23.2899L19.958 19.589C19.995 19.3439 19.9176 19.0951 19.7499 18.9194L17.2179 16.2675C16.7893 15.8186 17.0282 15.0513 17.6276 14.9516L21.1644 14.3632C21.3994 14.3241 21.6022 14.17 21.7102 13.9487L23.3372 10.6136Z" stroke="#4992C1" stroke-width="2.5" stroke-linecap="round" stroke-linejoin="round"></path><path d="M38 18.1895C38 25.9215 31.732 32.1895 24 32.1895C16.268 32.1895 10 25.9215 10 18.1895C10 10.4575 16.268 4.18945 24 4.18945C31.732 4.18945 38 10.4575 38 18.1895Z" stroke="#4992C1" stroke-width="2.5" stroke-linecap="round" stroke-linejoin="round"></path><path d="M26 32.8743L29.2528 41.4921C29.9082 43.2285 30.236 44.0967 30.806 44.1895C31.3774 44.1051 32.0774 43.1503 32.7616 41.4239C33.2516 40.1877 33.4964 39.5697 34.001 39.2365C34.1558 39.1343 34.325 39.0535 34.504 38.9965C35.0872 38.8111 35.758 38.9925 37.0994 39.3551C38.5338 39.7429 39.5302 39.6347 39.9236 39.3551C40.0394 39.2729 39.9236 39.3489 39.9236 39.3489C40.1552 38.9381 39.8426 38.2973 39.2176 37.0157L34.9122 28.1895" stroke="#4992C1" stroke-width="2.5" stroke-linecap="round" stroke-linejoin="round"></path><path d="M22 32.8737L18.7472 41.4901C18.0918 43.2261 17.4434 44.0967 16.8734 44.1895C16.3019 44.1051 15.9598 43.2421 15.2756 41.5159C14.7857 40.2801 14.5035 39.5681 13.999 39.2347C13.8443 39.1325 13.6749 39.0519 13.4961 38.9949C12.9128 38.8095 12.242 38.9909 10.9005 39.3535C9.46616 39.7411 8.4698 39.6267 8.0763 39.3471C7.84474 38.9365 8.15732 38.2957 8.78246 37.0143L13.0877 28.1895" stroke="#4992C1" stroke-width="2.5" stroke-linecap="round" stroke-linejoin="round"></path></svg>