<svg xmlns="http://www.w3.org/2000/svg" width="48" height="49" viewBox="0 0 48 49" fill="none"><path d="M31.5 6.19922H15.5C9.84314 6.19922 7.01472 6.19922 5.25736 7.95658C3.5 9.71394 3.5 12.5424 3.5 18.1992V22.1992C3.5 27.856 3.5 30.6844 5.25736 32.4418C7.01472 34.1992 9.84314 34.1992 15.5 34.1992H31.5C37.1568 34.1992 39.9852 34.1992 41.7426 32.4418C43.5 30.6844 43.5 27.856 43.5 22.1992V18.1992C43.5 12.5424 43.5 9.71394 41.7426 7.95658C39.9852 6.19922 37.1568 6.19922 31.5 6.19922Z" stroke="#4992C1" stroke-width="2.5" stroke-linecap="round" stroke-linejoin="round"></path><path d="M27.5 18.1992C27.5 15.9901 25.7092 14.1992 23.5 14.1992C21.2908 14.1992 19.5 15.9901 19.5 18.1992H18.5C16.2909 18.1992 14.5 19.9901 14.5 22.1992C14.5 24.4084 16.2909 26.1992 18.5 26.1992H28.5C30.7092 26.1992 32.5 24.4084 32.5 22.1992C32.5 19.9901 30.7092 18.1992 28.5 18.1992H27.5Z" stroke="#4992C1" stroke-width="2.5" stroke-linecap="round" stroke-linejoin="round"></path><path d="M27.5 42.1992H31.5M27.5 42.1992C25.8432 42.1992 24.5 40.856 24.5 39.1992V34.1992H23.5M27.5 42.1992H19.5M23.5 34.1992H22.5V39.1992C22.5 40.856 21.1568 42.1992 19.5 42.1992M23.5 34.1992V42.1992M19.5 42.1992H15.5" stroke="#4992C1" stroke-width="2.5" stroke-linecap="round" stroke-linejoin="round"></path></svg>