<svg xmlns="http://www.w3.org/2000/svg" width="40" height="40" viewBox="0 0 40 40" fill="none"><path d="M10.8334 15H9.16669M17.5 15H15.8334M10.8334 10H9.16669M17.5 10H15.8334" stroke="#458EB7" stroke-width="2.5" stroke-linecap="round"></path><path d="M30.8334 25H29.1667M30.8334 18.3333H29.1667" stroke="#458EB7" stroke-width="2.5" stroke-linecap="round"></path><path d="M23.3333 13.3333V36.6666H30C33.1426 36.6666 34.714 36.6666 35.6903 35.6903C36.6666 34.714 36.6666 33.1426 36.6666 30V20C36.6666 16.8573 36.6666 15.2859 35.6903 14.3096C34.714 13.3333 33.1426 13.3333 30 13.3333H23.3333ZM23.3333 13.3333C23.3333 8.61926 23.3333 6.26225 21.8688 4.79778C20.4043 3.33331 18.0473 3.33331 13.3333 3.33331C8.61926 3.33331 6.26225 3.33331 4.79778 4.79778C3.33331 6.26225 3.33331 8.61926 3.33331 13.3333V16.6666" stroke="#458EB7" stroke-width="2.5" stroke-linecap="round" stroke-linejoin="round"></path><path d="M13.3747 23.2575C13.3747 25.0972 11.8823 26.5884 10.0414 26.5884C8.20054 26.5884 6.70819 25.0972 6.70819 23.2575C6.70819 21.418 8.20054 19.9269 10.0414 19.9269C11.8823 19.9269 13.3747 21.418 13.3747 23.2575Z" stroke="#458EB7" stroke-width="2.5" stroke-linecap="round"></path><path d="M3.4497 33.6835C5.21361 30.97 8.01476 29.953 10.0415 29.955C12.0683 29.9572 14.7873 30.97 16.5512 33.6835C16.6653 33.859 16.6967 34.075 16.5938 34.2574C16.1813 34.9884 14.9005 36.4389 13.9754 36.5372C12.9124 36.6502 10.1319 36.666 10.0437 36.6665C9.95536 36.666 7.089 36.6502 6.02558 36.5372C5.10048 36.4389 3.81966 34.9884 3.40715 34.2574C3.30423 34.075 3.33565 33.859 3.4497 33.6835Z" stroke="#458EB7" stroke-width="2.5" stroke-linecap="round"></path></svg>