<svg xmlns="http://www.w3.org/2000/svg" width="48" height="49" viewBox="0 0 48 49" fill="none"><path d="M7.94444 44.1888V37.0894C7.94444 34.5466 7.27854 33.2248 5.96964 31.0148C4.4006 28.3658 3.5 25.2742 3.5 21.9724C3.5 12.1565 11.4594 4.19922 21.2778 4.19922C31.0962 4.19922 39.0556 12.1565 39.0556 21.9724C39.0556 23.1318 39.0556 23.7116 39.104 24.0366C39.2196 24.8136 39.5822 25.482 39.9388 26.1738L43.5 33.0806L40.7012 34.4796C39.89 34.885 39.4846 35.0878 39.202 35.462C38.9194 35.836 38.84 36.2584 38.6808 37.103L38.6652 37.1854C38.3008 39.1204 37.8986 41.2564 36.7658 42.604C36.3658 43.0798 35.8706 43.4664 35.3118 43.739C34.3894 44.1888 33.2554 44.1888 30.9874 44.1888C29.938 44.1888 28.8856 44.213 27.8364 44.1876C25.3494 44.127 23.5 42.036 23.5 39.608" stroke="#4992C1" stroke-width="2.5" stroke-linecap="round" stroke-linejoin="round"></path><path d="M28.276 21.2622C27.4234 21.2622 26.6458 20.9396 26.0568 20.4088M28.276 21.2622C28.276 23.554 26.9482 25.7308 24.3922 25.7308C21.8362 25.7308 20.5086 27.9074 20.5086 30.1992M28.276 21.2622C32.5746 21.2622 32.5746 14.5596 28.276 14.5596C27.8854 14.5596 27.5106 14.6273 27.1624 14.7517C27.3724 9.7556 20.1698 8.39922 18.5385 13.0796M18.5385 13.0796C19.7266 13.8814 20.5086 15.2457 20.5086 16.7938M18.5385 13.0796C14.8348 10.5799 9.89765 15.0654 12.2465 19.0648C8.30451 19.6558 8.72597 25.7308 12.741 25.7308C13.8669 25.7308 14.8622 25.168 15.4647 24.3068" stroke="#4992C1" stroke-width="2.5" stroke-linecap="round" stroke-linejoin="round"></path></svg>