<svg xmlns="http://www.w3.org/2000/svg" width="48" height="49" viewBox="0 0 48 49" fill="none"><path d="M40.5 33.1992V17.1992C40.5 12.4852 40.5 10.1282 39.0354 8.66368C37.571 7.19922 35.214 7.19922 30.5 7.19922H16.5C11.786 7.19922 9.42892 7.19922 7.96446 8.66368C6.5 10.1282 6.5 12.4852 6.5 17.1992V33.1992" stroke="#4992C1" stroke-width="2.5" stroke-linecap="round" stroke-linejoin="round"></path><path d="M43.4684 41.1992H3.53158C2.7657 41.1992 2.26758 40.4168 2.6101 39.752L6.5 33.1992H40.5L44.3898 39.752C44.7324 40.4168 44.2342 41.1992 43.4684 41.1992Z" stroke="#4992C1" stroke-width="2.5" stroke-linecap="round" stroke-linejoin="round"></path><path d="M18.5 25.1992C16.8431 25.1992 15.5 23.856 15.5 22.1992C15.5 20.5424 16.8431 19.1992 18.5 19.1992H19.5C19.5 16.9901 21.2908 15.1992 23.5 15.1992C25.709 15.1992 27.5 16.9901 27.5 19.1992H28.5C30.1568 19.1992 31.5 20.5424 31.5 22.1992C31.5 23.856 30.1568 25.1992 28.5 25.1992H18.5Z" stroke="#4992C1" stroke-width="2.5" stroke-linecap="round" stroke-linejoin="round"></path></svg>