<svg xmlns="http://www.w3.org/2000/svg" width="48" height="49" viewBox="0 0 48 49" fill="none"><path d="M17.5 9.2002C10.5088 11.6023 5.5 18.0837 5.5 25.7024C5.5 28.116 6.00268 30.4154 6.91182 32.507M29.5 9.2002C36.4912 11.6023 41.5 18.0837 41.5 25.7024C41.5 27.7474 41.139 29.7106 40.4758 31.535M32.5 40.8594C29.8524 42.3482 26.7786 43.2002 23.5 43.2002C20.2214 43.2002 17.1476 42.3482 14.5 40.8594" stroke="#4992C1" stroke-width="2.5"></path><path d="M29.5 10.2002C29.5 13.5139 26.8138 16.2002 23.5 16.2002C20.1862 16.2002 17.5 13.5139 17.5 10.2002C17.5 6.8865 20.1862 4.2002 23.5 4.2002C26.8138 4.2002 29.5 6.8865 29.5 10.2002Z" stroke="#4992C1" stroke-width="2.5"></path><path d="M9.5 44.2002C12.8137 44.2002 15.5 41.5139 15.5 38.2002C15.5 34.8865 12.8137 32.2002 9.5 32.2002C6.18629 32.2002 3.5 34.8865 3.5 38.2002C3.5 41.5139 6.18629 44.2002 9.5 44.2002Z" stroke="#4992C1" stroke-width="2.5"></path><path d="M37.5 44.2002C40.8137 44.2002 43.5 41.5139 43.5 38.2002C43.5 34.8865 40.8137 32.2002 37.5 32.2002C34.1863 32.2002 31.5 34.8865 31.5 38.2002C31.5 41.5139 34.1863 44.2002 37.5 44.2002Z" stroke="#4992C1" stroke-width="2.5"></path></svg>