<svg xmlns="http://www.w3.org/2000/svg" width="48" height="49" viewBox="0 0 48 49" fill="none"><path d="M21.5 16.1992H25.5C31.1568 16.1992 33.9852 16.1992 35.7426 17.9566C37.5 19.7139 37.5 22.5424 37.5 28.1992C37.5 33.856 37.5 36.6844 35.7426 38.4418C33.9852 40.1992 31.1568 40.1992 25.5 40.1992H23.5C23.5 40.1992 22.5 44.1992 15.5 44.1992C15.5 44.1992 17.5 42.1818 17.5 40.1646C14.3931 40.071 12.54 39.7244 11.2574 38.4418C9.5 36.6844 9.5 33.856 9.5 28.1992C9.5 22.5424 9.5 19.7139 11.2574 17.9566C13.0147 16.1992 15.8431 16.1992 21.5 16.1992Z" stroke="#4992C1" stroke-width="2.5" stroke-linejoin="round"></path><path d="M37.5 23.1992H38.5C40.3692 23.1992 41.3038 23.1992 42 23.6012C42.456 23.8644 42.8348 24.2432 43.098 24.6992C43.5 25.3954 43.5 26.33 43.5 28.1992C43.5 30.0684 43.5 31.003 43.098 31.6992C42.8348 32.1552 42.456 32.534 42 32.7972C41.3038 33.1992 40.3692 33.1992 38.5 33.1992H37.5" stroke="#4992C1" stroke-width="2.5" stroke-linejoin="round"></path><path d="M9.5 23.1992H8.5C6.63076 23.1992 5.69616 23.1992 5 23.6012C4.54394 23.8644 4.16522 24.2432 3.90192 24.6992C3.5 25.3954 3.5 26.33 3.5 28.1992C3.5 30.0684 3.5 31.003 3.90192 31.6992C4.16522 32.1552 4.54394 32.534 5 32.7972C5.69616 33.1992 6.63076 33.1992 8.5 33.1992H9.5" stroke="#4992C1" stroke-width="2.5" stroke-linejoin="round"></path><path d="M26.5 7.19922C26.5 8.85608 25.1568 10.1992 23.5 10.1992C21.8432 10.1992 20.5 8.85608 20.5 7.19922C20.5 5.54236 21.8432 4.19922 23.5 4.19922C25.1568 4.19922 26.5 5.54236 26.5 7.19922Z" stroke="#4992C1" stroke-width="2.5"></path><path d="M23.5 10.1992V16.1992" stroke="#4992C1" stroke-width="2.5" stroke-linecap="round" stroke-linejoin="round"></path><path d="M17.5 24.1992V26.1992M29.5 24.1992V26.1992" stroke="#4992C1" stroke-width="2.5" stroke-linecap="round" stroke-linejoin="round"></path><path d="M19.5 33.1992C19.5 33.1992 20.8334 34.1992 23.5 34.1992C26.1666 34.1992 27.5 33.1992 27.5 33.1992" stroke="#4992C1" stroke-width="2.5" stroke-linecap="round"></path></svg>