<svg xmlns="http://www.w3.org/2000/svg" width="40" height="40" viewBox="0 0 40 40" fill="none"><path d="M21.6667 25C17.8472 35 7.15282 25 3.33337 35" stroke="#458EB7" stroke-width="2.5" stroke-linecap="round" stroke-linejoin="round"></path><path d="M25.8333 25H28.3355C32.2638 25 34.228 25 35.4485 23.7797C36.6688 22.5592 36.6688 20.595 36.6688 16.6667V13.3333C36.6688 9.40497 36.6688 7.44078 35.4485 6.22038C34.228 5 32.2638 5 28.3355 5H21.6688C17.7405 5 15.7763 5 14.5559 6.22038C13.5219 7.2544 13.364 8.8224 13.3398 11.6667" stroke="#458EB7" stroke-width="2.5" stroke-linecap="round" stroke-linejoin="round"></path><path d="M12.5 25C14.8012 25 16.6667 23.1345 16.6667 20.8333C16.6667 18.5321 14.8012 16.6667 12.5 16.6667C10.1989 16.6667 8.33337 18.5321 8.33337 20.8333C8.33337 23.1345 10.1989 25 12.5 25Z" stroke="#458EB7" stroke-width="2.5" stroke-linecap="round" stroke-linejoin="round"></path><path d="M20 11.6667H30M30 18.3333H25" stroke="#458EB7" stroke-width="2.5" stroke-linecap="round" stroke-linejoin="round"></path></svg>