<svg xmlns="http://www.w3.org/2000/svg" width="40" height="40" viewBox="0 0 40 40" fill="none"><path d="M36.6667 11.25H32.0185C31.0167 11.25 30.5157 11.25 30.0434 11.107C29.571 10.964 29.1542 10.6861 28.3205 10.1304C27.0702 9.29674 25.6437 8.34577 24.935 8.13122C24.2265 7.91669 23.475 7.91669 21.9722 7.91669C19.9285 7.91669 18.6112 7.91669 17.6924 8.29729C16.7735 8.67789 16.051 9.40047 14.6058 10.8456L13.334 12.1174C13.0083 12.4431 12.8455 12.606 12.745 12.7667C12.3723 13.3627 12.4136 14.1284 12.8482 14.6809C12.9654 14.8299 13.1449 14.9743 13.5037 15.2631C14.83 16.3304 16.742 16.2239 17.943 15.0157L20 12.9465H21.6667L31.6667 23.006C32.5872 23.932 32.5872 25.4331 31.6667 26.3591C30.7462 27.2851 29.2539 27.2851 28.3334 26.3591L27.5 25.5208M27.5 25.5208L22.5 20.4911M27.5 25.5208C28.4205 26.4468 28.4205 27.9481 27.5 28.874C26.5795 29.8 25.0872 29.8 24.1667 28.874L22.5 27.1975M22.5 27.1975C23.4205 28.1233 23.4205 29.6246 22.5 30.5506C21.5795 31.4765 20.0872 31.4765 19.1667 30.5506L16.6667 28.0356M22.5 27.1975L19.1667 23.8641M16.6667 28.0356L15.8334 27.1975M16.6667 28.0356C17.5872 28.9616 17.5872 30.463 16.6667 31.389C15.7462 32.3148 14.2539 32.3148 13.3334 31.389L8.62732 26.5848C7.66029 25.5976 7.17677 25.1041 6.55729 24.8436C5.93781 24.5833 5.24684 24.5833 3.86494 24.5833H3.33337" stroke="#458EB7" stroke-width="2.5" stroke-linecap="round" stroke-linejoin="round"></path><path d="M36.6667 24.5833H32.5" stroke="#458EB7" stroke-width="2.5" stroke-linecap="round"></path><path d="M14.1667 11.25H3.33337" stroke="#458EB7" stroke-width="2.5" stroke-linecap="round"></path></svg>