<svg xmlns="http://www.w3.org/2000/svg" width="48" height="48" viewBox="0 0 48 48" fill="none"><path d="M38.3346 31.4266C46.236 21.4076 44.1014 11.4702 38.4252 7.9883C33.0618 4.69846 28.3808 6.02422 25.5688 8.13602L23.4996 9.68316M38.3346 31.4266C36.438 33.8312 33.9634 36.2408 30.821 38.5668C27.7286 40.8556 26.1824 42 23.5 42C20.8176 42 19.2714 40.8556 16.179 38.5668C-0.056592 26.5498 1.53611 12.3059 8.57485 7.9883C13.9381 4.69846 18.6192 6.02422 21.4312 8.13602L23.4996 9.68316M38.3346 31.4266L27.2842 18.8896C26.8318 18.3764 26.0746 18.2659 25.4944 18.6285L21.1222 21.3612C19.5836 22.3228 17.5866 22.1064 16.2898 20.8374C14.5767 19.1612 14.7495 16.3554 16.6554 14.9021L23.4996 9.68316" stroke="#4992C1" stroke-width="2.5" stroke-linecap="round" stroke-linejoin="round"></path></svg>