<svg xmlns="http://www.w3.org/2000/svg" width="48" height="48" viewBox="0 0 48 48" fill="none"><path d="M30.5 22C30.5 18.134 27.366 15 23.5 15C19.634 15 16.5 18.134 16.5 22C16.5 25.866 19.634 29 23.5 29C27.366 29 30.5 25.866 30.5 22Z" stroke="#4992C1" stroke-width="2.5" stroke-linecap="round" stroke-linejoin="round"></path><path d="M30.4653 22.6998C31.1093 22.895 31.7923 23 32.4999 23C36.3659 23 39.4999 19.866 39.4999 16C39.4999 12.134 36.3659 9 32.4999 9C28.8701 9 25.8855 11.7628 25.5345 15.3003" stroke="#4992C1" stroke-width="2.5" stroke-linecap="round" stroke-linejoin="round"></path><path d="M21.4654 15.3003C21.1144 11.7628 18.1298 9 14.5 9C10.634 9 7.5 12.134 7.5 16C7.5 19.866 10.634 23 14.5 23C15.2076 23 15.8907 22.895 16.5345 22.6998" stroke="#4992C1" stroke-width="2.5" stroke-linecap="round" stroke-linejoin="round"></path><path d="M43.5 33C43.5 27.4772 38.5752 23 32.5 23" stroke="#4992C1" stroke-width="2.5" stroke-linecap="round" stroke-linejoin="round"></path><path d="M34.5 39C34.5 33.4772 29.5752 29 23.5 29C17.4249 29 12.5 33.4772 12.5 39" stroke="#4992C1" stroke-width="2.5" stroke-linecap="round" stroke-linejoin="round"></path><path d="M14.5 23C8.42486 23 3.5 27.4772 3.5 33" stroke="#4992C1" stroke-width="2.5" stroke-linecap="round" stroke-linejoin="round"></path></svg>