<svg xmlns="http://www.w3.org/2000/svg" width="48" height="48" viewBox="0 0 48 48" fill="none"><path d="M39.5 20.256C39.5 12.5929 39.5 8.76128 37.1568 6.38064C34.8138 4 31.0424 4 23.5 4H19.5C11.9575 4 8.1863 4 5.84314 6.38064C3.5 8.76128 3.5 12.5929 3.5 20.256C3.5 27.9192 3.5 31.7508 5.84314 34.1314C6.78236 35.0856 7.951 35.6574 9.5 36" stroke="#4992C1" stroke-width="2.5" stroke-linecap="round"></path><path d="M43.5 35C43.5 31.2502 43.5 29.3754 42.545 28.061C42.2366 27.6366 41.8634 27.2634 41.439 26.955C40.1246 26 38.2498 26 34.5 26H24.5C20.7502 26 18.8754 26 17.5611 26.955C17.1366 27.2634 16.7633 27.6366 16.4549 28.061C15.5 29.3754 15.5 31.2502 15.5 35C15.5 38.7498 15.5 40.6246 16.4549 41.939C16.7633 42.3634 17.1366 42.7366 17.5611 43.045C18.8754 44 20.7502 44 24.5 44H34.5C38.2498 44 40.1246 44 41.439 43.045C41.8634 42.7366 42.2366 42.3634 42.545 41.939C43.5 40.6246 43.5 38.7498 43.5 35Z" stroke="#4992C1" stroke-width="2.5"></path><path d="M32.5 32L34.3398 33.5858C35.1132 34.2524 35.5 34.5858 35.5 35C35.5 35.4142 35.1132 35.7476 34.3398 36.4142L32.5 38" stroke="#4992C1" stroke-width="2.5" stroke-linecap="round" stroke-linejoin="round"></path><path d="M26.5 32L24.6602 33.5858C23.8868 34.2524 23.5 34.5858 23.5 35C23.5 35.4142 23.8868 35.7476 24.6602 36.4142L26.5 38" stroke="#4992C1" stroke-width="2.5" stroke-linecap="round" stroke-linejoin="round"></path><path d="M4.5 12H38.5" stroke="#4992C1" stroke-width="2.5" stroke-linecap="round" stroke-linejoin="round"></path></svg>