<svg xmlns="http://www.w3.org/2000/svg" width="48" height="48" viewBox="0 0 48 48" fill="none"><path d="M11.505 8C11.505 10.2091 9.7141 12 7.50496 12C5.29582 12 3.50496 10.2091 3.50496 8C3.50496 5.79086 5.29582 4 7.50496 4C9.7141 4 11.505 5.79086 11.505 8Z" stroke="#4992C1" stroke-width="2.5"></path><path d="M43.505 8C43.505 10.2091 41.7142 12 39.505 12C37.2958 12 35.505 10.2091 35.505 8C35.505 5.79086 37.2958 4 39.505 4C41.7142 4 43.505 5.79086 43.505 8Z" stroke="#4992C1" stroke-width="2.5"></path><path d="M43.505 40C43.505 42.2092 41.7142 44 39.505 44C37.2958 44 35.505 42.2092 35.505 40C35.505 37.7908 37.2958 36 39.505 36C41.7142 36 43.505 37.7908 43.505 40Z" stroke="#4992C1" stroke-width="2.5"></path><path d="M11.505 40C11.505 42.2092 9.7141 44 7.50496 44C5.29582 44 3.50496 42.2092 3.50496 40C3.50496 37.7908 5.29582 36 7.50496 36C9.7141 36 11.505 37.7908 11.505 40Z" stroke="#4992C1" stroke-width="2.5"></path><path d="M39.505 12V36M35.505 40H11.505M35.505 8H11.505M7.50496 12V36" stroke="#4992C1" stroke-width="2.5" stroke-linecap="round" stroke-linejoin="round"></path><path d="M20.8044 16.9609L18.6271 18.0264C15.879 19.3713 14.505 20.0436 14.505 21C14.505 21.9564 15.879 22.6288 18.6271 23.9736L20.8044 25.039C22.1134 25.6796 22.768 26 23.505 26C24.242 26 24.8966 25.6796 26.2056 25.039L28.3828 23.9736C31.131 22.6288 32.505 21.9564 32.505 21C32.505 20.0436 31.131 19.3713 28.3828 18.0264L26.2056 16.9609C24.8966 16.3203 24.242 16 23.505 16C22.768 16 22.1134 16.3203 20.8044 16.9609Z" stroke="#4992C1" stroke-width="2.5" stroke-linecap="round" stroke-linejoin="round"></path><path d="M32.505 27C32.505 27.9564 31.131 28.6288 28.3828 29.9736L26.2056 31.039C24.8966 31.6796 24.242 32 23.505 32C22.768 32 22.1134 31.6796 20.8044 31.039L18.6271 29.9736C15.879 28.6288 14.505 27.9564 14.505 27" stroke="#4992C1" stroke-width="2.5" stroke-linecap="round" stroke-linejoin="round"></path></svg>