<svg xmlns="http://www.w3.org/2000/svg" width="48" height="48" viewBox="0 0 48 48" fill="none"><path d="M6.37868 17.1213C7.25736 18 8.67158 18 11.5 18C14.3284 18 15.7426 18 16.6213 17.1213C17.5 16.2426 17.5 14.8284 17.5 12C17.5 9.17158 17.5 7.75736 16.6213 6.87868C15.7426 6 14.3284 6 11.5 6C8.67158 6 7.25736 6 6.37868 6.87868C5.5 7.75736 5.5 9.17158 5.5 12C5.5 14.8284 5.5 16.2426 6.37868 17.1213Z" stroke="#4992C1" stroke-width="2.5" stroke-linecap="round" stroke-linejoin="round"></path><path d="M30.3786 17.1213C31.2574 18 32.6716 18 35.5 18C38.3284 18 39.7426 18 40.6214 17.1213C41.5 16.2426 41.5 14.8284 41.5 12C41.5 9.17158 41.5 7.75736 40.6214 6.87868C39.7426 6 38.3284 6 35.5 6C32.6716 6 31.2574 6 30.3786 6.87868C29.5 7.75736 29.5 9.17158 29.5 12C29.5 14.8284 29.5 16.2426 30.3786 17.1213Z" stroke="#4992C1" stroke-width="2.5" stroke-linecap="round" stroke-linejoin="round"></path><path d="M30.3786 41.1214C31.2574 42 32.6716 42 35.5 42C38.3284 42 39.7426 42 40.6214 41.1214C41.5 40.2426 41.5 38.8284 41.5 36C41.5 33.1716 41.5 31.7574 40.6214 30.8786C39.7426 30 38.3284 30 35.5 30C32.6716 30 31.2574 30 30.3786 30.8786C29.5 31.7574 29.5 33.1716 29.5 36C29.5 38.8284 29.5 40.2426 30.3786 41.1214Z" stroke="#4992C1" stroke-width="2.5" stroke-linecap="round" stroke-linejoin="round"></path><path d="M6.37868 41.1214C7.25736 42 8.67158 42 11.5 42C14.3284 42 15.7426 42 16.6213 41.1214C17.5 40.2426 17.5 38.8284 17.5 36C17.5 33.1716 17.5 31.7574 16.6213 30.8786C15.7426 30 14.3284 30 11.5 30C8.67158 30 7.25736 30 6.37868 30.8786C5.5 31.7574 5.5 33.1716 5.5 36C5.5 38.8284 5.5 40.2426 6.37868 41.1214Z" stroke="#4992C1" stroke-width="2.5" stroke-linecap="round" stroke-linejoin="round"></path><path d="M23.5 12H17.5" stroke="#4992C1" stroke-width="2.5" stroke-linecap="round" stroke-linejoin="round"></path><path d="M29.5 36H23.5" stroke="#4992C1" stroke-width="2.5" stroke-linecap="round" stroke-linejoin="round"></path><path d="M35.5 24V18" stroke="#4992C1" stroke-width="2.5" stroke-linecap="round" stroke-linejoin="round"></path><path d="M11.5 30V24" stroke="#4992C1" stroke-width="2.5" stroke-linecap="round" stroke-linejoin="round"></path></svg>