<svg xmlns="http://www.w3.org/2000/svg" width="117" height="40" viewBox="0 0 117 40" fill="none"><path d="M0.64 38.9199V1.47992H16.11C16.474 1.47992 16.942 1.49725 17.514 1.53192C18.086 1.54925 18.6147 1.60125 19.1 1.68792C21.2667 2.01725 23.052 2.73659 24.456 3.84592C25.8773 4.95525 26.926 6.35925 27.602 8.05792C28.2953 9.73925 28.642 11.6113 28.642 13.6739C28.642 16.7246 27.8707 19.3506 26.328 21.5519C24.7853 23.7359 22.4193 25.0879 19.23 25.6079L16.552 25.8419H6.906V38.9199H0.64ZM22.142 38.9199L14.758 23.6839L21.128 22.2799L29.24 38.9199H22.142ZM6.906 19.9919H15.85C16.1967 19.9919 16.5867 19.9746 17.02 19.9399C17.4533 19.9053 17.852 19.8359 18.216 19.7319C19.256 19.4719 20.0707 19.0126 20.66 18.3539C21.2667 17.6953 21.6913 16.9499 21.934 16.1179C22.194 15.2859 22.324 14.4713 22.324 13.6739C22.324 12.8766 22.194 12.0619 21.934 11.2299C21.6913 10.3806 21.2667 9.62659 20.66 8.96792C20.0707 8.30925 19.256 7.84992 18.216 7.58992C17.852 7.48592 17.4533 7.42525 17.02 7.40792C16.5867 7.37325 16.1967 7.35592 15.85 7.35592H6.906V19.9919ZM42.8201 39.6999C40.7921 39.6999 39.0761 39.3186 37.6721 38.5559C36.2681 37.7759 35.2021 36.7446 34.4741 35.4619C33.7635 34.1793 33.4081 32.7666 33.4081 31.2239C33.4081 29.8719 33.6335 28.6586 34.0841 27.5839C34.5348 26.4919 35.2281 25.5559 36.1641 24.7759C37.1001 23.9786 38.3135 23.3286 39.8041 22.8259C40.9308 22.4619 42.2481 22.1326 43.7561 21.8379C45.2815 21.5433 46.9281 21.2746 48.6961 21.0319C50.4815 20.7719 52.3448 20.4946 54.2861 20.1999L52.0501 21.4739C52.0675 19.5326 51.6341 18.1026 50.7501 17.1839C49.8661 16.2653 48.3755 15.8059 46.2781 15.8059C45.0128 15.8059 43.7908 16.1006 42.6121 16.6899C41.4335 17.2793 40.6101 18.2933 40.1421 19.7319L34.4221 17.9379C35.1155 15.5633 36.4328 13.6566 38.3741 12.2179C40.3328 10.7793 42.9675 10.0599 46.2781 10.0599C48.7741 10.0599 50.9668 10.4673 52.8561 11.2819C54.7628 12.0966 56.1755 13.4313 57.0941 15.2859C57.5968 16.2739 57.9001 17.2879 58.0041 18.3279C58.1081 19.3506 58.1601 20.4686 58.1601 21.6819V38.9199H52.6741V32.8359L53.5841 33.8239C52.3188 35.8519 50.8368 37.3426 49.1381 38.2959C47.4568 39.2319 45.3508 39.6999 42.8201 39.6999ZM44.0681 34.7079C45.4895 34.7079 46.7028 34.4566 47.7081 33.9539C48.7135 33.4513 49.5108 32.8359 50.1001 32.1079C50.7068 31.3799 51.1141 30.6953 51.3221 30.0539C51.6515 29.2566 51.8335 28.3466 51.8681 27.3239C51.9201 26.2839 51.9461 25.4433 51.9461 24.8019L53.8701 25.3739C51.9808 25.6686 50.3601 25.9286 49.0081 26.1539C47.6561 26.3793 46.4948 26.5959 45.5241 26.8039C44.5535 26.9946 43.6955 27.2113 42.9501 27.4539C42.2221 27.7139 41.6068 28.0173 41.1041 28.3639C40.6015 28.7106 40.2115 29.1093 39.9341 29.5599C39.6741 30.0106 39.5441 30.5393 39.5441 31.1459C39.5441 31.8393 39.7175 32.4546 40.0641 32.9919C40.4108 33.5119 40.9135 33.9279 41.5721 34.2399C42.2481 34.5519 43.0801 34.7079 44.0681 34.7079ZM65.4491 6.57592V0.829921H71.7151V6.57592H65.4491ZM65.4491 38.9199V10.8399H71.7151V38.9199H65.4491ZM80.0233 38.9199V0.699921H86.2893V38.9199H80.0233ZM104.92 39.6999C101.453 39.6999 98.6362 38.9199 96.4695 37.3599C94.3028 35.7999 92.9855 33.6073 92.5175 30.7819L98.9135 29.7939C99.2428 31.1806 99.9708 32.2726 101.098 33.0699C102.224 33.8673 103.646 34.2659 105.362 34.2659C106.87 34.2659 108.031 33.9713 108.846 33.3819C109.678 32.7753 110.094 31.9519 110.094 30.9119C110.094 30.2706 109.938 29.7593 109.626 29.3779C109.331 28.9793 108.672 28.5979 107.65 28.2339C106.627 27.8699 105.058 27.4106 102.944 26.8559C100.586 26.2319 98.7142 25.5646 97.3275 24.8539C95.9408 24.1259 94.9442 23.2679 94.3375 22.2799C93.7308 21.2919 93.4275 20.0959 93.4275 18.6919C93.4275 16.9413 93.8868 15.4159 94.8055 14.1159C95.7242 12.8159 97.0068 11.8193 98.6535 11.1259C100.3 10.4153 102.242 10.0599 104.478 10.0599C106.662 10.0599 108.594 10.3979 110.276 11.0739C111.974 11.7499 113.344 12.7119 114.384 13.9599C115.424 15.2079 116.065 16.6726 116.308 18.3539L109.912 19.4979C109.756 18.3019 109.21 17.3573 108.274 16.6639C107.355 15.9706 106.124 15.5806 104.582 15.4939C103.108 15.4073 101.921 15.6326 101.02 16.1699C100.118 16.6899 99.6675 17.4266 99.6675 18.3799C99.6675 18.9173 99.8495 19.3766 100.214 19.7579C100.578 20.1393 101.306 20.5206 102.398 20.9019C103.507 21.2833 105.154 21.7513 107.338 22.3059C109.574 22.8779 111.359 23.5366 112.694 24.2819C114.046 25.0099 115.016 25.8853 115.606 26.9079C116.212 27.9306 116.516 29.1699 116.516 30.6259C116.516 33.4513 115.484 35.6699 113.422 37.2819C111.376 38.8939 108.542 39.6999 104.92 39.6999Z" fill="#E6EFF5"></path></svg>