<svg xmlns="http://www.w3.org/2000/svg" width="186" height="52" viewBox="0 0 186 52" fill="none"><path d="M0.64 38.9199V1.47992H6.984L24.352 27.8699V1.47992H30.696V38.9199H24.352L6.984 12.5299V38.9199H0.64ZM50.3662 39.6999C47.5582 39.6999 45.1056 39.0673 43.0082 37.8019C40.9109 36.5366 39.2816 34.7946 38.1202 32.5759C36.9762 30.3399 36.4042 27.7746 36.4042 24.8799C36.4042 21.9333 36.9936 19.3506 38.1722 17.1319C39.3509 14.9133 40.9889 13.1799 43.0862 11.9319C45.1836 10.6839 47.6102 10.0599 50.3662 10.0599C53.1916 10.0599 55.6529 10.6926 57.7502 11.9579C59.8476 13.2233 61.4769 14.9739 62.6382 17.2099C63.7996 19.4286 64.3802 21.9853 64.3802 24.8799C64.3802 27.7919 63.7909 30.3659 62.6122 32.6019C61.4509 34.8206 59.8216 36.5626 57.7242 37.8279C55.6269 39.0759 53.1742 39.6999 50.3662 39.6999ZM50.3662 33.8239C52.8622 33.8239 54.7169 32.9919 55.9302 31.3279C57.1436 29.6639 57.7502 27.5146 57.7502 24.8799C57.7502 22.1586 57.1349 19.9919 55.9042 18.3799C54.6736 16.7506 52.8276 15.9359 50.3662 15.9359C48.6849 15.9359 47.2982 16.3173 46.2062 17.0799C45.1316 17.8253 44.3342 18.8739 43.8142 20.2259C43.2942 21.5606 43.0342 23.1119 43.0342 24.8799C43.0342 27.6013 43.6496 29.7766 44.8802 31.4059C46.1282 33.0179 47.9569 33.8239 50.3662 33.8239ZM81.3668 39.6999C78.7841 39.6999 76.5308 39.0499 74.6068 37.7499C72.6828 36.4499 71.1921 34.6819 70.1348 32.4459C69.0774 30.2099 68.5488 27.6879 68.5488 24.8799C68.5488 22.0373 69.0774 19.5066 70.1348 17.2879C71.2094 15.0519 72.7261 13.2926 74.6848 12.0099C76.6434 10.7099 78.9488 10.0599 81.6008 10.0599C84.2701 10.0599 86.5061 10.7099 88.3088 12.0099C90.1288 13.2926 91.5068 15.0519 92.4428 17.2879C93.3788 19.5239 93.8468 22.0546 93.8468 24.8799C93.8468 27.6706 93.3788 30.1926 92.4428 32.4459C91.5068 34.6819 90.1114 36.4499 88.2568 37.7499C86.4021 39.0499 84.1054 39.6999 81.3668 39.6999ZM82.3288 34.0839C84.0101 34.0839 85.3621 33.7026 86.3848 32.9399C87.4248 32.1599 88.1788 31.0766 88.6468 29.6899C89.1321 28.3033 89.3748 26.6999 89.3748 24.8799C89.3748 23.0426 89.1321 21.4393 88.6468 20.0699C88.1788 18.6833 87.4421 17.6086 86.4368 16.8459C85.4314 16.0659 84.1314 15.6759 82.5368 15.6759C80.8554 15.6759 79.4688 16.0919 78.3768 16.9239C77.2848 17.7386 76.4788 18.8479 75.9588 20.2519C75.4388 21.6386 75.1788 23.1813 75.1788 24.8799C75.1788 26.5959 75.4301 28.1559 75.9328 29.5599C76.4528 30.9466 77.2414 32.0473 78.2988 32.8619C79.3561 33.6766 80.6994 34.0839 82.3288 34.0839ZM89.3748 38.9199V19.2119H88.5948V1.47992H94.9128V38.9199H89.3748ZM114.969 39.6999C112.126 39.6999 109.63 39.0846 107.481 37.8539C105.331 36.6233 103.65 34.9159 102.437 32.7319C101.241 30.5479 100.643 28.0346 100.643 25.1919C100.643 22.1239 101.232 19.4633 102.411 17.2099C103.589 14.9393 105.227 13.1799 107.325 11.9319C109.422 10.6839 111.849 10.0599 114.605 10.0599C117.517 10.0599 119.987 10.7446 122.015 12.1139C124.06 13.4659 125.577 15.3813 126.565 17.8599C127.553 20.3386 127.925 23.2593 127.683 26.6219H121.469V24.3339C121.451 21.2833 120.914 19.0559 119.857 17.6519C118.799 16.2479 117.135 15.5459 114.865 15.5459C112.299 15.5459 110.393 16.3433 109.145 17.9379C107.897 19.5153 107.273 21.8293 107.273 24.8799C107.273 27.7226 107.897 29.9239 109.145 31.4839C110.393 33.0439 112.213 33.8239 114.605 33.8239C116.147 33.8239 117.473 33.4859 118.583 32.8099C119.709 32.1166 120.576 31.1199 121.183 29.8199L127.371 31.6919C126.296 34.2226 124.632 36.1899 122.379 37.5939C120.143 38.9979 117.673 39.6999 114.969 39.6999ZM105.297 26.6219V21.8899H124.615V26.6219H105.297ZM133.508 38.9199V32.4979H139.93V38.9199H133.508ZM144.101 51.3999V45.5239H145.427C146.952 45.5239 148.036 45.1686 148.677 44.4579C149.318 43.7473 149.639 42.6986 149.639 41.3119V10.8399H155.879V44.1199C155.879 46.3906 155.212 48.1673 153.877 49.4499C152.56 50.7499 150.722 51.3999 148.365 51.3999H144.101ZM149.639 6.57592V0.829921H155.879V6.57592H149.639ZM174.084 39.6999C170.617 39.6999 167.8 38.9199 165.634 37.3599C163.467 35.7999 162.15 33.6073 161.682 30.7819L168.078 29.7939C168.407 31.1806 169.135 32.2726 170.262 33.0699C171.388 33.8673 172.81 34.2659 174.526 34.2659C176.034 34.2659 177.195 33.9713 178.01 33.3819C178.842 32.7753 179.258 31.9519 179.258 30.9119C179.258 30.2706 179.102 29.7593 178.79 29.3779C178.495 28.9793 177.836 28.5979 176.814 28.2339C175.791 27.8699 174.222 27.4106 172.108 26.8559C169.75 26.2319 167.878 25.5646 166.492 24.8539C165.105 24.1259 164.108 23.2679 163.502 22.2799C162.895 21.2919 162.592 20.0959 162.592 18.6919C162.592 16.9413 163.051 15.4159 163.97 14.1159C164.888 12.8159 166.171 11.8193 167.818 11.1259C169.464 10.4153 171.406 10.0599 173.642 10.0599C175.826 10.0599 177.758 10.3979 179.44 11.0739C181.138 11.7499 182.508 12.7119 183.548 13.9599C184.588 15.2079 185.229 16.6726 185.472 18.3539L179.076 19.4979C178.92 18.3019 178.374 17.3573 177.438 16.6639C176.519 15.9706 175.288 15.5806 173.746 15.4939C172.272 15.4073 171.085 15.6326 170.184 16.1699C169.282 16.6899 168.832 17.4266 168.832 18.3799C168.832 18.9173 169.014 19.3766 169.378 19.7579C169.742 20.1393 170.47 20.5206 171.562 20.9019C172.671 21.2833 174.318 21.7513 176.502 22.3059C178.738 22.8779 180.523 23.5366 181.858 24.2819C183.21 25.0099 184.18 25.8853 184.77 26.9079C185.376 27.9306 185.68 29.1699 185.68 30.6259C185.68 33.4513 184.648 35.6699 182.586 37.2819C180.54 38.8939 177.706 39.6999 174.084 39.6999Z" fill="#E6EFF5"></path></svg>