<svg xmlns="http://www.w3.org/2000/svg" width="83" height="40" viewBox="0 0 83 40" fill="none"><path d="M18.474 39.6999C14.73 39.6999 11.5233 38.8853 8.854 37.2559C6.18467 35.6093 4.13067 33.3213 2.692 30.3919C1.27067 27.4626 0.56 24.0653 0.56 20.1999C0.56 16.3346 1.27067 12.9373 2.692 10.0079C4.13067 7.07859 6.18467 4.79925 8.854 3.16992C11.5233 1.52325 14.73 0.699921 18.474 0.699921C22.79 0.699921 26.3867 1.78325 29.264 3.94992C32.1413 6.09925 34.1607 9.00259 35.322 12.6599L29.004 14.4019C28.276 11.9579 27.0367 10.0513 25.286 8.68192C23.5353 7.29525 21.2647 6.60192 18.474 6.60192C15.9607 6.60192 13.8633 7.16525 12.182 8.29192C10.518 9.41859 9.26133 11.0046 8.412 13.0499C7.58 15.0779 7.15533 17.4613 7.138 20.1999C7.138 22.9386 7.554 25.3306 8.386 27.3759C9.23533 29.4039 10.5007 30.9813 12.182 32.1079C13.8633 33.2346 15.9607 33.7979 18.474 33.7979C21.2647 33.7979 23.5353 33.1046 25.286 31.7179C27.0367 30.3313 28.276 28.4246 29.004 25.9979L35.322 27.7399C34.1607 31.3973 32.1413 34.3093 29.264 36.4759C26.3867 38.6253 22.79 39.6999 18.474 39.6999ZM47.1926 38.8679L49.9486 28.7279H40.5106L42.0706 22.8259H51.5086L53.1206 16.7159H43.6826L45.2946 10.8399H54.7066L57.2286 1.47992H63.3386L60.7906 10.8399H67.1866L69.7086 1.47992H75.8186L73.2706 10.8399H82.7086L81.1226 16.7159H71.7106L70.0466 22.8259H79.4846L77.8986 28.7279H68.4866L65.7826 38.8679H59.6726L62.3766 28.7279H56.0066L53.3026 38.8679H47.1926ZM57.6186 22.8259H63.9626L65.6006 16.7159H59.2306L57.6186 22.8259Z" fill="#E6EFF5"></path></svg>