<svg xmlns="http://www.w3.org/2000/svg" width="65" height="97" viewBox="0 0 65 97" fill="none"><g clip-path="url(#clip0_6144_1904)"><mask id="mask0_6144_1904" style="mask-type:luminance" maskUnits="userSpaceOnUse" x="0" y="0" width="67" height="61"><path d="M66.3786 0.919922H0.787109V60.9199H66.3786V0.919922Z" fill="white"></path></mask><g mask="url(#mask0_6144_1904)"><path d="M33.5886 7.46202L30.5744 9.48274L31.7257 6.21267L28.7115 4.19H32.4372L33.5886 0.919922L34.74 4.19H38.4657L35.4514 6.21267L36.6029 9.48274L33.5886 7.46202Z" fill="#F8F8F8"></path><path d="M47.3757 10.6788L44.3614 12.7015L45.5129 9.42946L42.4986 7.40874H46.2243L47.3757 4.13672L48.5272 7.40874H52.2549L49.2406 9.42946L50.3921 12.7015L47.3757 10.6788Z" fill="#F8F8F8"></path><path d="M57.3426 20.1495L54.3283 22.1702L55.4798 18.8982L52.4655 16.8775H56.1912L57.3426 13.6074L58.494 16.8775H62.2197L59.2055 18.8982L60.3568 22.1702L57.3426 20.1495Z" fill="#F8F8F8"></path><path d="M61.5014 33.3898L58.4871 35.4106L59.6385 32.1405L56.6243 30.1178H60.35L61.5014 26.8477L62.6528 30.1178H66.3784L63.3643 32.1405L64.5157 35.4106L61.5014 33.3898Z" fill="#F8F8F8"></path><path d="M57.3024 45.8605L54.2881 47.8832L55.4396 44.6112L52.4253 42.5905H56.151L57.3024 39.3184L58.4537 42.5905H62.1795L59.1653 44.6112L60.3166 47.8832L57.3024 45.8605Z" fill="#F8F8F8"></path><path d="M47.3567 55.1144L44.3425 57.1352L45.4938 53.8651L42.4796 51.8424H46.2052L47.3567 48.5723L48.5081 51.8424H52.2338L49.2195 53.8651L50.3709 57.1352L47.3567 55.1144Z" fill="#F8F8F8"></path><path d="M19.5793 10.6788L22.5936 12.7015L21.4422 9.42946L24.4565 7.40874H20.7308L19.5793 4.13672L18.4279 7.40874H14.7022L17.7165 9.42946L16.565 12.7015L19.5793 10.6788Z" fill="#F8F8F8"></path><path d="M9.61562 20.1495L12.6298 22.1702L11.4785 18.8982L14.4927 16.8775H10.767L9.61562 13.6074L8.46422 16.8775H4.7364L7.75276 18.8982L6.60136 22.1702L9.61562 20.1495Z" fill="#F8F8F8"></path><path d="M5.66422 33.3898L8.67846 35.4106L7.52708 32.1405L10.5413 30.1178H6.81561L5.66422 26.8477L4.51282 30.1178H0.787109L3.80136 32.1405L2.64996 35.4106L5.66422 33.3898Z" fill="#F8F8F8"></path><path d="M9.65266 45.8605L12.6669 47.8832L11.5155 44.6112L14.5318 42.5905H10.804L9.65266 39.3184L8.50126 42.5905H4.77554L7.7898 44.6112L6.6384 47.8832L9.65266 45.8605Z" fill="#F8F8F8"></path><path d="M19.5984 55.1144L22.6126 57.1352L21.4613 53.8651L24.4755 51.8424H20.7497L19.5984 48.5723L18.447 51.8424H14.7213L17.7356 53.8651L16.5841 57.1352L19.5984 55.1144Z" fill="#F8F8F8"></path><path d="M33.6235 58.8995L30.6093 60.9202L31.7606 57.6501L28.7465 55.6294H32.4722L33.6235 52.3574L34.7749 55.6294H38.5006L35.4864 57.6501L36.6378 60.9202L33.6235 58.8995Z" fill="#F8F8F8"></path><path d="M30.9571 38.1674L24.3792 32.0955L26.9094 29.76L30.9571 33.4964L40.2314 24.9355L42.7615 27.271L30.9571 38.1674Z" fill="#F8F8F8"></path></g></g><g clip-path="url(#clip1_6144_1904)"><path d="M7 90.4199C10.3137 90.4199 13 87.7336 13 84.4199C13 81.1062 10.3137 78.4199 7 78.4199C3.68629 78.4199 1 81.1062 1 84.4199C1 87.7336 3.68629 90.4199 7 90.4199Z" fill="#4992C1"></path><path d="M4.68457 84.8441L5.18847 85.6405C5.55248 86.2158 5.73448 86.5035 5.9679 86.6042C6.17185 86.6922 6.40273 86.694 6.60804 86.6092C6.84301 86.5121 7.02949 86.2274 7.40246 85.6579L9.31314 82.7402" stroke="#F8F8F8" stroke-linecap="round" stroke-linejoin="round"></path></g><path d="M28.6534 82.4597C28.5436 82.115 28.3958 81.8063 28.2102 81.5336C28.0284 81.257 27.8106 81.0222 27.5568 80.829C27.303 80.632 27.0133 80.4824 26.6875 80.3801C26.3655 80.2779 26.0114 80.2267 25.625 80.2267C24.9697 80.2267 24.3788 80.3953 23.8523 80.7324C23.3258 81.0695 22.9091 81.5639 22.6023 82.2154C22.2992 82.8631 22.1477 83.6567 22.1477 84.5961C22.1477 85.5392 22.3011 86.3366 22.608 86.9881C22.9148 87.6396 23.3352 88.1339 23.8693 88.4711C24.4034 88.8082 25.0114 88.9767 25.6932 88.9767C26.3258 88.9767 26.8769 88.848 27.3466 88.5904C27.8201 88.3328 28.1856 87.9692 28.4432 87.4995C28.7045 87.026 28.8352 86.4692 28.8352 85.829L29.2898 85.9142H25.9602V84.4654H30.5341V85.7892C30.5341 86.7665 30.3258 87.615 29.9091 88.3347C29.4962 89.0506 28.9242 89.6036 28.1932 89.9938C27.4659 90.3839 26.6326 90.579 25.6932 90.579C24.6402 90.579 23.7159 90.3366 22.9205 89.8517C22.1288 89.3669 21.5114 88.6794 21.0682 87.7892C20.625 86.8953 20.4034 85.8347 20.4034 84.6074C20.4034 83.6794 20.5322 82.8461 20.7898 82.1074C21.0473 81.3688 21.4091 80.7419 21.875 80.2267C22.3447 79.7078 22.8958 79.312 23.5284 79.0392C24.1648 78.7627 24.8598 78.6245 25.6136 78.6245C26.2424 78.6245 26.8277 78.7173 27.3693 78.9029C27.9148 79.0885 28.3996 79.3517 28.8239 79.6926C29.2519 80.0336 29.6061 80.4389 29.8864 80.9086C30.1667 81.3745 30.3561 81.8915 30.4545 82.4597H28.6534ZM36.5298 90.4199H32.7628V78.7836H36.6491C37.7893 78.7836 38.7685 79.0165 39.5866 79.4824C40.4048 79.9445 41.0317 80.6093 41.4673 81.4767C41.9067 82.3404 42.1264 83.3764 42.1264 84.5847C42.1264 85.7968 41.9048 86.8385 41.4616 87.7097C41.0223 88.5809 40.3859 89.2514 39.5526 89.7211C38.7192 90.187 37.7116 90.4199 36.5298 90.4199ZM34.5185 88.8858H36.4332C37.3196 88.8858 38.0563 88.7192 38.6435 88.3858C39.2306 88.0487 39.67 87.562 39.9616 86.9256C40.2533 86.2855 40.3991 85.5051 40.3991 84.5847C40.3991 83.6718 40.2533 82.8972 39.9616 82.2608C39.6738 81.6245 39.2438 81.1415 38.6719 80.812C38.0999 80.4824 37.3897 80.3176 36.5412 80.3176H34.5185V88.8858ZM44.3097 90.4199V78.7836H48.4574C49.3627 78.7836 50.1127 78.9483 50.7074 79.2779C51.3021 79.6074 51.7472 80.0582 52.0426 80.6301C52.3381 81.1983 52.4858 81.8385 52.4858 82.5506C52.4858 83.2665 52.3362 83.9105 52.0369 84.4824C51.7415 85.0506 51.2945 85.5014 50.696 85.8347C50.1013 86.1642 49.3532 86.329 48.4517 86.329H45.5994V84.8404H48.2926C48.8646 84.8404 49.3286 84.7419 49.6847 84.5449C50.0407 84.3442 50.3021 84.0714 50.4688 83.7267C50.6354 83.382 50.7188 82.99 50.7188 82.5506C50.7188 82.1112 50.6354 81.7211 50.4688 81.3801C50.3021 81.0392 50.0388 80.7722 49.679 80.579C49.3229 80.3858 48.8532 80.2892 48.2699 80.2892H46.0653V90.4199H44.3097ZM54.544 90.4199V78.7836H58.6918C59.5933 78.7836 60.3414 78.9389 60.9361 79.2495C61.5346 79.5601 61.9815 79.99 62.277 80.5392C62.5724 81.0847 62.7202 81.7154 62.7202 82.4313C62.7202 83.1434 62.5705 83.7703 62.2713 84.312C61.9759 84.8498 61.5289 85.2684 60.9304 85.5676C60.3357 85.8669 59.5876 86.0165 58.6861 86.0165H55.544V84.5051H58.527C59.0952 84.5051 59.5573 84.4237 59.9134 84.2608C60.2732 84.098 60.5365 83.8612 60.7031 83.5506C60.8698 83.24 60.9531 82.8669 60.9531 82.4313C60.9531 81.9919 60.8679 81.6112 60.6974 81.2892C60.5308 80.9673 60.2675 80.7211 59.9077 80.5506C59.5516 80.3764 59.0838 80.2892 58.5043 80.2892H56.2997V90.4199H54.544ZM60.2884 85.1699L63.1634 90.4199H61.1634L58.3452 85.1699H60.2884Z" fill="#F8F8F8"></path><defs><clipPath id="clip0_6144_1904"><rect width="65" height="60" fill="white" transform="translate(0 0.419922)"></rect></clipPath><clipPath id="clip1_6144_1904"><rect width="13" height="13" fill="white" transform="translate(0.5 77.9199)"></rect></clipPath></defs></svg>