<svg xmlns="http://www.w3.org/2000/svg" width="62" height="97" viewBox="0 0 62 97" fill="none"><path d="M31 60.9199C47.5685 60.9199 61 47.4885 61 30.9199C61 14.3514 47.5685 0.919922 31 0.919922C14.4315 0.919922 1 14.3514 1 30.9199C1 47.4885 14.4315 60.9199 31 60.9199Z" stroke="white" stroke-width="0.383468" stroke-miterlimit="10"></path><path d="M31 51.4607C42.3446 51.4607 51.5411 42.2641 51.5411 30.9195C51.5411 19.575 42.3446 10.3784 31 10.3784C19.6555 10.3784 10.4589 19.575 10.4589 30.9195C10.4589 42.2641 19.6555 51.4607 31 51.4607Z" fill="white"></path><path d="M44.447 25.8324C44.1914 25.1549 43.6673 24.5541 43.0282 24.1195C41.1748 22.9436 38.3499 22.8541 36.4453 23.9278C35.41 24.4647 34.7197 25.5128 34.5024 26.5865C34.119 28.3633 34.2212 30.4723 35.5889 31.8017C37.1867 33.195 39.5003 33.5145 41.571 32.9393C41.6733 32.9265 41.9801 32.8371 42.1974 32.7348L42.2613 32.7092C42.9004 32.4408 43.5139 32.0062 43.9741 31.4182C45.0222 29.8716 45.0862 27.5708 44.447 25.8324ZM41.0853 29.8204C41.0086 30.1528 40.7913 30.5107 40.4334 30.6385C39.8582 30.8942 39.0913 30.8175 38.5672 30.5235C38.1198 30.2167 38.0687 29.6926 38.0176 29.2069C37.9792 28.2482 37.9025 27.2256 38.1709 26.3437C38.3882 25.794 38.9634 25.6534 39.5003 25.6151C40.0499 25.6151 40.5996 25.7046 40.9447 26.1519C41.162 26.4715 41.1492 26.8933 41.1876 27.2768C41.162 28.0565 41.2259 29.0152 41.0853 29.8204Z" fill="#11172C"></path><path d="M24.2127 30.6899C23.7397 30.6644 23.2157 30.7027 22.7555 30.6516L22.7683 25.7432L22.7938 25.7048L24.1999 25.692C24.2127 24.8995 24.2255 24.0431 24.1871 23.3145L18.8186 23.3018L17.9366 23.3145C17.9238 24.0559 17.9238 24.9251 17.9366 25.6793C18.4223 25.692 18.8825 25.6793 19.3426 25.7176V30.4726L19.3299 30.6643L17.9238 30.6899C17.8982 31.4696 17.8982 32.2238 17.9238 33.0035H24.1999V30.6899H24.2127Z" fill="#11172C"></path><path d="M40.0244 34.0514C39.4236 34.9078 38.6694 35.7259 37.8514 36.3778C37.8258 36.4161 37.7363 36.4033 37.7108 36.365C37.3529 36.1477 36.9694 35.956 36.6243 35.7387C37.0844 35.189 37.519 34.6522 37.8642 34.0386H37.4168C37.0589 34.5627 36.6882 35.0995 36.2152 35.5597C35.5889 35.3041 35.0137 35.0868 34.3746 34.9206L34.2979 34.8695C34.4002 34.5883 34.5791 34.3198 34.643 34.0386H34.2596L33.8761 34.7928C33.0325 34.6138 32.1121 34.5116 31.2557 34.4604C31.2174 34.3326 31.2685 34.1537 31.2174 34.0386H30.8467C30.8211 34.2048 30.885 34.3326 30.8083 34.4732C29.9264 34.5116 29.07 34.6138 28.2391 34.78L27.8556 34.0386C27.715 34.0386 27.5616 34.0131 27.4594 34.0514L27.8173 34.8823L27.7789 34.9206C27.1398 35.0995 26.5135 35.3296 25.9 35.5853L25.8488 35.5597C25.4526 35.1251 25.0691 34.6522 24.7495 34.1792C24.6729 33.9364 24.3916 34.077 24.2383 34.0514C24.5834 34.665 25.0308 35.2146 25.4909 35.777C25.1075 36.0071 24.724 36.25 24.3277 36.4289C23.4713 35.7898 22.6788 34.9462 22.0781 34.0642C21.9119 34.0386 21.7968 34.0514 21.6179 34.0642C22.6405 35.662 24.2383 37.0552 25.9 37.8861C25.9 37.8861 25.9 37.8733 25.9127 37.8733C25.9255 37.8733 25.9511 37.8989 25.9255 37.9117C27.0504 38.4613 28.2519 38.8448 29.5173 39.0237C33.8889 39.5989 38.0687 37.7327 40.4845 34.0642C40.3567 34.0386 40.165 34.0386 40.0244 34.0514ZM34.0806 35.3041L34.119 35.2785C34.7325 35.4191 35.3205 35.6108 35.8573 35.8793C35.3972 36.3906 34.822 36.8507 34.2723 37.2214C33.94 37.4131 33.6204 37.6304 33.2753 37.7966L32.6618 37.5282L32.7001 37.4259C33.2242 36.7485 33.6844 36.0454 34.0806 35.3041ZM31.2813 34.8823C32.0994 34.895 32.9046 34.9845 33.6588 35.1635L33.6716 35.2018C33.2753 35.956 32.7768 36.6846 32.2272 37.3748C31.9843 37.4004 31.7542 37.3109 31.5114 37.2981L31.2685 37.2725C31.2429 36.4417 31.2302 35.7131 31.2813 34.8823ZM28.5331 35.1379C29.2745 34.9973 30.0414 34.8823 30.8339 34.8823L30.8467 37.247C30.5527 37.3109 30.2204 37.3109 29.9392 37.3876C29.3512 36.6973 28.8654 35.956 28.4564 35.189L28.5331 35.1379ZM26.2323 35.8921C26.7947 35.6236 27.3699 35.4319 27.9707 35.2785L28.0346 35.2913C28.4436 36.0582 28.9549 36.7868 29.4662 37.5154C29.2617 37.6304 29.0188 37.6944 28.8271 37.8094C27.8812 37.3492 26.9864 36.6973 26.2323 35.9304V35.8921ZM28.0729 38.2951C26.8714 37.9883 25.7593 37.4515 24.7368 36.7229V36.6718C25.0819 36.4673 25.427 36.2372 25.7849 36.0838C26.603 36.8891 27.4338 37.4898 28.3541 38.0523C28.2902 38.1545 28.1752 38.2312 28.0729 38.2951ZM33.352 38.4741C31.8437 38.7936 30.1564 38.8064 28.6481 38.4485C28.6226 38.3846 28.7248 38.359 28.7632 38.3207C30.0925 37.4643 32.1505 37.4643 33.4543 38.3846C33.4926 38.4741 33.3904 38.4485 33.352 38.4741ZM34.7197 38.0778L34.055 38.2823C33.94 38.2312 33.8377 38.1417 33.7355 38.0523L33.7611 38.0139C34.6686 37.4771 35.4994 36.8379 36.2792 36.071C36.6626 36.2244 37.0333 36.4417 37.3784 36.6718C36.5859 37.3109 35.6656 37.7327 34.7197 38.0778Z" fill="#11172C"></path><path d="M22.0397 22.2148C22.3848 21.7418 22.7683 21.2817 23.1901 20.8343C23.5608 20.4892 23.9059 20.1441 24.3022 19.9012C24.6728 20.1441 25.0819 20.3358 25.4398 20.5659C24.9924 21.1027 24.545 21.6524 24.2127 22.2403C24.3149 22.2787 24.4939 22.2659 24.6345 22.2403C24.9924 21.7291 25.3759 21.205 25.836 20.7448C26.4496 20.9749 27.0504 21.205 27.6767 21.3712L27.7278 21.4223L27.3699 22.2276C27.5233 22.2531 27.6256 22.2403 27.7789 22.2276C27.9068 21.9847 28.009 21.7291 28.1496 21.4862C28.9805 21.6651 29.8497 21.7674 30.7316 21.793C30.8467 21.8952 30.7572 22.0997 30.8083 22.2276H31.1918C31.2302 22.087 31.179 21.9336 31.2302 21.8058C32.061 21.7674 32.9302 21.6779 33.7227 21.4862L33.7866 21.499L34.1701 22.2276C34.2979 22.2276 34.4641 22.2531 34.5663 22.202L34.2084 21.3967L34.234 21.3712C34.8859 21.205 35.4994 20.9493 36.1258 20.7065C36.5731 21.1666 36.9822 21.7163 37.3529 22.2403C37.5063 22.2403 37.6596 22.2531 37.7747 22.2148C37.6085 21.908 37.3912 21.6012 37.1611 21.3328C36.9694 21.0644 36.7777 20.8343 36.5348 20.5787V20.502L37.5318 19.9268L37.6724 19.8756C38.5416 20.5275 39.3085 21.3328 39.9221 22.2148C40.0883 22.2148 40.2417 22.2787 40.3823 22.202C38.4777 19.3516 35.3205 17.5109 31.9204 17.2425L31.9076 17.268L31.8821 17.2425C31.4986 17.2041 31.0256 17.1913 30.6166 17.2297C30.4632 17.2169 30.2715 17.2297 30.0925 17.2425C26.6797 17.5109 23.5224 19.2621 21.5668 22.2403C21.7201 22.2148 21.8863 22.2787 22.0397 22.2148ZM27.9451 20.9877L27.894 21.0005C27.306 20.8471 26.7436 20.6681 26.1939 20.4253L26.2195 20.3358C26.9992 19.5944 27.8301 18.9809 28.7376 18.5079C28.9549 18.5974 29.1594 18.6613 29.3767 18.7636L29.3384 18.8786C28.8015 19.5433 28.3669 20.2719 27.9451 20.9877ZM30.7828 21.3712C30.3865 21.4223 30.0286 21.3584 29.6324 21.3328C29.2489 21.2817 28.7632 21.2306 28.3797 21.1027C28.7887 20.3358 29.2745 19.5944 29.8624 18.9042L30.77 19.032C30.8083 19.7606 30.7828 20.6042 30.7828 21.3712ZM31.2174 21.3839C31.1918 20.6426 31.2046 19.8117 31.2174 19.0448C31.4986 19.0064 31.8181 18.9553 32.0993 18.917C32.649 19.62 33.1986 20.3358 33.5693 21.1027C32.8024 21.2817 32.0227 21.3839 31.2174 21.3839ZM35.7679 20.3997C35.2054 20.6426 34.643 20.8599 34.0295 20.9877C33.5821 20.2463 33.1092 19.5049 32.5595 18.7891C32.764 18.6741 33.0069 18.5974 33.2114 18.4824C34.1445 18.9425 35.0393 19.6072 35.7934 20.3486L35.7679 20.3997ZM33.94 18.0094C35.1415 18.3162 36.2664 18.853 37.289 19.5816L37.2634 19.6328L36.2792 20.1824H36.2025C35.4483 19.4282 34.5663 18.7764 33.6716 18.2523C33.6971 18.15 33.8377 18.0733 33.94 18.0094ZM33.3648 17.8688V17.8944C32.1249 18.7891 30.1181 18.8786 28.8015 18.0478C28.7248 17.9966 28.5842 17.9583 28.5714 17.8688C30.0925 17.5237 31.8693 17.4981 33.3648 17.8688ZM24.6856 19.6072C25.5804 18.9553 26.5774 18.4568 27.6383 18.1245C27.6767 18.0861 27.715 18.035 27.7662 18.035V18.0605C27.8812 18.0861 27.9707 17.9583 28.0602 18.0478C28.1496 18.1245 28.2519 18.1756 28.3158 18.2395C27.4338 18.7891 26.5646 19.4282 25.7721 20.208C25.3887 20.0674 25.0307 19.8628 24.6856 19.62V19.6072Z" fill="#11172C"></path><path d="M30.7956 30.8045C29.4534 31.1752 28.009 30.894 27.0376 29.8842C26.9225 29.7436 26.8586 29.5774 26.7436 29.4368L24.8262 29.4496C24.8007 30.5872 24.7879 31.8782 24.8262 33.003L26.9609 32.9903L26.9864 32.3128C27.2293 32.4278 27.4722 32.5684 27.715 32.6835C29.1978 33.297 31.1023 33.4376 32.5723 32.6835C33.646 32.0955 34.2084 30.9579 34.055 29.7436C33.9017 28.5548 32.764 27.4811 31.6008 27.1871L28.1496 26.1901L27.894 26.0623C27.7789 25.96 27.7023 25.845 27.7406 25.6916C28.009 25.2314 28.6354 25.372 29.1083 25.3848C30.1053 25.5254 31.1279 25.8578 31.7159 26.7653C32.3422 26.7653 33.0708 26.7781 33.7483 26.7525C33.7738 25.6021 33.7355 24.5923 33.7227 23.4419C33.0836 23.4291 32.3039 23.4291 31.652 23.4547C31.6264 23.6209 31.6775 23.8637 31.6136 24.0299L30.9617 23.6848C29.3895 23.0329 27.2037 22.9562 25.7721 23.9788C24.8518 24.6434 24.5578 25.8578 24.8007 26.9187C24.9796 27.9285 25.9511 28.6699 26.8842 29.015C28.1496 29.4624 29.479 29.7819 30.7572 30.2165C30.885 30.2676 31.0512 30.3955 31.0256 30.5488C31.0256 30.6767 30.8978 30.7406 30.7956 30.8045Z" fill="#11172C"></path><path d="M20.9404 44.4818C20.9404 45.1593 20.5697 45.53 19.7772 45.53C19.0358 45.53 18.6396 45.1593 18.6396 44.5202V44.4179H19.3554V44.5585C19.3554 44.8397 19.5088 44.9548 19.7516 44.9548C20.0201 44.9548 20.1735 44.8397 20.1735 44.4562V43.7277H20.1607C20.0329 43.9577 19.8028 44.0728 19.4704 44.0728C18.908 44.0728 18.6268 43.7404 18.6268 43.1525V42.4239C18.6268 41.7848 19.0358 41.4141 19.7772 41.4141C20.5186 41.4141 20.9276 41.7848 20.9276 42.4239V44.4818H20.9404ZM20.1862 43.1141V42.3983C20.1862 42.1171 20.0328 42.0148 19.79 42.0148C19.5471 42.0148 19.3937 42.1171 19.3937 42.3983V43.1141C19.3937 43.3953 19.5471 43.5104 19.79 43.5104C20.0328 43.5104 20.1862 43.3953 20.1862 43.1141Z" fill="#11172C"></path><path d="M21.3877 42.4239C21.3877 41.7848 21.7968 41.4141 22.5381 41.4141C23.2795 41.4141 23.6885 41.7848 23.6885 42.4239V44.5074C23.6885 45.1465 23.2795 45.5172 22.5381 45.5172C21.7968 45.5172 21.3877 45.1465 21.3877 44.5074V42.4239ZM22.1419 44.5585C22.1419 44.8397 22.2953 44.9548 22.5381 44.9548C22.781 44.9548 22.9344 44.8397 22.9344 44.5585V42.3983C22.9344 42.1171 22.781 42.0021 22.5381 42.0021C22.2953 42.0021 22.1419 42.1171 22.1419 42.3983V44.5585Z" fill="#11172C"></path><path d="M24.1231 42.4239C24.1231 41.7848 24.5322 41.4141 25.2735 41.4141C26.0149 41.4141 26.4239 41.7848 26.4239 42.4239V44.5074C26.4239 45.1465 26.0149 45.5172 25.2735 45.5172C24.5322 45.5172 24.1231 45.1465 24.1231 44.5074V42.4239ZM24.8773 44.5585C24.8773 44.8397 25.0307 44.9548 25.2735 44.9548C25.5164 44.9548 25.6698 44.8397 25.6698 44.5585V42.3983C25.6698 42.1171 25.5164 42.0021 25.2735 42.0021C25.0307 42.0021 24.8773 42.1171 24.8773 42.3983V44.5585Z" fill="#11172C"></path><path d="M27.3826 41.9765C27.9706 41.9765 28.0984 41.7465 28.2135 41.478H28.7248V45.4917H27.9706V42.4239H27.3826V41.9765Z" fill="#11172C"></path><path d="M30.3864 42.6924V43.3059H29.6579V42.6924H30.3864ZM30.3864 44.8654V45.4789H29.6579V44.8654H30.3864Z" fill="#11172C"></path><path d="M32.0481 41.9892C31.8053 41.9892 31.6519 42.1042 31.6519 42.3854V42.82H30.9361V42.4366C30.9361 41.7974 31.3196 41.4268 32.0737 41.4268C32.8151 41.4268 33.2113 41.7974 33.2113 42.4366C33.2113 42.9734 32.9812 43.3952 32.2782 44.0216C31.8308 44.4178 31.703 44.6095 31.703 44.8268C31.703 44.8524 31.703 44.878 31.7158 44.9163H33.1474V45.4915H30.9361V44.9802C30.9361 44.5328 31.1278 44.2005 31.6902 43.702C32.2654 43.1907 32.4316 42.8712 32.4316 42.4493C32.4444 42.0914 32.291 41.9892 32.0481 41.9892Z" fill="#11172C"></path><path d="M33.6076 42.4239C33.6076 41.7848 34.0166 41.4141 34.758 41.4141C35.4994 41.4141 35.9084 41.7848 35.9084 42.4239V44.5074C35.9084 45.1465 35.4994 45.5172 34.758 45.5172C34.0166 45.5172 33.6076 45.1465 33.6076 44.5074V42.4239ZM34.3618 44.5585C34.3618 44.8397 34.5151 44.9548 34.758 44.9548C35.0009 44.9548 35.1543 44.8397 35.1543 44.5585V42.3983C35.1543 42.1171 35.0009 42.0021 34.758 42.0021C34.5151 42.0021 34.3618 42.1171 34.3618 42.3983V44.5585Z" fill="#11172C"></path><path d="M36.8671 41.9765C37.4551 41.9765 37.5829 41.7465 37.6979 41.478H38.2092V45.4917H37.4551V42.4239H36.8671V41.9765Z" fill="#11172C"></path><path d="M39.8198 44.1875V44.5582C39.8198 44.8394 39.9732 44.9416 40.216 44.9416C40.4589 44.9416 40.6123 44.8394 40.6123 44.5582V43.6762C40.6123 43.395 40.4589 43.2799 40.216 43.2799C39.9732 43.2799 39.8198 43.395 39.8198 43.6762V43.7912H39.104L39.2446 41.4648H41.2514V42.04H39.922L39.8581 42.9987H39.8709C40.0115 42.807 40.2288 42.7047 40.5228 42.7047C41.0852 42.7047 41.3664 43.0371 41.3664 43.6251V44.5198C41.3664 45.1589 40.983 45.5296 40.2288 45.5296C39.4874 45.5296 39.0912 45.1589 39.0912 44.5198V44.1875H39.8198Z" fill="#11172C"></path><path d="M15.1627 12.5261L15.7124 13.0758C16.3771 13.7404 16.3515 14.5202 15.5718 15.2871C14.792 16.054 14.0123 16.0668 13.3604 15.4021L11.213 13.2291C10.5483 12.5645 10.5739 11.7847 11.3536 11.0178C12.1333 10.2509 12.913 10.2381 13.5649 10.9028L13.9612 11.3118L13.2198 12.0532L12.7724 11.6058C12.4785 11.3118 12.21 11.3501 11.9544 11.6058C11.6987 11.8487 11.6604 12.1299 11.9544 12.4239L14.1785 14.6735C14.4725 14.9675 14.7409 14.9164 14.9838 14.6735C15.2394 14.4307 15.2906 14.1623 14.9966 13.8683L14.4086 13.2675L15.1627 12.5261Z" fill="white"></path><path d="M17.3229 9.48402L18.6139 8.67874L19.0613 9.39455L17.7703 10.1998L18.6778 11.657L20.314 10.6472L20.7614 11.363L18.1793 12.9608L15.086 7.97571L17.6681 6.37793L18.1154 7.09374L16.4793 8.10354L17.3229 9.48402Z" fill="white"></path><path d="M24.6088 9.81614C24.5066 9.68832 24.4299 9.62441 24.2765 9.16424L23.9825 8.29505C23.8036 7.78376 23.5351 7.65594 23.0494 7.82211L22.6915 7.94993L23.4584 10.2124L22.4103 10.5703L20.5313 5.01001L22.1163 4.46037C23.2028 4.08968 23.8163 4.35811 24.1103 5.21452L24.2637 5.64912C24.4555 6.22432 24.366 6.65892 23.957 7.00404V7.01682C24.5449 7.01682 24.8517 7.37473 25.0562 7.94993L25.3502 8.80634C25.4397 9.07477 25.5164 9.2665 25.6953 9.44546L24.6088 9.81614ZM21.8479 5.4446L22.4231 7.15743L22.8321 7.01682C23.2284 6.889 23.4201 6.65892 23.2667 6.21154L23.0878 5.6619C22.9599 5.26565 22.7299 5.15061 22.3592 5.26565L21.8479 5.4446Z" fill="white"></path><path d="M26.5262 3.32306L29.939 2.99072L30.0157 3.82157L28.8653 3.93661L29.3638 8.94726L28.2518 9.0623L27.7533 4.05165L26.6029 4.16669L26.5262 3.32306Z" fill="white"></path><path d="M32.8278 3.08008L33.9399 3.16955L33.4414 9.01105L32.3293 8.92158L32.8278 3.08008Z" fill="white"></path><path d="M37.4934 6.46738L38.8739 6.85084L38.6566 7.65613L37.2761 7.27266L36.637 9.61181L35.5632 9.31782L37.1099 3.65527L39.9476 4.43499L39.7303 5.24028L37.9663 4.75455L37.4934 6.46738Z" fill="white"></path><path d="M42.6574 5.55957L43.6544 6.0453L41.098 11.3244L40.101 10.8386L42.6574 5.55957Z" fill="white"></path><path d="M45.8785 10.2894L47.1056 11.1969L46.6071 11.8744L45.38 10.9669L44.3575 12.3473L45.9041 13.4978L45.4056 14.1752L42.977 12.3729L46.4793 7.65625L48.9079 9.45855L48.4094 10.136L46.8628 8.98561L45.8785 10.2894Z" fill="white"></path><path d="M51.2215 11.6187L52.3591 12.9608C53.075 13.8044 53.0366 14.5586 52.3208 15.1593L50.0583 17.0767C49.3425 17.6902 48.6012 17.6008 47.8854 16.7443L46.7477 15.4022L51.2215 11.6187ZM51.2982 13.0119L48.1027 15.7218L48.5117 16.1947C48.7418 16.4631 48.9974 16.527 49.317 16.2586L51.6433 14.2901C51.9629 14.0217 51.9373 13.7533 51.7073 13.4849L51.2982 13.0119Z" fill="white"></path><path d="M14.0124 50.1824L13.3861 50.7193C12.6319 51.3584 11.8267 51.2817 11.0725 50.4125C10.3183 49.5433 10.3567 48.7252 11.1109 48.0733L13.5395 45.9771C14.2936 45.3379 15.0989 45.4146 15.8531 46.2838C16.6072 47.153 16.5689 47.9711 15.8147 48.623L15.3546 49.0192L14.6388 48.1756L15.1373 47.741C15.4696 47.447 15.444 47.1658 15.2012 46.8846C14.9583 46.6034 14.6771 46.5395 14.3448 46.8207L11.8139 48.9937C11.4815 49.2877 11.5071 49.5561 11.75 49.8501C11.9928 50.1313 12.2613 50.208 12.6064 49.914L13.2711 49.3388L14.0124 50.1824Z" fill="white"></path><path d="M17.6043 50.1953C18.1539 49.3773 18.9847 49.2495 19.9434 49.8886C20.9021 50.5277 21.1066 51.3458 20.557 52.1638L18.793 54.8353C18.2434 55.6534 17.4125 55.7812 16.4539 55.1421C15.4952 54.503 15.2907 53.6849 15.8403 52.8668L17.6043 50.1953ZM16.7734 53.5699C16.5306 53.9406 16.6328 54.209 16.9396 54.4135C17.2464 54.618 17.5403 54.6052 17.7832 54.2473L19.6239 51.4736C19.8667 51.1029 19.7645 50.8345 19.4577 50.6299C19.1509 50.4254 18.8569 50.4382 18.6141 50.7961L16.7734 53.5699Z" fill="white"></path><path d="M24.4683 56.7909H24.4939L26.424 52.7773L27.9962 53.2119L26.3345 59.1684L25.2736 58.8745L26.4624 54.6052H26.4368L24.4811 58.6572L23.4202 58.3632L23.7653 53.9277H23.7397L22.5765 58.1331L21.5923 57.8647L23.2412 51.9209L24.8134 52.3555L24.4683 56.7909Z" fill="white"></path><path d="M33.7099 54.7332L33.7355 55.5384C33.7738 56.5227 33.2242 57.0851 32.0482 57.1234L31.4986 57.149L31.5881 59.4626L30.4249 59.5009L30.1948 53.3271L31.9204 53.2632C33.0708 53.2248 33.6716 53.7489 33.7099 54.7332ZM31.3835 54.1707L31.4602 56.2543L32.0099 56.2287C32.3806 56.2159 32.5723 56.0625 32.5595 55.6279L32.5212 54.7076C32.5084 54.273 32.3039 54.1324 31.9204 54.1452L31.3835 54.1707Z" fill="white"></path><path d="M40.8552 57.6348L39.7304 57.9927L39.2063 56.9829L37.8386 57.4175L37.9792 58.5424L36.9566 58.8619L36.2408 52.6114L37.8769 52.1001L40.8552 57.6348ZM37.7235 56.5739L38.7973 56.2288L37.3273 53.4167H37.3017L37.7235 56.5739Z" fill="white"></path><path d="M42.5297 51.7037L42.5169 51.7165L45.0222 55.4234L44.153 56.0114L40.689 50.8985L41.9033 50.0804L44.9455 52.4835L44.9583 52.4707L42.8876 49.4029L43.7568 48.8149L47.2208 53.9279L46.2237 54.6053L42.5297 51.7037Z" fill="white"></path><path d="M49.2532 49.1216L45.1373 47.6261L45.917 46.6802L48.6396 47.805L48.6524 47.7922L47.0546 45.3125L47.7704 44.4561L49.9945 48.2268L51.5668 49.5306L50.8254 50.4254L49.2532 49.1216Z" fill="white"></path><g clip-path="url(#clip0_6382_472)"><path d="M14.5 90.9199C17.8137 90.9199 20.5 88.2336 20.5 84.9199C20.5 81.6062 17.8137 78.9199 14.5 78.9199C11.1863 78.9199 8.5 81.6062 8.5 84.9199C8.5 88.2336 11.1863 90.9199 14.5 90.9199Z" fill="#4992C1"></path><path d="M12.1846 85.3441L12.6885 86.1405C13.0525 86.7158 13.2345 87.0035 13.4679 87.1042C13.6719 87.1922 13.9027 87.194 14.108 87.1092C14.343 87.0121 14.5295 86.7274 14.9025 86.1579L16.8131 83.2402" stroke="#F8F8F8" stroke-linecap="round" stroke-linejoin="round"></path></g><path d="M30.0341 79.2836V90.9199H28.2784V79.2836H30.0341ZM38.9375 82.3404C38.8769 81.8025 38.6269 81.3858 38.1875 81.0904C37.7481 80.7911 37.1951 80.6415 36.5284 80.6415C36.0511 80.6415 35.6383 80.7173 35.2898 80.8688C34.9413 81.0165 34.6705 81.2211 34.4773 81.4824C34.2879 81.74 34.1932 82.0336 34.1932 82.3631C34.1932 82.6396 34.2576 82.8783 34.3864 83.079C34.5189 83.2798 34.6913 83.4483 34.9034 83.5847C35.1193 83.7173 35.3504 83.829 35.5966 83.9199C35.8428 84.007 36.0795 84.079 36.3068 84.1358L37.4432 84.4313C37.8144 84.5222 38.1951 84.6453 38.5852 84.8006C38.9754 84.9559 39.3371 85.1605 39.6705 85.4142C40.0038 85.668 40.2727 85.9824 40.4773 86.3574C40.6856 86.7324 40.7898 87.1813 40.7898 87.704C40.7898 88.3631 40.6193 88.9483 40.2784 89.4597C39.9413 89.9711 39.4508 90.3745 38.8068 90.6699C38.1667 90.9654 37.392 91.1131 36.483 91.1131C35.6117 91.1131 34.858 90.9748 34.2216 90.6983C33.5852 90.4218 33.0871 90.0298 32.7273 89.5222C32.3674 89.0108 32.1686 88.4048 32.1307 87.704H33.892C33.9261 88.1245 34.0625 88.4748 34.3011 88.7551C34.5436 89.0317 34.8523 89.2381 35.2273 89.3745C35.6061 89.507 36.0208 89.5733 36.4716 89.5733C36.9678 89.5733 37.4091 89.4957 37.7955 89.3404C38.1856 89.1813 38.4924 88.9616 38.7159 88.6813C38.9394 88.3972 39.0511 88.0658 39.0511 87.687C39.0511 87.3423 38.9527 87.0601 38.7557 86.8404C38.5625 86.6207 38.2992 86.4389 37.9659 86.2949C37.6364 86.151 37.2633 86.0241 36.8466 85.9142L35.4716 85.5392C34.5398 85.2855 33.8011 84.9123 33.2557 84.4199C32.714 83.9275 32.4432 83.276 32.4432 82.4654C32.4432 81.7949 32.625 81.2097 32.9886 80.7097C33.3523 80.2097 33.8447 79.8214 34.4659 79.5449C35.0871 79.2646 35.7879 79.1245 36.5682 79.1245C37.3561 79.1245 38.0511 79.2627 38.6534 79.5392C39.2595 79.8158 39.7367 80.1964 40.0852 80.6813C40.4337 81.1623 40.6155 81.7154 40.6307 82.3404H38.9375ZM52.9957 85.1017C52.9957 86.3442 52.7685 87.4123 52.3139 88.3063C51.8594 89.1964 51.2363 89.882 50.4446 90.3631C49.6567 90.8404 48.7609 91.079 47.7571 91.079C46.7495 91.079 45.8499 90.8404 45.0582 90.3631C44.2704 89.882 43.6491 89.1945 43.1946 88.3006C42.7401 87.4067 42.5128 86.3404 42.5128 85.1017C42.5128 83.8593 42.7401 82.793 43.1946 81.9029C43.6491 81.0089 44.2704 80.3233 45.0582 79.8461C45.8499 79.365 46.7495 79.1245 47.7571 79.1245C48.7609 79.1245 49.6567 79.365 50.4446 79.8461C51.2363 80.3233 51.8594 81.0089 52.3139 81.9029C52.7685 82.793 52.9957 83.8593 52.9957 85.1017ZM51.2571 85.1017C51.2571 84.1548 51.1037 83.3574 50.7969 82.7097C50.4938 82.0582 50.0772 81.5658 49.5469 81.2324C49.0204 80.8953 48.4238 80.7267 47.7571 80.7267C47.0866 80.7267 46.4882 80.8953 45.9616 81.2324C45.4351 81.5658 45.0185 82.0582 44.7116 82.7097C44.4086 83.3574 44.2571 84.1548 44.2571 85.1017C44.2571 86.0487 44.4086 86.848 44.7116 87.4995C45.0185 88.1472 45.4351 88.6396 45.9616 88.9767C46.4882 89.3101 47.0866 89.4767 47.7571 89.4767C48.4238 89.4767 49.0204 89.3101 49.5469 88.9767C50.0772 88.6396 50.4938 88.1472 50.7969 87.4995C51.1037 86.848 51.2571 86.0487 51.2571 85.1017Z" fill="#F8F8F8"></path><defs><clipPath id="clip0_6382_472"><rect width="13" height="13" fill="white" transform="translate(8 78.4199)"></rect></clipPath></defs></svg>