<svg xmlns="http://www.w3.org/2000/svg" width="68" height="97" viewBox="0 0 68 97" fill="none"><g clip-path="url(#clip0_6382_536)"><path d="M33.8321 2.73856C37.6425 2.73856 41.323 3.48911 44.8015 4.94689C48.1645 6.36137 51.1667 8.39649 53.7647 10.9945C56.3483 13.5781 58.3834 16.5947 59.8123 19.9577C61.2846 23.4362 62.0207 27.1167 62.0207 30.9272C62.0207 34.7376 61.2701 38.4181 59.8123 41.8966C58.3979 45.2596 56.3627 48.2618 53.7647 50.8598C51.1811 53.4434 48.1645 55.4785 44.8015 56.9074C41.323 58.3797 37.6425 59.1158 33.8321 59.1158C30.0216 59.1158 26.3411 58.3652 22.8626 56.9074C19.4996 55.493 16.4975 53.4578 13.8994 50.8598C11.3158 48.2762 9.28071 45.2596 7.8518 41.8966C6.37958 38.4181 5.64347 34.7376 5.64347 30.9272C5.64347 27.1167 6.39401 23.4362 7.8518 19.9577C9.26628 16.5947 11.3014 13.5925 13.8994 10.9945C16.483 8.41093 19.4996 6.3758 22.8626 4.94689C26.3267 3.47467 30.0216 2.73856 33.8321 2.73856ZM33.8321 1.51172C17.58 1.51172 4.41663 14.6751 4.41663 30.9127C4.41663 47.1504 17.58 60.3282 33.8321 60.3282C50.0842 60.3282 63.2475 47.1648 63.2475 30.9127C63.2475 14.6606 50.0697 1.51172 33.8321 1.51172Z" fill="white"></path><path d="M14.5345 45.8223L15.0541 47.4244C14.6211 47.5976 14.2169 47.6698 13.8272 47.6409C13.452 47.6265 13.0911 47.511 12.7736 47.3234C12.4561 47.1213 12.1385 46.8038 11.8354 46.3708C11.4746 45.8368 11.2436 45.346 11.1715 44.8986C11.0993 44.4511 11.1715 43.9748 11.388 43.4552C11.6045 42.9356 12.023 42.4738 12.6293 42.0552C13.4375 41.4923 14.2169 41.2758 14.953 41.4057C15.6892 41.5356 16.3242 41.9974 16.8727 42.7913C17.3057 43.4119 17.5078 43.9748 17.5078 44.5089C17.5078 45.0285 17.3057 45.5625 16.9016 46.0966L15.6747 44.9563C15.7902 44.812 15.8624 44.6821 15.9057 44.581C15.9634 44.4223 15.9778 44.2491 15.9634 44.0903C15.949 43.9315 15.8768 43.7728 15.7758 43.614C15.5448 43.2676 15.2128 43.1088 14.8231 43.1088C14.52 43.1088 14.1592 43.2676 13.7118 43.5707C13.1633 43.946 12.8458 44.2924 12.7592 44.5955C12.6726 44.8986 12.7303 45.2017 12.9324 45.5048C13.1344 45.7935 13.3654 45.9522 13.6252 45.9955C13.8705 46.0244 14.1881 45.9667 14.5345 45.8223Z" fill="white"></path><path d="M17.0748 48.1028C17.6521 47.3234 18.3305 46.876 19.0955 46.775C19.8604 46.6739 20.6254 46.9049 21.3904 47.4822C22.1842 48.074 22.6317 48.7524 22.7471 49.5029C22.8626 50.2534 22.6172 51.004 22.0399 51.7689C21.6213 52.3319 21.1883 52.7071 20.7264 52.9236C20.2646 53.1401 19.7883 53.2123 19.2831 53.1401C18.7779 53.068 18.2583 52.837 17.7387 52.4473C17.2047 52.0432 16.815 51.6246 16.5985 51.1916C16.382 50.7586 16.2954 50.2679 16.3531 49.7338C16.4253 49.1998 16.6562 48.6513 17.0748 48.1028ZM18.547 49.2142C18.1862 49.6905 18.013 50.1091 18.0418 50.4555C18.0707 50.8019 18.2295 51.0906 18.5326 51.3215C18.8501 51.5524 19.1676 51.639 19.4996 51.5669C19.8316 51.4947 20.1924 51.1916 20.5965 50.6576C20.9285 50.2101 21.0873 49.8204 21.0584 49.474C21.0295 49.1276 20.8708 48.839 20.5532 48.608C20.2501 48.3915 19.9326 48.3049 19.6006 48.3915C19.2542 48.4492 18.9078 48.7235 18.547 49.2142Z" fill="white"></path><path d="M24.6812 49.9214L27.005 50.6142L26.8607 54.3525L28.7803 51.1338L31.1041 51.8266L29.401 57.5423L27.9576 57.1093L29.2566 52.7504L26.8607 56.7773L25.5472 56.3876L25.7349 51.6967L24.4358 56.0556L22.9925 55.6226L24.6812 49.9214Z" fill="white"></path><path d="M32.3598 51.8125L35.4197 51.6826C36.0837 51.6538 36.5888 51.7837 36.9352 52.0868C37.2817 52.3899 37.4693 52.8373 37.4982 53.4147C37.527 54.0209 37.3683 54.4972 37.0218 54.8436C36.6754 55.2044 36.127 55.392 35.3909 55.4209L34.3805 55.4642L34.4816 57.6725L32.6341 57.7591L32.3598 51.8125ZM34.3228 54.2662L34.7702 54.2518C35.1311 54.2374 35.3764 54.1652 35.5063 54.0353C35.6507 53.9054 35.7084 53.7466 35.694 53.559C35.6795 53.3714 35.6218 53.2126 35.4919 53.0971C35.362 52.9672 35.1311 52.9239 34.7847 52.9383L34.2651 52.9672L34.3228 54.2662Z" fill="white"></path><path d="M42.8963 55.0887L40.9044 55.7382L40.9333 56.763L39.1436 57.3547L39.4034 50.9896L41.3086 50.3545L45.3067 55.3052L43.4736 55.9114L42.8963 55.0887ZM42.1313 53.9773L40.8323 52.1442L40.89 54.3814L42.1313 53.9773Z" fill="white"></path><path d="M44.0365 49.2718L45.4077 48.2326L49.1748 49.5172L47.1974 46.8903L48.583 45.8511L52.1625 50.6141L50.7769 51.6533L47.0242 50.3832L48.9872 52.9956L47.6016 54.0349L44.0365 49.2718Z" fill="white"></path><path d="M49.1315 45.3751L50.2862 43.6863L52.6244 43.8451L51.6574 41.709L52.8121 40.0347L54.342 43.9028L56.3916 45.3173L55.3379 46.8328L53.2884 45.4184L49.1315 45.3751Z" fill="white"></path><path d="M13.553 19.2935L14.7077 18.0666C15.0685 18.3697 15.3283 18.6873 15.4871 19.0337C15.6603 19.3801 15.7324 19.7409 15.718 20.1162C15.7036 20.4915 15.5737 20.9245 15.3283 21.4008C15.0396 21.9781 14.7221 22.4111 14.3613 22.6998C14.0004 22.9885 13.553 23.1472 12.9901 23.205C12.4272 23.2627 11.821 23.1184 11.157 22.7864C10.2766 22.3389 9.71368 21.776 9.48275 21.0688C9.23738 20.3616 9.33841 19.5822 9.77142 18.7161C10.1034 18.0378 10.5075 17.5903 10.9694 17.3305C11.4313 17.0852 11.9942 17.013 12.6437 17.0996L12.2684 18.7161C12.0808 18.6873 11.9364 18.6728 11.8354 18.7017C11.6622 18.7306 11.5034 18.7883 11.3735 18.8893C11.2436 18.9904 11.1282 19.1203 11.0416 19.279C10.8539 19.6543 10.8684 20.0152 11.056 20.3616C11.2003 20.6214 11.5179 20.8667 11.9942 21.1121C12.5859 21.4008 13.0334 21.5162 13.3365 21.4441C13.6396 21.3719 13.885 21.1843 14.0437 20.8523C14.2025 20.5348 14.2314 20.2605 14.1303 20.0007C14.0437 19.7698 13.8561 19.5244 13.553 19.2935Z" fill="white"></path><path d="M13.0478 13.751L16.5119 10.2437L17.4212 11.1385L15.2561 13.3324L15.9345 13.9964L17.9552 11.9612L18.8212 12.8128L16.8005 14.8479L17.6377 15.6706L19.8749 13.4046L20.8275 14.3572L17.2913 17.9367L13.0478 13.751Z" fill="white"></path><path d="M21.9533 13.5349L19.2253 8.2378L21.9533 6.83775C22.4584 6.57795 22.8626 6.41918 23.1801 6.37588C23.4977 6.33258 23.7863 6.37588 24.075 6.52022C24.3637 6.66455 24.5946 6.90992 24.7678 7.25633C24.9121 7.54499 24.9843 7.83366 24.9699 8.1079C24.9554 8.38214 24.8688 8.64194 24.7245 8.88731C24.6235 9.04608 24.4791 9.21928 24.2626 9.39248C24.4936 9.36361 24.6668 9.34918 24.7822 9.36361C24.8688 9.37805 24.9987 9.42135 25.1864 9.50795C25.374 9.59455 25.5039 9.66672 25.5905 9.72445L27.1782 10.8503L25.3307 11.8029L23.6276 10.6338C23.4111 10.475 23.2379 10.4028 23.1224 10.374C22.9636 10.3595 22.8048 10.374 22.6605 10.4606L22.5162 10.5327L23.6276 12.6833L21.9533 13.5349ZM21.9677 9.53682L22.6605 9.17598C22.7327 9.13268 22.8626 9.03164 23.0502 8.88731C23.1512 8.81514 23.209 8.71411 23.2234 8.58421C23.2379 8.4543 23.2234 8.33884 23.1657 8.22337C23.0791 8.05017 22.9492 7.94913 22.8048 7.92027C22.6605 7.8914 22.4151 7.94913 22.1265 8.09347L21.4048 8.46874L21.9677 9.53682Z" fill="white"></path><path d="M26.7163 4.87486L32.2444 3.97998L32.4753 5.43776L30.6278 5.74087L31.3495 10.1719L29.5309 10.4606L28.8092 6.02954L26.9617 6.33264L26.7163 4.87486Z" fill="white"></path><path d="M35.0589 4.08105L36.8919 4.22539L36.4156 10.172L34.5826 10.0277L35.0589 4.08105Z" fill="white"></path><path d="M40.0817 4.71582L44.4118 6.11587L44.0221 7.32828L41.4529 6.49114L41.1354 7.48705L43.3293 8.19429L42.954 9.33454L40.7601 8.6273L40.0096 10.9367L38.2487 10.3593L40.0817 4.71582Z" fill="white"></path><path d="M47.0098 7.50146L48.5831 8.46851L45.4799 13.5491L43.9066 12.5821L47.0098 7.50146Z" fill="white"></path><path d="M51.2388 10.3306L54.7029 13.8379L53.7936 14.7328L51.6285 12.5389L50.9502 13.2028L52.9709 15.238L52.1048 16.0895L50.0842 14.0544L49.247 14.8771L51.4842 17.1432L50.5316 18.0958L46.9954 14.5163L51.2388 10.3306Z" fill="white"></path><path d="M56.6802 16.5801L57.9071 19.0193C58.1525 19.4956 58.2824 19.9286 58.2968 20.2895C58.3112 20.6503 58.2535 20.9967 58.1092 21.3143C57.9648 21.6318 57.7483 21.9205 57.4596 22.1658C57.1854 22.4112 56.8534 22.6277 56.4926 22.8153C55.9297 23.104 55.4534 23.2628 55.0637 23.2772C54.6884 23.3061 54.3276 23.2628 54.01 23.1329C53.6781 23.003 53.4183 22.8298 53.2162 22.5988C52.942 22.2813 52.7255 21.9782 52.5811 21.6895L51.3543 19.2503L56.6802 16.5801ZM56.305 18.8317L53.3894 20.2895L53.5915 20.6936C53.7647 21.04 53.9234 21.2565 54.0678 21.372C54.2121 21.473 54.4142 21.5308 54.6451 21.5163C54.8761 21.5019 55.208 21.3864 55.6266 21.1699C56.1895 20.8813 56.5359 20.607 56.6514 20.3183C56.7668 20.0297 56.7235 19.6688 56.507 19.2503L56.305 18.8317Z" fill="white"></path><path d="M33.8321 12.4089C38.7828 12.4089 43.4304 14.3285 46.9233 17.8359C50.4162 21.3432 52.3502 25.9763 52.3502 30.927C52.3502 35.8777 50.4306 40.5253 46.9233 44.0182C43.4304 47.5111 38.7828 49.4452 33.8321 49.4452C28.8814 49.4452 24.2338 47.5255 20.7409 44.0182C17.248 40.5253 15.3139 35.8777 15.3139 30.927C15.3139 25.9763 17.2336 21.3288 20.7409 17.8359C24.2482 14.3429 28.8814 12.4089 33.8321 12.4089ZM33.8321 11.6006C23.1657 11.6006 14.5056 20.2462 14.5056 30.927C14.5056 41.6078 23.1513 50.2535 33.8321 50.2535C44.5129 50.2535 53.1585 41.6078 53.1585 30.927C53.1585 20.2462 44.4984 11.6006 33.8321 11.6006Z" fill="white"></path><path d="M33.8321 48.5935C43.597 48.5935 51.5131 40.6774 51.5131 30.9125C51.5131 21.1475 43.597 13.2314 33.8321 13.2314C24.0671 13.2314 16.1511 21.1475 16.1511 30.9125C16.1511 40.6774 24.0671 48.5935 33.8321 48.5935Z" fill="white"></path><path d="M20.8419 33.1065C21.3038 33.0921 21.6214 33.0344 21.8234 32.9189C22.141 32.7313 22.3142 32.356 22.3142 31.7931V22.7722C22.3142 22.2237 22.1554 21.8629 21.8523 21.6752C21.6647 21.5598 21.3327 21.4876 20.8419 21.4732V20.9824H26.4566V21.4587C25.9514 21.4876 25.605 21.5453 25.4174 21.6608C25.0998 21.8484 24.9411 22.2237 24.9411 22.7722V31.7931C24.9411 32.3127 25.071 32.6591 25.3163 32.8323C25.5617 33.0055 25.937 33.0921 26.4421 33.0921V33.5684H20.8275V33.1065H20.8419Z" fill="#11172C"></path><path d="M27.3947 29.2237H27.8566C28.1164 30.6093 28.5206 31.6341 29.0979 32.2547C29.6752 32.8898 30.3247 33.2073 31.0608 33.2073C31.7825 33.2073 32.2877 32.9908 32.5908 32.5578C32.8939 32.1248 33.0382 31.6629 33.0382 31.1866C33.0382 30.6237 32.8795 30.1763 32.5619 29.8154C32.3599 29.5845 31.9269 29.2814 31.2918 28.9206L30.267 28.3144C29.2567 27.7226 28.535 27.1308 28.1164 26.5535C27.6978 25.9761 27.4958 25.2545 27.4958 24.4029C27.4958 23.4936 27.77 22.642 28.3185 21.8482C28.867 21.0543 29.7185 20.6646 30.8588 20.6646C31.4361 20.6646 31.999 20.7656 32.5475 20.9677C33.096 21.1698 33.3991 21.2708 33.4712 21.2708C33.6444 21.2708 33.7599 21.2131 33.8321 21.0976C33.9042 20.9821 33.9475 20.8234 33.9908 20.6357H34.4672V24.6916H34.0197C33.8032 23.7534 33.4424 22.9451 32.9083 22.2667C32.3743 21.5884 31.7392 21.2419 30.9742 21.2419C30.4402 21.2419 30.0216 21.4151 29.7185 21.7616C29.4154 22.108 29.2567 22.5265 29.2567 23.0173C29.2567 23.609 29.401 24.042 29.6897 24.3307C29.9783 24.6338 30.6134 25.0668 31.6093 25.6442L32.7929 26.337C33.3269 26.6401 33.7455 26.9865 34.063 27.3617C34.6548 28.069 34.9435 28.9206 34.9435 29.9309C34.9435 30.8691 34.6259 31.7495 33.9908 32.5867C33.3558 33.4238 32.3454 33.8424 30.9598 33.8424C30.6423 33.8424 30.3247 33.8135 29.9928 33.7413C29.6608 33.6692 29.3433 33.5681 29.0257 33.4238L28.7226 33.2939C28.6505 33.265 28.5783 33.2506 28.5206 33.2362C28.4484 33.2217 28.3907 33.2073 28.3474 33.2073C28.1886 33.2073 28.0731 33.265 28.001 33.3805C27.9432 33.496 27.8855 33.6547 27.8422 33.8568H27.3803V29.2237H27.3947Z" fill="#11172C"></path><path d="M46.0428 22.5266C47.1397 23.7679 47.7027 25.37 47.7027 27.333C47.7027 29.2959 47.1542 30.898 46.0428 32.1393C44.9603 33.3517 43.618 33.9579 42.0014 33.9579C40.2838 33.9579 38.8838 33.294 37.8013 31.9661C36.7909 30.7104 36.2858 29.2093 36.2858 27.434C36.2858 25.4855 36.8198 23.8834 37.8735 22.6276C38.9415 21.3575 40.3127 20.7224 42.0014 20.7224C43.618 20.708 44.9747 21.3142 46.0428 22.5266ZM44.484 30.8403C44.7294 29.9454 44.8448 28.7763 44.8448 27.333C44.8448 25.3556 44.585 23.8545 44.0798 22.8441C43.5747 21.8338 42.8819 21.3286 42.0014 21.3286C40.789 21.3286 39.9519 22.1658 39.5044 23.8545C39.2735 24.7494 39.1436 25.904 39.1436 27.333C39.1436 28.7763 39.2591 29.9454 39.5044 30.8403C39.9519 32.5001 40.7746 33.3229 42.0014 33.3229C43.1994 33.3229 44.0366 32.4857 44.484 30.8403Z" fill="#11172C"></path><path d="M22.5546 39.1235V39.6943H20.0276V39.2072L21.2226 37.926C21.3427 37.7923 21.4374 37.6748 21.5067 37.5733C21.5761 37.4701 21.626 37.3779 21.6564 37.2967C21.6886 37.2139 21.7046 37.1352 21.7046 37.0608C21.7046 36.9492 21.686 36.8536 21.6488 36.7741C21.6116 36.6929 21.5566 36.6303 21.4839 36.5863C21.4129 36.5424 21.3249 36.5204 21.22 36.5204C21.1084 36.5204 21.012 36.5474 20.9308 36.6016C20.8513 36.6557 20.7904 36.731 20.7481 36.8274C20.7075 36.9238 20.6872 37.0329 20.6872 37.1547H19.954C19.954 36.9348 20.0064 36.7335 20.1113 36.5508C20.2162 36.3665 20.3642 36.2202 20.5553 36.1119C20.7464 36.002 20.9731 35.947 21.2353 35.947C21.494 35.947 21.7122 35.9893 21.8898 36.0738C22.0691 36.1567 22.2044 36.2768 22.2958 36.4341C22.3888 36.5897 22.4353 36.7758 22.4353 36.9923C22.4353 37.1141 22.4159 37.2333 22.377 37.35C22.3381 37.465 22.2822 37.5801 22.2095 37.6951C22.1385 37.8084 22.0522 37.9234 21.9507 38.0401C21.8492 38.1568 21.7368 38.2778 21.6133 38.4029L20.9714 39.1235H22.5546ZM25.5205 36.0003V36.3935L24.0921 39.6943H23.3208L24.7492 36.5711H22.9098V36.0003H25.5205ZM28.4813 37.5225V38.1619C28.4813 38.4393 28.4517 38.6786 28.3925 38.8799C28.3333 39.0795 28.2479 39.2436 28.1363 39.3721C28.0263 39.499 27.8952 39.5929 27.743 39.6537C27.5908 39.7146 27.4216 39.7451 27.2356 39.7451C27.0867 39.7451 26.948 39.7265 26.8195 39.6893C26.6909 39.6504 26.5751 39.5903 26.4719 39.5091C26.3704 39.4279 26.2825 39.3256 26.208 39.2021C26.1353 39.077 26.0795 38.9281 26.0406 38.7556C26.0017 38.5831 25.9822 38.3852 25.9822 38.1619V37.5225C25.9822 37.2452 26.0118 37.0075 26.071 36.8096C26.1319 36.61 26.2173 36.4468 26.3273 36.3199C26.4389 36.1931 26.5709 36.1001 26.7231 36.0409C26.8753 35.98 27.0445 35.9495 27.2305 35.9495C27.3794 35.9495 27.5172 35.969 27.6441 36.0079C27.7726 36.0451 27.8885 36.1034 27.9916 36.1829C28.0948 36.2624 28.1828 36.3648 28.2555 36.4899C28.3282 36.6134 28.3841 36.7614 28.423 36.9339C28.4619 37.1048 28.4813 37.301 28.4813 37.5225ZM27.7481 38.2583V37.4236C27.7481 37.29 27.7405 37.1733 27.7252 37.0735C27.7117 36.9737 27.6906 36.8891 27.6618 36.8198C27.6331 36.7487 27.5975 36.6912 27.5553 36.6472C27.513 36.6033 27.4648 36.5711 27.4106 36.5508C27.3565 36.5305 27.2965 36.5204 27.2305 36.5204C27.1476 36.5204 27.0741 36.5364 27.0098 36.5686C26.9472 36.6007 26.8939 36.6523 26.8499 36.7233C26.806 36.7927 26.7721 36.8857 26.7485 37.0024C26.7265 37.1175 26.7155 37.2578 26.7155 37.4236V38.2583C26.7155 38.3919 26.7222 38.5095 26.7358 38.611C26.751 38.7125 26.773 38.7996 26.8017 38.8723C26.8322 38.9433 26.8677 39.0017 26.9083 39.0474C26.9506 39.0913 26.9988 39.1235 27.0529 39.1438C27.1087 39.1641 27.1696 39.1742 27.2356 39.1742C27.3168 39.1742 27.3887 39.1582 27.4512 39.126C27.5155 39.0922 27.5696 39.0398 27.6136 38.9687C27.6593 38.896 27.6931 38.8013 27.7151 38.6846C27.7371 38.5678 27.7481 38.4258 27.7481 38.2583ZM31.465 37.5225V38.1619C31.465 38.4393 31.4354 38.6786 31.3762 38.8799C31.317 39.0795 31.2316 39.2436 31.1199 39.3721C31.01 39.499 30.8789 39.5929 30.7267 39.6537C30.5745 39.7146 30.4053 39.7451 30.2193 39.7451C30.0704 39.7451 29.9317 39.7265 29.8032 39.6893C29.6746 39.6504 29.5588 39.5903 29.4556 39.5091C29.3541 39.4279 29.2661 39.3256 29.1917 39.2021C29.119 39.077 29.0632 38.9281 29.0243 38.7556C28.9854 38.5831 28.9659 38.3852 28.9659 38.1619V37.5225C28.9659 37.2452 28.9955 37.0075 29.0547 36.8096C29.1156 36.61 29.201 36.4468 29.311 36.3199C29.4226 36.1931 29.5545 36.1001 29.7068 36.0409C29.859 35.98 30.0281 35.9495 30.2142 35.9495C30.363 35.9495 30.5009 35.969 30.6277 36.0079C30.7563 36.0451 30.8721 36.1034 30.9753 36.1829C31.0785 36.2624 31.1665 36.3648 31.2392 36.4899C31.3119 36.6134 31.3677 36.7614 31.4066 36.9339C31.4455 37.1048 31.465 37.301 31.465 37.5225ZM30.7318 38.2583V37.4236C30.7318 37.29 30.7241 37.1733 30.7089 37.0735C30.6954 36.9737 30.6742 36.8891 30.6455 36.8198C30.6167 36.7487 30.5812 36.6912 30.5389 36.6472C30.4966 36.6033 30.4484 36.5711 30.3943 36.5508C30.3402 36.5305 30.2801 36.5204 30.2142 36.5204C30.1313 36.5204 30.0577 36.5364 29.9934 36.5686C29.9309 36.6007 29.8776 36.6523 29.8336 36.7233C29.7896 36.7927 29.7558 36.8857 29.7321 37.0024C29.7101 37.1175 29.6991 37.2578 29.6991 37.4236V38.2583C29.6991 38.3919 29.7059 38.5095 29.7194 38.611C29.7347 38.7125 29.7566 38.7996 29.7854 38.8723C29.8158 38.9433 29.8514 39.0017 29.892 39.0474C29.9342 39.0913 29.9825 39.1235 30.0366 39.1438C30.0924 39.1641 30.1533 39.1742 30.2193 39.1742C30.3004 39.1742 30.3723 39.1582 30.4349 39.126C30.4992 39.0922 30.5533 39.0398 30.5973 38.9687C30.643 38.896 30.6768 38.8013 30.6988 38.6846C30.7208 38.5678 30.7318 38.4258 30.7318 38.2583ZM33.7433 35.9927V39.6943H33.0126V36.835L32.1348 37.1141V36.5381L33.6647 35.9927H33.7433ZM35.0043 39.3417C35.0043 39.2334 35.0415 39.1429 35.1159 39.0702C35.192 38.9975 35.2927 38.9611 35.4178 38.9611C35.543 38.9611 35.6428 38.9975 35.7172 39.0702C35.7933 39.1429 35.8314 39.2334 35.8314 39.3417C35.8314 39.4499 35.7933 39.5404 35.7172 39.6131C35.6428 39.6859 35.543 39.7222 35.4178 39.7222C35.2927 39.7222 35.192 39.6859 35.1159 39.6131C35.0415 39.5404 35.0043 39.4499 35.0043 39.3417ZM35.0043 37.2485C35.0043 37.1403 35.0415 37.0498 35.1159 36.9771C35.192 36.9043 35.2927 36.868 35.4178 36.868C35.543 36.868 35.6428 36.9043 35.7172 36.9771C35.7933 37.0498 35.8314 37.1403 35.8314 37.2485C35.8314 37.3568 35.7933 37.4473 35.7172 37.52C35.6428 37.5927 35.543 37.6291 35.4178 37.6291C35.2927 37.6291 35.192 37.5927 35.1159 37.52C35.0415 37.4473 35.0043 37.3568 35.0043 37.2485ZM38.9394 39.1235V39.6943H36.4124V39.2072L37.6074 37.926C37.7275 37.7923 37.8222 37.6748 37.8916 37.5733C37.9609 37.4701 38.0108 37.3779 38.0412 37.2967C38.0734 37.2139 38.0894 37.1352 38.0894 37.0608C38.0894 36.9492 38.0708 36.8536 38.0336 36.7741C37.9964 36.6929 37.9415 36.6303 37.8687 36.5863C37.7977 36.5424 37.7097 36.5204 37.6049 36.5204C37.4932 36.5204 37.3968 36.5474 37.3156 36.6016C37.2361 36.6557 37.1752 36.731 37.1329 36.8274C37.0924 36.9238 37.0721 37.0329 37.0721 37.1547H36.3388C36.3388 36.9348 36.3913 36.7335 36.4961 36.5508C36.601 36.3665 36.749 36.2202 36.9401 36.1119C37.1313 36.002 37.3579 35.947 37.6201 35.947C37.8789 35.947 38.0971 35.9893 38.2747 36.0738C38.454 36.1567 38.5893 36.2768 38.6806 36.4341C38.7736 36.5897 38.8201 36.7758 38.8201 36.9923C38.8201 37.1141 38.8007 37.2333 38.7618 37.35C38.7229 37.465 38.6671 37.5801 38.5943 37.6951C38.5233 37.8084 38.437 37.9234 38.3356 38.0401C38.2341 38.1568 38.1216 38.2778 37.9981 38.4029L37.3562 39.1235H38.9394ZM41.8825 37.5225V38.1619C41.8825 38.4393 41.8529 38.6786 41.7937 38.8799C41.7345 39.0795 41.6491 39.2436 41.5374 39.3721C41.4275 39.499 41.2964 39.5929 41.1442 39.6537C40.9919 39.7146 40.8228 39.7451 40.6367 39.7451C40.4879 39.7451 40.3492 39.7265 40.2206 39.6893C40.0921 39.6504 39.9762 39.5903 39.8731 39.5091C39.7716 39.4279 39.6836 39.3256 39.6092 39.2021C39.5365 39.077 39.4806 38.9281 39.4417 38.7556C39.4028 38.5831 39.3834 38.3852 39.3834 38.1619V37.5225C39.3834 37.2452 39.413 37.0075 39.4722 36.8096C39.5331 36.61 39.6185 36.4468 39.7284 36.3199C39.8401 36.1931 39.972 36.1001 40.1242 36.0409C40.2765 35.98 40.4456 35.9495 40.6317 35.9495C40.7805 35.9495 40.9184 35.969 41.0452 36.0079C41.1738 36.0451 41.2896 36.1034 41.3928 36.1829C41.496 36.2624 41.5839 36.3648 41.6567 36.4899C41.7294 36.6134 41.7852 36.7614 41.8241 36.9339C41.863 37.1048 41.8825 37.301 41.8825 37.5225ZM41.1492 38.2583V37.4236C41.1492 37.29 41.1416 37.1733 41.1264 37.0735C41.1129 36.9737 41.0917 36.8891 41.063 36.8198C41.0342 36.7487 40.9987 36.6912 40.9564 36.6472C40.9141 36.6033 40.8659 36.5711 40.8118 36.5508C40.7577 36.5305 40.6976 36.5204 40.6317 36.5204C40.5488 36.5204 40.4752 36.5364 40.4109 36.5686C40.3483 36.6007 40.2951 36.6523 40.2511 36.7233C40.2071 36.7927 40.1733 36.8857 40.1496 37.0024C40.1276 37.1175 40.1166 37.2578 40.1166 37.4236V38.2583C40.1166 38.3919 40.1234 38.5095 40.1369 38.611C40.1521 38.7125 40.1741 38.7996 40.2029 38.8723C40.2333 38.9433 40.2688 39.0017 40.3094 39.0474C40.3517 39.0913 40.3999 39.1235 40.4541 39.1438C40.5099 39.1641 40.5708 39.1742 40.6367 39.1742C40.7179 39.1742 40.7898 39.1582 40.8524 39.126C40.9167 39.0922 40.9708 39.0398 41.0148 38.9687C41.0604 38.896 41.0943 38.8013 41.1163 38.6846C41.1382 38.5678 41.1492 38.4258 41.1492 38.2583ZM44.9067 39.1235V39.6943H42.3797V39.2072L43.5747 37.926C43.6948 37.7923 43.7895 37.6748 43.8589 37.5733C43.9282 37.4701 43.9781 37.3779 44.0086 37.2967C44.0407 37.2139 44.0568 37.1352 44.0568 37.0608C44.0568 36.9492 44.0382 36.8536 44.001 36.7741C43.9638 36.6929 43.9088 36.6303 43.8361 36.5863C43.765 36.5424 43.6771 36.5204 43.5722 36.5204C43.4606 36.5204 43.3642 36.5474 43.283 36.6016C43.2035 36.6557 43.1426 36.731 43.1003 36.8274C43.0597 36.9238 43.0394 37.0329 43.0394 37.1547H42.3062C42.3062 36.9348 42.3586 36.7335 42.4635 36.5508C42.5683 36.3665 42.7163 36.2202 42.9075 36.1119C43.0986 36.002 43.3253 35.947 43.5874 35.947C43.8462 35.947 44.0644 35.9893 44.242 36.0738C44.4213 36.1567 44.5566 36.2768 44.6479 36.4341C44.741 36.5897 44.7875 36.7758 44.7875 36.9923C44.7875 37.1141 44.768 37.2333 44.7291 37.35C44.6902 37.465 44.6344 37.5801 44.5617 37.6951C44.4906 37.8084 44.4044 37.9234 44.3029 38.0401C44.2014 38.1568 44.0889 38.2778 43.9655 38.4029L43.3236 39.1235H44.9067ZM47.8904 39.1235V39.6943H45.3634V39.2072L46.5584 37.926C46.6785 37.7923 46.7732 37.6748 46.8426 37.5733C46.9119 37.4701 46.9618 37.3779 46.9923 37.2967C47.0244 37.2139 47.0405 37.1352 47.0405 37.0608C47.0405 36.9492 47.0219 36.8536 46.9846 36.7741C46.9474 36.6929 46.8925 36.6303 46.8197 36.5863C46.7487 36.5424 46.6607 36.5204 46.5559 36.5204C46.4442 36.5204 46.3478 36.5474 46.2666 36.6016C46.1871 36.6557 46.1263 36.731 46.084 36.8274C46.0434 36.9238 46.0231 37.0329 46.0231 37.1547H45.2898C45.2898 36.9348 45.3423 36.7335 45.4471 36.5508C45.552 36.3665 45.7 36.2202 45.8911 36.1119C46.0823 36.002 46.3089 35.947 46.5711 35.947C46.8299 35.947 47.0481 35.9893 47.2257 36.0738C47.405 36.1567 47.5403 36.2768 47.6316 36.4341C47.7246 36.5897 47.7712 36.7758 47.7712 36.9923C47.7712 37.1141 47.7517 37.2333 47.7128 37.35C47.6739 37.465 47.6181 37.5801 47.5454 37.6951C47.4743 37.8084 47.3881 37.9234 47.2866 38.0401C47.1851 38.1568 47.0726 38.2778 46.9491 38.4029L46.3072 39.1235H47.8904Z" fill="#11172C"></path></g><g clip-path="url(#clip1_6382_536)"><path d="M17.3249 90.9199C20.6386 90.9199 23.3249 88.2336 23.3249 84.9199C23.3249 81.6062 20.6386 78.9199 17.3249 78.9199C14.0112 78.9199 11.3249 81.6062 11.3249 84.9199C11.3249 88.2336 14.0112 90.9199 17.3249 90.9199Z" fill="#4992C1"></path><path d="M15.0095 85.3441L15.5134 86.1405C15.8774 86.7158 16.0594 87.0035 16.2928 87.1042C16.4967 87.1922 16.7276 87.194 16.9329 87.1092C17.1679 87.0121 17.3544 86.7274 17.7274 86.1579L19.638 83.2402" stroke="#F8F8F8" stroke-linecap="round" stroke-linejoin="round"></path></g><path d="M32.859 79.2836V90.9199H31.1033V79.2836H32.859ZM41.7624 82.3404C41.7018 81.8025 41.4518 81.3858 41.0124 81.0904C40.573 80.7911 40.02 80.6415 39.3533 80.6415C38.876 80.6415 38.4631 80.7173 38.1147 80.8688C37.7662 81.0165 37.4953 81.2211 37.3022 81.4824C37.1128 81.74 37.0181 82.0336 37.0181 82.3631C37.0181 82.6396 37.0825 82.8783 37.2113 83.079C37.3438 83.2798 37.5162 83.4483 37.7283 83.5847C37.9442 83.7173 38.1753 83.829 38.4215 83.9199C38.6677 84.007 38.9044 84.079 39.1317 84.1358L40.2681 84.4313C40.6393 84.5222 41.02 84.6453 41.4101 84.8006C41.8003 84.9559 42.162 85.1605 42.4953 85.4142C42.8287 85.668 43.0976 85.9824 43.3022 86.3574C43.5105 86.7324 43.6147 87.1813 43.6147 87.704C43.6147 88.3631 43.4442 88.9483 43.1033 89.4597C42.7662 89.9711 42.2756 90.3745 41.6317 90.6699C40.9916 90.9654 40.2169 91.1131 39.3078 91.1131C38.4366 91.1131 37.6828 90.9748 37.0465 90.6983C36.4101 90.4218 35.912 90.0298 35.5522 89.5222C35.1923 89.0108 34.9935 88.4048 34.9556 87.704H36.7169C36.751 88.1245 36.8874 88.4748 37.126 88.7551C37.3685 89.0317 37.6772 89.2381 38.0522 89.3745C38.431 89.507 38.8457 89.5733 39.2965 89.5733C39.7927 89.5733 40.234 89.4957 40.6203 89.3404C41.0105 89.1813 41.3173 88.9616 41.5408 88.6813C41.7643 88.3972 41.876 88.0658 41.876 87.687C41.876 87.3423 41.7775 87.0601 41.5806 86.8404C41.3874 86.6207 41.1241 86.4389 40.7908 86.2949C40.4613 86.151 40.0881 86.0241 39.6715 85.9142L38.2965 85.5392C37.3647 85.2855 36.626 84.9123 36.0806 84.4199C35.5389 83.9275 35.2681 83.276 35.2681 82.4654C35.2681 81.7949 35.4499 81.2097 35.8135 80.7097C36.1772 80.2097 36.6696 79.8214 37.2908 79.5449C37.912 79.2646 38.6128 79.1245 39.3931 79.1245C40.181 79.1245 40.876 79.2627 41.4783 79.5392C42.0844 79.8158 42.5616 80.1964 42.9101 80.6813C43.2586 81.1623 43.4404 81.7154 43.4556 82.3404H41.7624ZM55.8206 85.1017C55.8206 86.3442 55.5934 87.4123 55.1388 88.3063C54.6843 89.1964 54.0612 89.882 53.2695 90.3631C52.4816 90.8404 51.5858 91.079 50.582 91.079C49.5744 91.079 48.6748 90.8404 47.8831 90.3631C47.0953 89.882 46.474 89.1945 46.0195 88.3006C45.5649 87.4067 45.3377 86.3404 45.3377 85.1017C45.3377 83.8593 45.5649 82.793 46.0195 81.9029C46.474 81.0089 47.0953 80.3233 47.8831 79.8461C48.6748 79.365 49.5744 79.1245 50.582 79.1245C51.5858 79.1245 52.4816 79.365 53.2695 79.8461C54.0612 80.3233 54.6843 81.0089 55.1388 81.9029C55.5934 82.793 55.8206 83.8593 55.8206 85.1017ZM54.082 85.1017C54.082 84.1548 53.9286 83.3574 53.6218 82.7097C53.3187 82.0582 52.9021 81.5658 52.3718 81.2324C51.8453 80.8953 51.2487 80.7267 50.582 80.7267C49.9115 80.7267 49.3131 80.8953 48.7865 81.2324C48.26 81.5658 47.8434 82.0582 47.5365 82.7097C47.2335 83.3574 47.082 84.1548 47.082 85.1017C47.082 86.0487 47.2335 86.848 47.5365 87.4995C47.8434 88.1472 48.26 88.6396 48.7865 88.9767C49.3131 89.3101 49.9115 89.4767 50.582 89.4767C51.2487 89.4767 51.8453 89.3101 52.3718 88.9767C52.9021 88.6396 53.3187 88.1472 53.6218 87.4995C53.9286 86.848 54.082 86.0487 54.082 85.1017Z" fill="#F8F8F8"></path><defs><clipPath id="clip0_6382_536"><rect width="67.6497" height="60" fill="white" transform="translate(0 0.919922)"></rect></clipPath><clipPath id="clip1_6382_536"><rect width="13" height="13" fill="white" transform="translate(10.8249 78.4199)"></rect></clipPath></defs></svg>