<svg xmlns="http://www.w3.org/2000/svg" width="65" height="97" viewBox="0 0 65 97" fill="none"><g clip-path="url(#clip0_6144_1887)"><path d="M33.4723 13.4653C26.0236 15.8348 19.5741 20.0522 13.3865 24.7082C13.3766 24.7172 13.3636 24.7219 13.3503 24.7213C13.337 24.7207 13.3245 24.7148 13.3156 24.705C13.3066 24.6951 13.3019 24.6821 13.3025 24.6688C13.3031 24.6555 13.309 24.643 13.3188 24.6341C20.1894 17.3032 28.9952 10.6181 39.1385 8.89225C45.2825 7.84498 52.1487 9.45298 54.1996 16.1752C54.5138 17.2072 54.5705 18.4442 54.7057 19.5919C54.7103 19.6327 54.7009 19.6739 54.6789 19.7087C54.657 19.7434 54.6239 19.7697 54.5851 19.7831C54.5462 19.7966 54.504 19.7964 54.4652 19.7827C54.4265 19.7689 54.3936 19.7424 54.3719 19.7075C52.3108 16.3039 49.4272 14.0348 45.721 12.9002C41.8374 11.7133 37.3363 12.237 33.4723 13.4653ZM54.6119 20.0457C55.8752 19.6355 57.1908 20.2639 57.7996 21.2959C59.5712 24.3024 55.417 27.069 53.2439 24.5184C51.8912 22.9301 52.6548 20.8421 54.4941 20.0217C54.5217 20.0101 54.5443 20.0108 54.5617 20.0239C54.5676 20.0268 54.5727 20.0312 54.577 20.037C54.5872 20.0472 54.5988 20.0501 54.6119 20.0457ZM2.64975 33.6777V32.7002C3.11084 28.7802 5.33339 26.5912 9.31739 26.133C12.0599 25.8166 15.073 26.3468 15.8454 29.4319C15.8657 29.509 15.8359 29.5548 15.7559 29.5693L12.2498 30.2021C12.218 30.2082 12.1852 30.2022 12.1577 30.1852C12.1302 30.1682 12.1101 30.1415 12.1014 30.1104C11.7392 28.8122 10.5894 28.4632 9.36539 28.749C8.02284 29.0617 7.20393 29.9846 6.90866 31.5177C6.5792 33.2152 6.35011 34.8515 8.67375 34.9846C10.0628 35.0646 11.0367 34.4319 11.5952 33.0864C11.6233 33.0203 11.6739 32.9664 11.738 32.9344C11.802 32.9024 11.8752 32.8944 11.9443 32.9119L14.9225 33.6581C15.1058 33.7032 15.1537 33.8093 15.0665 33.9766C13.4541 37.0442 10.4694 37.8428 7.20757 37.5286C4.70939 37.2908 3.09048 36.1868 2.64975 33.6777ZM29.3639 29.3402C29.3674 29.3231 29.3645 29.3053 29.3557 29.2901C29.347 29.2749 29.333 29.2635 29.3164 29.2578C29.2999 29.2522 29.2818 29.2528 29.2657 29.2596C29.2495 29.2663 29.2363 29.2787 29.2287 29.2944L25.3668 37.2493C25.3319 37.3235 25.273 37.3606 25.1901 37.3606L22.3734 37.3541C22.2919 37.3541 22.2468 37.3133 22.2381 37.2319L21.3698 29.4013C21.3675 29.3823 21.3585 29.3647 21.3444 29.3516C21.3303 29.3386 21.3121 29.331 21.2929 29.3302C21.2737 29.3294 21.2549 29.3355 21.2398 29.3473C21.2247 29.3592 21.2143 29.376 21.2105 29.3948L19.7574 37.2406C19.7428 37.3177 19.6963 37.3562 19.6177 37.3562H16.5261C16.433 37.3562 16.3952 37.3104 16.4127 37.2188L18.4876 26.3708C18.505 26.2762 18.5618 26.229 18.6578 26.229H23.4032C23.6839 26.229 23.8403 26.3693 23.8723 26.6501L24.5748 32.757C24.5774 32.7769 24.5862 32.7954 24.6001 32.8099C24.614 32.8244 24.6322 32.8341 24.6519 32.8375C24.6717 32.8409 24.692 32.8379 24.71 32.8289C24.7279 32.8199 24.7425 32.8054 24.7516 32.7875C25.6447 30.9199 26.5639 29.0493 27.5094 27.1759C27.6599 26.877 27.6839 26.2988 28.2316 26.277C29.8432 26.2159 31.4461 26.2042 33.0403 26.2421C33.0672 26.2428 33.0936 26.2495 33.1178 26.2615C33.1419 26.2736 33.1632 26.2907 33.1802 26.3118C33.1971 26.3329 33.2094 26.3575 33.2162 26.3839C33.2229 26.4102 33.2239 26.4378 33.2192 26.4646L31.1814 37.1686C31.1581 37.2922 31.0832 37.3548 30.9567 37.3562L27.9872 37.3584C27.9643 37.3589 27.9416 37.3542 27.9207 37.3447C27.8999 37.3352 27.8815 37.3211 27.8668 37.3035C27.8521 37.2859 27.8416 37.2652 27.836 37.243C27.8304 37.2208 27.8299 37.1976 27.8345 37.1752L29.3639 29.3402ZM46.6352 29.3882C46.6389 29.3739 46.637 29.3589 46.63 29.3461C46.623 29.3333 46.6112 29.3236 46.5971 29.319C46.583 29.3144 46.5674 29.3151 46.5535 29.3211C46.5396 29.327 46.5283 29.3377 46.5218 29.3512L42.5857 37.2384C42.5465 37.3199 42.4817 37.3606 42.3916 37.3606L39.673 37.3541C39.5799 37.3541 39.5283 37.3082 39.5181 37.2166L38.6323 29.4079C38.6329 29.3894 38.6261 29.3714 38.6134 29.3579C38.6007 29.3444 38.5832 29.3365 38.5647 29.3359C38.5461 29.3353 38.5282 29.3421 38.5147 29.3548C38.5011 29.3675 38.4932 29.385 38.4927 29.4035L37.0156 37.2602C37.0039 37.3286 36.9625 37.3628 36.8912 37.3628L33.8258 37.3584C33.7181 37.3584 33.6745 37.3053 33.6948 37.1992L35.713 26.5912C35.7596 26.3439 35.9087 26.221 36.1603 26.2224L40.8185 26.2552C40.8979 26.2557 40.9743 26.2853 41.0334 26.3384C41.0925 26.3914 41.1301 26.4643 41.1392 26.5432L41.8505 32.8028C41.8518 32.815 41.857 32.8262 41.8654 32.835C41.8738 32.8438 41.8849 32.8496 41.8971 32.8515C41.9093 32.8535 41.9219 32.8515 41.9332 32.8459C41.9444 32.8402 41.9537 32.8313 41.9596 32.8202L45.0796 26.565C45.1293 26.4642 45.2063 26.3793 45.3019 26.3199C45.3975 26.2605 45.5079 26.229 45.6207 26.229H50.2592C50.2917 26.2291 50.3237 26.2363 50.3531 26.2502C50.3825 26.264 50.4085 26.2841 50.4293 26.309C50.4501 26.334 50.4652 26.3632 50.4735 26.3946C50.4818 26.426 50.4831 26.4588 50.4774 26.4908L48.4374 37.269C48.4243 37.333 48.385 37.365 48.3196 37.365L45.2105 37.3541C45.1203 37.3541 45.0839 37.3104 45.1014 37.2232L46.6352 29.3882ZM57.2912 26.3839L55.2447 37.2537C55.2391 37.2814 55.2241 37.3064 55.2022 37.3243C55.1803 37.3422 55.1529 37.3519 55.1247 37.3519L51.2977 37.365C51.2797 37.365 51.2618 37.361 51.2454 37.3533C51.229 37.3456 51.2146 37.3343 51.2031 37.3203C51.1916 37.3063 51.1834 37.29 51.179 37.2724C51.1746 37.2548 51.1742 37.2365 51.1777 37.2188L53.233 26.3228C53.2382 26.2943 53.2533 26.2686 53.2757 26.2502C53.2981 26.2318 53.3262 26.222 53.3552 26.2224L57.1712 26.2399C57.1891 26.2399 57.2067 26.2439 57.2229 26.2515C57.2391 26.2591 57.2534 26.2701 57.2648 26.2838C57.2763 26.2976 57.2846 26.3137 57.2891 26.3309C57.2937 26.3482 57.2944 26.3663 57.2912 26.3839ZM62.6497 38.5126V39.0537C62.2658 40.749 61.081 41.0981 59.569 41.0719C58.4127 41.0522 57.5378 40.4501 57.0774 39.4268C57.0635 39.3965 57.057 39.3633 57.0584 39.33C57.0598 39.2967 57.069 39.2641 57.0853 39.2348C57.1017 39.2056 57.1246 39.1805 57.1524 39.1615C57.1802 39.1426 57.212 39.1303 57.2454 39.1257L58.7639 38.9141C58.8425 38.9024 58.9072 38.9272 58.9581 38.9882C59.0294 39.0741 59.0607 39.1773 59.0519 39.2981C59.0461 39.3781 59.0672 39.4508 59.1152 39.5162C59.3828 39.8857 59.7668 39.9824 60.2672 39.8064C60.3239 39.7861 60.3705 39.7519 60.4068 39.7039C60.8636 39.0755 60.809 38.4937 60.2432 37.9584C60.212 37.93 60.174 37.9118 60.1341 37.9061C59.8796 37.8639 59.6447 37.9075 59.4294 38.037C59.4135 38.0472 59.3951 38.053 59.3761 38.0536C59.3572 38.0542 59.3385 38.0497 59.3219 38.0406C59.3053 38.0314 59.2916 38.0179 59.2821 38.0015C59.2726 37.9851 59.2677 37.9665 59.2679 37.9475V36.8173C59.2679 36.7402 59.3065 36.7017 59.3836 36.7017C60.9654 36.7039 60.5596 34.7424 59.3094 35.349C59.2454 35.3795 59.1974 35.4268 59.1654 35.4908L58.9079 36.0013C58.8873 36.0427 58.8534 36.076 58.8116 36.0961C58.7698 36.1162 58.7223 36.122 58.6767 36.1126L57.2563 35.8137C57.169 35.7962 57.1399 35.7453 57.169 35.661C58.2948 32.4144 64.6723 34.5766 61.4367 37.2122C61.4295 37.2182 61.4242 37.2259 61.4212 37.2347C61.4182 37.2434 61.4177 37.2529 61.4197 37.2619C61.4217 37.2709 61.4262 37.2792 61.4327 37.2859C61.4392 37.2925 61.4473 37.2972 61.4563 37.2995C62.121 37.4653 62.5188 37.8697 62.6497 38.5126ZM43.6898 38.5301C43.7058 38.5334 43.7211 38.54 43.7346 38.5492C43.7482 38.5585 43.7598 38.5704 43.7687 38.5842C43.7776 38.598 43.7837 38.6135 43.7866 38.6296C43.7896 38.6458 43.7893 38.6624 43.7857 38.6784L43.0287 42.1781C43.0172 42.2317 42.9966 42.2829 42.9681 42.3286C42.9396 42.3744 42.9037 42.4138 42.8626 42.4446C42.8214 42.4754 42.7758 42.497 42.7283 42.5082C42.6808 42.5194 42.6323 42.5199 42.5857 42.5097L42.5181 42.4944C42.4245 42.4742 42.3439 42.412 42.2941 42.3217C42.2442 42.2313 42.229 42.12 42.2519 42.0122L43.009 38.5104C43.0124 38.4943 43.0189 38.4791 43.0282 38.4655C43.0375 38.452 43.0494 38.4404 43.0632 38.4315C43.077 38.4226 43.0924 38.4165 43.1086 38.4135C43.1247 38.4106 43.1413 38.4109 43.1574 38.4144L43.6898 38.5301Z" fill="white"></path><path d="M54.4239 38.4888L54.0996 38.4192C53.9806 38.3937 53.8635 38.4695 53.838 38.5885L53.0641 42.1981C53.0386 42.3171 53.1144 42.4343 53.2334 42.4598L53.5577 42.5293C53.6767 42.5548 53.7938 42.479 53.8193 42.36L54.5932 38.7504C54.6187 38.6314 54.5429 38.5143 54.4239 38.4888Z" fill="white"></path><path d="M9.62284 41.1613C17.0345 56.3009 35.281 48.7322 45.8585 43.0333C45.8847 43.0187 45.9007 42.9984 45.9065 42.9722C45.9108 42.946 45.9254 42.9271 45.9501 42.9155L47.4076 42.1933C47.4427 42.1765 47.4712 42.1486 47.4886 42.1138C47.506 42.079 47.5112 42.0394 47.5036 42.0013L47.0541 39.6864C47.0506 39.6683 47.0511 39.6497 47.0556 39.6319C47.0601 39.6141 47.0685 39.5975 47.0801 39.5833C47.0918 39.5691 47.1065 39.5577 47.1231 39.5499C47.1398 39.542 47.1579 39.538 47.1763 39.538H47.7087C47.7828 39.538 47.825 39.5751 47.8352 39.6493L48.0512 41.2136C48.0537 41.2316 48.0616 41.2483 48.074 41.2615C48.0864 41.2747 48.1026 41.2837 48.1203 41.2873C48.1381 41.2909 48.1565 41.2889 48.173 41.2815C48.1895 41.2742 48.2034 41.2619 48.2127 41.2464C48.5988 40.6027 49.0025 39.3678 49.9188 39.5249C49.9383 39.5284 49.9566 39.5366 49.9722 39.5488C49.9878 39.561 50.0002 39.5767 50.0084 39.5948C50.0166 39.6128 50.0202 39.6325 50.0191 39.6523C50.0179 39.6721 50.012 39.6912 50.0017 39.7082L48.3348 42.3809C48.2927 42.4493 48.2316 42.4835 48.1516 42.4835H47.7523C47.6708 42.4835 47.5981 42.5089 47.5341 42.5598C42.5639 46.5242 37.1661 49.7358 31.1072 51.7365C25.7727 53.4995 18.4767 54.3787 13.5108 50.9773C10.9385 49.2144 9.56175 46.4478 9.43957 43.3496C9.41338 42.7125 9.51593 41.9249 9.50502 41.1896C9.50341 41.1749 9.50724 41.16 9.51579 41.1479C9.52433 41.1357 9.53701 41.1271 9.55145 41.1236C9.5659 41.1202 9.58111 41.1221 9.59425 41.129C9.60738 41.1359 9.61755 41.1474 9.62284 41.1613Z" fill="white"></path><path d="M44.8134 41.2858C44.7628 41.2857 44.7136 41.302 44.6732 41.3323C44.6327 41.3625 44.6031 41.4051 44.5887 41.4537C44.5743 41.5023 44.5758 41.5545 44.5931 41.6024C44.6104 41.6503 44.6425 41.6915 44.6847 41.7199C45.5923 42.3199 45.6556 41.2421 46.3428 41.6959C46.4054 41.7367 46.4134 41.7861 46.3668 41.8443C45.0141 43.6028 43.009 41.6436 44.1697 40.149C44.7959 39.3439 45.8759 39.2894 46.5327 40.1076C46.5849 40.1739 46.6133 40.2553 46.6134 40.3388V41.1156C46.6134 41.2218 46.5603 41.2748 46.4541 41.2748L44.8134 41.2858ZM44.7741 40.7512L45.8781 40.7207C45.8847 40.7204 45.8912 40.7188 45.8971 40.716C45.9031 40.7132 45.9085 40.7093 45.913 40.7044C45.9174 40.6996 45.9209 40.6939 45.9231 40.6877C45.9254 40.6815 45.9264 40.6749 45.9261 40.6683V40.6421C45.9215 40.4903 45.8576 40.3465 45.7484 40.2423C45.6392 40.138 45.4936 40.0817 45.3436 40.0858L45.2737 40.0879C45.1992 40.0899 45.1258 40.1067 45.0577 40.1374C44.9897 40.168 44.9282 40.212 44.877 40.2667C44.8257 40.3214 44.7856 40.3858 44.759 40.4562C44.7323 40.5266 44.7197 40.6017 44.7217 40.677L44.7239 40.7032C44.7245 40.7161 44.73 40.7283 44.7394 40.7373C44.7487 40.7462 44.7612 40.7512 44.7741 40.7512ZM51.0577 41.8705L51.5159 41.9468C51.5531 41.9527 51.5912 41.9488 51.6264 41.9354C51.6617 41.922 51.6928 41.8996 51.7166 41.8705C51.9319 41.6043 52.2148 41.5301 52.5654 41.6479C52.6396 41.6727 52.6541 41.7178 52.609 41.7832C52.3166 42.205 52.0476 42.4356 51.8017 42.4748C49.441 42.8479 49.4977 39.5883 51.5923 39.5294C52.5108 39.5032 52.9363 40.2625 52.7639 41.0807C52.745 41.1694 52.6912 41.2159 52.6025 41.2203L51.0905 41.2967C51.0194 41.2998 50.9521 41.3292 50.9016 41.379C50.8512 41.4289 50.821 41.4958 50.8169 41.567C50.8129 41.6381 50.8352 41.7084 50.8797 41.7644C50.9241 41.8204 50.9875 41.8582 51.0577 41.8705ZM50.9683 40.7228L52.0701 40.7708C52.074 40.7711 52.0779 40.7706 52.0816 40.7693C52.0853 40.7681 52.0887 40.766 52.0916 40.7634C52.0945 40.7607 52.0967 40.7575 52.0983 40.7539C52.0999 40.7503 52.1007 40.7464 52.1006 40.7425V40.7098C52.1069 40.554 52.0545 40.4022 51.9547 40.2877C51.8549 40.1732 51.7159 40.1053 51.5683 40.0988L51.5268 40.0967C51.3789 40.0899 51.2341 40.1454 51.1245 40.251C51.0148 40.3565 50.9492 40.5035 50.9421 40.6596L50.9399 40.6923C50.9396 40.6962 50.9401 40.7001 50.9414 40.7038C50.9427 40.7075 50.9448 40.7109 50.9474 40.7138C50.9501 40.7167 50.9533 40.7189 50.9569 40.7205C50.9605 40.7221 50.9644 40.7229 50.9683 40.7228Z" fill="white"></path></g><g clip-path="url(#clip1_6144_1887)"><path d="M7.14975 90.9199C10.4635 90.9199 13.1497 88.2336 13.1497 84.9199C13.1497 81.6062 10.4635 78.9199 7.14975 78.9199C3.83604 78.9199 1.14975 81.6062 1.14975 84.9199C1.14975 88.2336 3.83604 90.9199 7.14975 90.9199Z" fill="#4992C1"></path><path d="M4.83432 85.3441L5.33822 86.1405C5.70223 86.7158 5.88423 87.0035 6.11765 87.1042C6.3216 87.1922 6.55248 87.194 6.75779 87.1092C6.99276 87.0121 7.17924 86.7274 7.55221 86.1579L9.46289 83.2402" stroke="#F8F8F8" stroke-linecap="round" stroke-linejoin="round"></path></g><path d="M30.5929 83.0676H28.8202C28.752 82.6889 28.6251 82.3555 28.4395 82.0676C28.2539 81.7798 28.0266 81.5355 27.7577 81.3347C27.4888 81.1339 27.1876 80.9824 26.8543 80.8801C26.5247 80.7779 26.1744 80.7267 25.8032 80.7267C25.1327 80.7267 24.5323 80.8953 24.002 81.2324C23.4755 81.5695 23.0588 82.0639 22.752 82.7154C22.449 83.3669 22.2975 84.1623 22.2975 85.1017C22.2975 86.0487 22.449 86.848 22.752 87.4995C23.0588 88.151 23.4774 88.6434 24.0077 88.9767C24.538 89.3101 25.1346 89.4767 25.7975 89.4767C26.1649 89.4767 26.5134 89.4275 26.8429 89.329C27.1763 89.2267 27.4774 89.0771 27.7463 88.8801C28.0153 88.6832 28.2426 88.4426 28.4282 88.1586C28.6176 87.8707 28.7482 87.5411 28.8202 87.1699L30.5929 87.1756C30.4982 87.7476 30.3145 88.2741 30.0418 88.7551C29.7729 89.2324 29.4263 89.6453 29.002 89.9938C28.5816 90.3385 28.1005 90.6055 27.5588 90.7949C27.0172 90.9843 26.4263 91.079 25.7861 91.079C24.7785 91.079 23.8808 90.8404 23.0929 90.3631C22.3051 89.882 21.6838 89.1945 21.2293 88.3006C20.7785 87.4067 20.5532 86.3404 20.5532 85.1017C20.5532 83.8593 20.7804 82.793 21.235 81.9029C21.6895 81.0089 22.3107 80.3233 23.0986 79.8461C23.8865 79.365 24.7823 79.1245 25.7861 79.1245C26.4035 79.1245 26.9793 79.2135 27.5134 79.3915C28.0513 79.5658 28.5342 79.8233 28.9622 80.1642C29.3903 80.5014 29.7444 80.9142 30.0247 81.4029C30.3051 81.8877 30.4944 82.4426 30.5929 83.0676ZM32.6938 79.2836H34.8245L38.529 88.329H38.6654L42.3699 79.2836H44.5006V90.9199H42.8301V82.4995H42.7222L39.2904 90.9029H37.904L34.4722 82.4938H34.3642V90.9199H32.6938V79.2836ZM47.0532 79.2836H49.1838L52.8884 88.329H53.0247L56.7293 79.2836H58.86V90.9199H57.1895V82.4995H57.0816L53.6497 90.9029H52.2634L48.8316 82.4938H48.7236V90.9199H47.0532V79.2836ZM63.1682 79.2836V90.9199H61.4125V79.2836H63.1682Z" fill="#F8F8F8"></path><defs><clipPath id="clip0_6144_1887"><rect width="60" height="60" fill="white" transform="translate(2.64975 0.919922)"></rect></clipPath><clipPath id="clip1_6144_1887"><rect width="13" height="13" fill="white" transform="translate(0.64975 78.4199)"></rect></clipPath></defs></svg>