<svg xmlns="http://www.w3.org/2000/svg" width="107" height="28" viewBox="0 0 107 28" fill="none"><mask id="mask0_6144_1935" style="mask-type:luminance" maskUnits="userSpaceOnUse" x="0" y="0" width="107" height="27"><path d="M106.667 0.919434H0V26.4593H106.667V0.919434Z" fill="white"></path></mask><g mask="url(#mask0_6144_1935)"><mask id="mask1_6144_1935" style="mask-type:luminance" maskUnits="userSpaceOnUse" x="0" y="0" width="107" height="27"><path d="M106.667 0.919434H0V26.4594H106.667V0.919434Z" fill="white"></path></mask><g mask="url(#mask1_6144_1935)"><mask id="mask2_6144_1935" style="mask-type:luminance" maskUnits="userSpaceOnUse" x="0" y="0" width="107" height="27"><path d="M106.667 0.919434H0V26.4594H106.667V0.919434Z" fill="white"></path></mask><g mask="url(#mask2_6144_1935)"><path d="M44.2144 6.88572V20.4908H41.8524V9.81462H41.8208L37.6007 20.4908H36.026L31.7114 9.81462H31.68V20.4908H29.5068V6.88572H32.9082L36.8134 16.9636H36.8763L41.002 6.88572H44.2144ZM46.167 7.92501C46.167 7.54708 46.2929 7.23215 46.5764 6.9802C46.8597 6.72826 47.1747 6.60229 47.5526 6.60229C47.962 6.60229 48.3084 6.72826 48.5604 6.9802C48.8123 7.23215 48.9699 7.54708 48.9699 7.92501C48.9699 8.30293 48.8439 8.61787 48.5604 8.86981C48.277 9.12175 47.962 9.24772 47.5526 9.24772C47.1432 9.24772 46.8283 9.12175 46.5764 8.86981C46.3244 8.58638 46.167 8.27144 46.167 7.92501ZM48.718 10.7279V20.4908H46.4189V10.7279H48.718ZM55.6779 18.8217C56.0243 18.8217 56.4023 18.7588 56.8117 18.5698C57.2211 18.4123 57.5991 18.1918 57.9455 17.9399V20.0815C57.5675 20.302 57.1581 20.4594 56.6858 20.5539C56.2133 20.6483 55.7094 20.7114 55.1426 20.7114C53.6939 20.7114 52.5287 20.2704 51.6468 19.3572C50.7335 18.4439 50.2926 17.2785 50.2926 15.8928C50.2926 14.3182 50.7649 13.0269 51.6783 12.0191C52.5916 11.0114 53.8829 10.5075 55.5835 10.5075C56.0243 10.5075 56.4653 10.5705 56.8746 10.6649C57.3156 10.7594 57.662 10.9169 57.914 11.0429V13.2474C57.5675 12.9955 57.1897 12.775 56.8432 12.649C56.4653 12.5231 56.0874 12.4286 55.7094 12.4286C54.7961 12.4286 54.0717 12.712 53.5049 13.3104C52.938 13.9088 52.6861 14.6961 52.6861 15.7039C52.6861 16.6801 52.9694 17.4675 53.5049 18.003C54.0403 18.5382 54.7646 18.8217 55.6779 18.8217ZM64.4647 10.5705C64.6537 10.5705 64.8111 10.5705 64.9685 10.602C65.126 10.6334 65.2519 10.6649 65.3464 10.6964V13.0269C65.2205 12.9325 65.063 12.838 64.8111 12.775C64.5592 12.712 64.3072 12.649 63.9608 12.649C63.3938 12.649 62.9214 12.901 62.5435 13.3734C62.1656 13.8458 61.9451 14.5701 61.9451 15.5779V20.4908H59.6462V10.7279H61.9451V12.2711H61.9766C62.197 11.7357 62.5121 11.3263 62.9214 11.0114C63.3624 10.7279 63.8663 10.5705 64.4647 10.5705ZM65.4724 15.7669C65.4724 14.1607 65.9448 12.8695 66.8266 11.9247C67.7399 10.9799 68.9996 10.5075 70.6058 10.5075C72.1175 10.5075 73.3142 10.9484 74.1646 11.8617C75.0149 12.775 75.4558 14.0032 75.4558 15.5464C75.4558 17.1211 74.9835 18.3808 74.1016 19.3256C73.1883 20.2704 71.96 20.7428 70.3854 20.7428C68.8737 20.7428 67.677 20.302 66.7951 19.4201C65.9134 18.5068 65.4724 17.2785 65.4724 15.7669ZM67.866 15.6724C67.866 16.6801 68.0864 17.4675 68.5587 18.003C69.0312 18.5382 69.6925 18.8217 70.5429 18.8217C71.3616 18.8217 72.0231 18.5698 72.4639 18.003C72.9048 17.4675 73.1254 16.6801 73.1254 15.6094C73.1254 14.5701 72.9048 13.7828 72.4639 13.2159C72.0231 12.6805 71.3616 12.3971 70.5744 12.3971C69.7241 12.3971 69.0941 12.6805 68.6218 13.2474C68.0864 13.8458 67.866 14.6331 67.866 15.6724ZM78.8887 13.3104C78.8887 13.6253 78.983 13.9088 79.2036 14.0977C79.424 14.2867 79.8649 14.5071 80.5892 14.7906C81.5026 15.1685 82.164 15.5779 82.5104 16.0188C82.8882 16.4913 83.0772 17.0266 83.0772 17.6879C83.0772 18.6013 82.7308 19.3256 82.0065 19.8925C81.3136 20.4594 80.3373 20.7114 79.1406 20.7114C78.7311 20.7114 78.2903 20.6483 77.7864 20.5539C77.2824 20.4594 76.873 20.3334 76.5266 20.1759V17.9085C76.9361 18.1918 77.4084 18.4439 77.8808 18.6013C78.3533 18.7588 78.7942 18.8533 79.2036 18.8533C79.7075 18.8533 80.1169 18.7902 80.3373 18.6327C80.5892 18.4753 80.7152 18.2549 80.7152 17.9085C80.7152 17.5936 80.5892 17.3416 80.3373 17.0895C80.0853 16.8691 79.5814 16.6172 78.8887 16.3337C78.0384 15.9874 77.44 15.5779 77.0935 15.137C76.7471 14.6961 76.5581 14.1292 76.5581 13.4364C76.5581 12.5545 76.9045 11.8302 77.5974 11.2633C78.2903 10.6964 79.2036 10.413 80.3059 10.413C80.6523 10.413 81.0301 10.4445 81.4395 10.539C81.8491 10.6334 82.2269 10.7279 82.5104 10.8224V13.0584C82.1954 12.8695 81.8491 12.6805 81.4395 12.5231C81.0301 12.3656 80.6208 12.3026 80.2429 12.3026C79.802 12.3026 79.4555 12.3971 79.235 12.5545C79.0146 12.775 78.8887 12.9954 78.8887 13.3104ZM84.0536 15.7669C84.0536 14.1607 84.5259 12.8695 85.4078 11.9247C86.3211 10.9799 87.5808 10.5075 89.187 10.5075C90.6986 10.5075 91.8954 10.9484 92.7457 11.8617C93.5961 12.775 94.037 14.0032 94.037 15.5464C94.037 17.1211 93.5645 18.3808 92.6828 19.3256C91.7694 20.2704 90.5412 20.7428 88.9666 20.7428C87.4548 20.7428 86.2582 20.302 85.3763 19.4201C84.526 18.5068 84.0536 17.2785 84.0536 15.7669ZM86.447 15.6724C86.447 16.6801 86.6675 17.4675 87.1399 18.003C87.6124 18.5382 88.2737 18.8217 89.124 18.8217C89.9428 18.8217 90.6042 18.5698 91.0451 18.003C91.486 17.4675 91.7064 16.6801 91.7064 15.6094C91.7064 14.5701 91.486 13.7828 91.0451 13.2159C90.6042 12.6805 89.9428 12.3971 89.1554 12.3971C88.3051 12.3971 87.6753 12.6805 87.2028 13.2474C86.6989 13.8458 86.447 14.6331 86.447 15.6724ZM101.69 12.6175H98.2571V20.4908H95.9265V12.6175H94.2889V10.7279H95.9265V9.37371C95.9265 8.36591 96.273 7.51559 96.9344 6.85423C97.5958 6.19287 98.4461 5.87793 99.4853 5.87793C99.7688 5.87793 100.021 5.90942 100.241 5.90942C100.462 5.90942 100.651 5.97241 100.808 6.03541V8.01948C100.745 7.98799 100.588 7.92501 100.399 7.86202C100.21 7.79903 99.9893 7.76754 99.7374 7.76754C99.2649 7.76754 98.887 7.92501 98.6351 8.20845C98.3831 8.49189 98.2571 8.96429 98.2571 9.53117V10.6964H101.69V8.49189L103.989 7.79903V10.6964H106.319V12.586H103.989V17.1526C103.989 17.751 104.115 18.1604 104.304 18.4123C104.524 18.6643 104.871 18.7902 105.343 18.7902C105.469 18.7902 105.627 18.7588 105.816 18.6958C106.005 18.6327 106.162 18.5698 106.288 18.4753V20.3649C106.13 20.4594 105.91 20.5224 105.564 20.5853C105.217 20.6483 104.902 20.6798 104.556 20.6798C103.579 20.6798 102.855 20.4279 102.383 19.924C101.91 19.4201 101.658 18.6327 101.658 17.5936L101.69 12.6175Z" fill="#F8F8F8"></path><path d="M10.7708 2.35107H0V13.1218H10.7708V2.35107Z" fill="#F8F8F8"></path><path d="M22.6722 2.35107H11.9014V13.1218H22.6722V2.35107Z" fill="#F8F8F8"></path><path d="M10.7708 14.2554H0V25.0262H10.7708V14.2554Z" fill="#F8F8F8"></path><path d="M22.6722 14.2554H11.9014V25.0262H22.6722V14.2554Z" fill="#F8F8F8"></path></g></g></g></svg>