<svg xmlns="http://www.w3.org/2000/svg" width="55" height="34" viewBox="0 0 55 34" fill="none"><g clip-path="url(#clip0_6144_1956)"><mask id="mask0_6144_1956" style="mask-type:luminance" maskUnits="userSpaceOnUse" x="1" y="0" width="54" height="33"><path d="M54.6271 0.644531H1.29382V32.4326H54.6271V0.644531Z" fill="white"></path></mask><g mask="url(#mask0_6144_1956)"><path d="M16.3755 12.1941C16.3755 12.8476 16.4461 13.3774 16.5697 13.7659C16.711 14.1544 16.8876 14.5782 17.1349 15.0374C17.2232 15.1787 17.2585 15.32 17.2585 15.4436C17.2585 15.6202 17.1525 15.7968 16.9229 15.9734L15.8104 16.7151C15.6514 16.8211 15.4925 16.8741 15.3512 16.8741C15.1746 16.8741 14.998 16.7858 14.8214 16.6268C14.5742 16.3619 14.3622 16.0794 14.1856 15.7968C14.009 15.4966 13.8324 15.161 13.6382 14.7548C12.2607 16.3796 10.53 17.1919 8.44615 17.1919C6.96271 17.1919 5.77949 16.7681 4.91415 15.9204C4.0488 15.0727 3.6073 13.9425 3.6073 12.5297C3.6073 11.0286 4.1371 9.81002 5.21437 8.89169C6.29163 7.97337 7.72209 7.51421 9.54108 7.51421C10.1415 7.51421 10.7596 7.56719 11.413 7.65549C12.0664 7.74379 12.7375 7.88507 13.4439 8.04401V6.75483C13.4439 5.41266 13.1614 4.47668 12.6139 3.92922C12.0488 3.38176 11.0951 3.11686 9.73534 3.11686C9.11724 3.11686 8.48147 3.1875 7.82805 3.34644C7.17463 3.50538 6.53887 3.69964 5.92077 3.94688C5.63821 4.0705 5.42629 4.14114 5.30267 4.17646C5.17905 4.21178 5.09075 4.22944 5.02011 4.22944C4.77287 4.22944 4.64925 4.05284 4.64925 3.68198V2.81664C4.64925 2.53408 4.68457 2.32216 4.77287 2.19854C4.86117 2.07492 5.02011 1.95129 5.26735 1.82767C5.88545 1.50979 6.62717 1.24489 7.49251 1.03297C8.35785 0.803389 9.27618 0.697429 10.2475 0.697429C12.349 0.697429 13.8854 1.17425 14.8744 2.1279C15.8457 3.08154 16.3402 4.52966 16.3402 6.47227V12.1941H16.3755ZM9.20554 14.8785C9.78832 14.8785 10.3888 14.7725 11.0245 14.5606C11.6603 14.3487 12.2254 13.9601 12.7022 13.4303C12.9848 13.0948 13.1967 12.7239 13.3026 12.3001C13.4086 11.8763 13.4792 11.3641 13.4792 10.7637V10.0219C12.9671 9.89832 12.4196 9.79236 11.8545 9.72172C11.2894 9.65108 10.742 9.61575 10.1945 9.61575C9.01128 9.61575 8.14593 9.84534 7.56315 10.3222C6.98037 10.799 6.69781 11.4701 6.69781 12.3531C6.69781 13.1831 6.90973 13.8012 7.35123 14.225C7.77507 14.6665 8.39317 14.8785 9.20554 14.8785ZM23.3865 16.7858C23.0686 16.7858 22.8567 16.7328 22.7154 16.6092C22.5742 16.5032 22.4505 16.256 22.3446 15.9204L18.1945 2.26918C18.0885 1.91597 18.0355 1.68639 18.0355 1.56277C18.0355 1.28021 18.1768 1.12127 18.4594 1.12127H20.1901C20.5256 1.12127 20.7552 1.17425 20.8788 1.29787C21.0201 1.40383 21.126 1.65107 21.232 1.98662L24.1989 13.6776L26.9539 1.98662C27.0422 1.63341 27.1481 1.40383 27.2894 1.29787C27.4307 1.19191 27.6779 1.12127 27.9958 1.12127H29.4086C29.7441 1.12127 29.9737 1.17425 30.115 1.29787C30.2563 1.40383 30.3799 1.65107 30.4505 1.98662L33.2408 13.8189L36.296 1.98662C36.402 1.63341 36.5256 1.40383 36.6492 1.29787C36.7905 1.19191 37.0201 1.12127 37.338 1.12127H38.9803C39.2629 1.12127 39.4218 1.26255 39.4218 1.56277C39.4218 1.65107 39.4042 1.73937 39.3865 1.84533C39.3689 1.9513 39.3335 2.09258 39.2629 2.28684L35.0068 15.9381C34.9009 16.2913 34.7772 16.5209 34.636 16.6268C34.4947 16.7328 34.2651 16.8034 33.9649 16.8034H32.4461C32.1106 16.8034 31.881 16.7504 31.7397 16.6268C31.5984 16.5032 31.4748 16.2736 31.4042 15.9204L28.6669 4.52966L25.9472 15.9028C25.8589 16.256 25.753 16.4855 25.6117 16.6092C25.4704 16.7328 25.2232 16.7858 24.9053 16.7858H23.3865ZM46.0797 17.2626C45.1614 17.2626 44.243 17.1566 43.36 16.9447C42.477 16.7328 41.7883 16.5032 41.3291 16.2383C41.0466 16.0794 40.8523 15.9028 40.7817 15.7438C40.711 15.5849 40.6757 15.4083 40.6757 15.2493V14.3487C40.6757 13.9778 40.817 13.8012 41.0819 13.8012C41.1878 13.8012 41.2938 13.8189 41.3998 13.8542C41.5057 13.8895 41.6647 13.9601 41.8413 14.0308C42.4417 14.2957 43.0951 14.5076 43.7839 14.6489C44.4903 14.7902 45.179 14.8608 45.8854 14.8608C46.998 14.8608 47.8633 14.6665 48.4638 14.278C49.0642 13.8895 49.3821 13.3244 49.3821 12.6003C49.3821 12.1058 49.2232 11.6997 48.9053 11.3641C48.5874 11.0286 47.987 10.7284 47.1216 10.4458L44.5609 9.65107C43.2717 9.24489 42.3181 8.64445 41.7353 7.84975C41.1525 7.07271 40.8523 6.20737 40.8523 5.28904C40.8523 4.54732 41.0112 3.8939 41.3291 3.32878C41.647 2.76366 42.0708 2.26918 42.6006 1.88065C43.1305 1.47447 43.7309 1.17425 44.4373 0.962329C45.1437 0.750409 45.8854 0.662109 46.6625 0.662109C47.051 0.662109 47.4572 0.679769 47.8457 0.732749C48.2519 0.785729 48.6227 0.856369 48.9936 0.927009C49.3468 1.01531 49.6823 1.10361 50.0002 1.20957C50.3181 1.31553 50.5653 1.42149 50.7419 1.52745C50.9892 1.66873 51.1658 1.81001 51.2717 1.96896C51.3777 2.11024 51.4307 2.3045 51.4307 2.55174V3.38176C51.4307 3.75262 51.2894 3.94688 51.0245 3.94688C50.8832 3.94688 50.6536 3.87624 50.3534 3.73496C49.3468 3.2758 48.2165 3.04622 46.9627 3.04622C45.9561 3.04622 45.1614 3.20516 44.6139 3.5407C44.0664 3.87624 43.7839 4.38838 43.7839 5.11244C43.7839 5.60692 43.9605 6.03077 44.3137 6.36631C44.6669 6.70185 45.3203 7.03739 46.2563 7.33761L48.764 8.13231C50.0355 8.53849 50.9538 9.10361 51.5013 9.82768C52.0488 10.5518 52.3137 11.3818 52.3137 12.3001C52.3137 13.0595 52.1547 13.7482 51.8545 14.3487C51.5366 14.9491 51.1128 15.4789 50.5653 15.9028C50.0179 16.3443 49.3644 16.6621 48.6051 16.8917C47.8104 17.139 46.9803 17.2626 46.0797 17.2626Z" fill="#F8F8F8"></path><path fill-rule="evenodd" clip-rule="evenodd" d="M49.4176 25.8456C43.6075 30.1369 35.166 32.4151 27.9077 32.4151C17.7355 32.4151 8.56996 28.6535 1.64722 22.4018C1.09976 21.9074 1.59424 21.2363 2.24767 21.6248C9.73552 25.9692 18.9717 28.6005 28.5258 28.6005C34.9717 28.6005 42.0534 27.2584 48.5699 24.5034C49.5412 24.0619 50.3712 25.1392 49.4176 25.8456Z" fill="#F8F8F8"></path><path fill-rule="evenodd" clip-rule="evenodd" d="M51.8372 23.0902C51.0955 22.1365 46.9277 22.631 45.0381 22.8606C44.473 22.9312 44.3847 22.4368 44.8968 22.0659C48.2169 19.7348 53.6739 20.4059 54.3096 21.1829C54.9454 21.9776 54.133 27.4346 51.0249 30.0482C50.5481 30.4544 50.0889 30.2425 50.3008 29.7127C51.0072 27.9644 52.579 24.0262 51.8372 23.0902Z" fill="#F8F8F8"></path></g></g><defs><clipPath id="clip0_6144_1956"><rect width="54" height="33" fill="white" transform="translate(0.960327 0.419922)"></rect></clipPath></defs></svg>