<svg xmlns="http://www.w3.org/2000/svg" width="121" height="33" viewBox="0 0 121 33" fill="none"><g clip-path="url(#clip0_6144_1964)"><path d="M29.206 31.655V21.2118C29.206 19.0321 28.3122 17.9188 26.4933 17.9188C24.6743 17.9188 23.7805 19.0321 23.7805 21.2118V31.655H18.4491V21.2118C18.4491 19.0321 17.5553 17.9188 15.7834 17.9188C14.0115 17.9188 13.0707 19.0321 13.0707 21.2118V31.655H7.73932V20.5845C7.73932 18.3108 8.53903 16.586 10.0914 15.3786C11.4713 14.3123 13.3843 13.8262 15.7364 13.8262C18.0885 13.8262 19.9074 14.4377 21.0678 15.6922C22.0399 14.4535 23.8276 13.8262 26.4462 13.8262C28.7983 13.8262 30.7113 14.3593 32.0912 15.3786C33.6906 16.539 34.4433 18.2638 34.4433 20.5845V31.655H29.1746H29.206Z" fill="#F8F8F8"></path><path d="M99.8343 1.73779H94.5027V31.6092H99.8343V1.73779Z" fill="#F8F8F8"></path><path d="M87.6979 21.6973C87.6979 20.7565 87.2588 19.8313 86.365 18.9375C85.4712 18.0437 84.546 17.6517 83.5582 17.6517C82.2723 17.6047 81.0336 18.2319 80.3123 19.2982C79.6067 20.2704 79.246 21.4777 79.246 22.889C79.246 24.3002 79.6067 25.4606 80.3123 26.4485C81.112 27.6088 82.1783 28.189 83.5582 28.189C84.405 28.189 85.2987 27.7814 86.2239 27.0287C87.1961 26.276 87.6979 25.4293 87.6979 24.6296V21.6973ZM87.6979 31.6074V29.8355C87.2117 30.4471 86.4121 30.9959 85.2517 31.3408C84.3108 31.7015 83.3387 31.874 82.3665 31.874C79.8419 31.874 77.7877 30.9801 76.2354 29.2553C74.683 27.5148 73.9303 25.3352 73.9303 22.7636C73.9303 20.192 74.683 18.1064 76.204 16.4129C77.5369 14.9076 79.7164 13.8413 82.2097 13.8413C85.0165 13.8413 86.6943 14.9076 87.6822 16.115V1.70459H92.8408V31.576H87.7292V31.6231L87.6979 31.6074Z" fill="#F8F8F8"></path><path d="M63.911 18.0132C62.6252 18.0132 61.6374 18.4994 60.9317 19.4872C60.2732 20.4594 59.9125 21.6198 59.9125 22.9526C59.9125 24.2855 60.2261 25.4459 60.8847 26.3396C62.0451 28.0332 64.3501 28.4252 66.0436 27.2334C66.4043 26.9668 66.7022 26.7003 66.9374 26.3396C67.596 25.3988 67.9566 24.3012 67.9566 22.9526C67.9566 21.6041 67.643 20.4594 66.9844 19.5656C66.2318 18.5464 65.2125 18.0132 63.9268 18.0132H63.911ZM63.911 32.0944C61.1983 32.0944 58.9717 31.2476 57.2468 29.5228C55.4749 27.7822 54.6282 25.6027 54.6282 22.9056C54.6282 20.2085 55.522 18.0132 57.2468 16.2884C58.9874 14.5478 61.2453 13.7168 63.911 13.7168C66.5767 13.7168 68.8504 14.5636 70.6223 16.2884C72.3942 18.0132 73.288 20.2085 73.288 22.9056C73.288 25.6027 72.3942 27.798 70.6223 29.5228C68.8034 31.2633 66.5767 32.0944 63.911 32.0944Z" fill="#F8F8F8"></path><path d="M44.6263 18.0132C43.3405 18.0132 42.3526 18.4994 41.647 19.4872C40.9414 20.5065 40.5808 21.7139 40.6278 22.9526C40.6278 24.2855 40.9414 25.4459 41.6 26.3396C42.7603 28.0332 45.0654 28.4252 46.7588 27.2334C47.1195 26.9668 47.4175 26.7003 47.6527 26.3396C48.3113 25.3988 48.6719 24.3012 48.6719 22.9526C48.6719 21.6041 48.3583 20.4594 47.6997 19.5656C46.9941 18.5464 45.9592 18.0132 44.642 18.0132H44.6263ZM44.6263 32.0944C41.9136 32.0944 39.6869 31.2476 37.9621 29.5228C36.1902 27.7822 35.3434 25.6027 35.3434 22.9056C35.3434 20.2085 36.2372 18.0132 37.9621 16.2884C39.734 14.5478 41.9606 13.7168 44.6263 13.7168C47.292 13.7168 49.5657 14.5636 51.3376 16.2884C53.1095 18.0132 54.0033 20.2085 54.0033 22.9056C54.0033 25.6027 53.1095 27.798 51.3376 29.5228C49.5657 31.2633 47.3391 32.0944 44.6263 32.0944Z" fill="#F8F8F8"></path><path d="M114.641 21.2131C114.46 20.1195 113.948 19.1224 113.14 18.3343C112.332 17.5463 111.276 17.1121 110.139 17.1121C109.017 17.0638 107.995 17.5302 107.187 18.3021C106.395 19.1224 105.834 20.1195 105.603 21.2291H114.624L114.641 21.2131ZM105.487 24.5905C105.62 25.9092 107.351 28.6915 110.204 28.6915C113.058 28.6915 114.278 27.1475 114.361 26.5043L120.248 26.456C119.605 28.3699 116.983 32.4709 110.106 32.4709C107.252 32.4709 104.597 31.6025 102.716 29.8816C100.836 28.1608 99.9129 25.861 99.9129 23.0947C99.9129 20.3285 100.853 17.9001 102.716 16.2114C104.58 14.5227 107.054 13.6543 110.056 13.6543C113.322 13.6543 115.894 14.6996 117.725 16.8387C119.407 18.8007 120.298 21.4061 120.298 24.6708H105.487V24.5905Z" fill="#F8F8F8"></path><path d="M18.1393 13.0438L23.4237 9.1707L23.3453 8.95117C13.7958 10.1116 9.4837 10.9583 1.26709 15.7095L1.34549 15.929H2.00408C1.87863 17.4813 1.87863 19.0808 1.95704 20.6332C1.0162 23.2518 1.90999 25.0864 2.75674 27.0309C2.88218 24.9924 2.88218 22.7657 2.27065 20.5861C2.19224 19.0338 2.19224 17.4813 2.31769 15.929L7.79019 15.976C7.79019 17.0423 7.83723 18.1086 7.96268 19.1749C12.855 20.8684 17.7473 19.1749 20.319 14.9568C19.5192 14.1571 18.1393 13.0438 18.1393 13.0438Z" fill="#F8F8F8"></path></g><defs><clipPath id="clip0_6144_1964"><rect width="120" height="32" fill="white" transform="translate(0.920715 0.919922)"></rect></clipPath></defs></svg>