<svg xmlns="http://www.w3.org/2000/svg" width="134" height="33" viewBox="0 0 134 33" fill="none"><path d="M49.3896 32.6139V19.1455H54.0556C54.6568 19.1455 55.224 19.2476 55.7571 19.448C56.2902 19.6484 56.7553 19.932 57.1599 20.295C57.5607 20.658 57.8783 21.0928 58.109 21.6033C58.3396 22.1099 58.4568 22.6733 58.4568 23.2859C58.4568 23.8984 58.3396 24.4429 58.109 24.9496C57.8783 25.4562 57.5607 25.8948 57.1599 26.2578C56.7591 26.6208 56.2902 26.9044 55.7571 27.1048C55.224 27.3052 54.6568 27.4073 54.0556 27.4073H51.5147V32.6177H49.3896V32.6139ZM54.1123 25.3731C54.4639 25.3731 54.7778 25.3126 55.0538 25.1953C55.3298 25.0781 55.5605 24.9155 55.7495 24.7151C55.9386 24.5147 56.0823 24.2879 56.1806 24.0383C56.2827 23.7888 56.3318 23.5354 56.3318 23.2859C56.3318 23.0212 56.2827 22.7641 56.1806 22.5145C56.0785 22.265 55.9348 22.0419 55.7495 21.8452C55.5605 21.6524 55.3298 21.4898 55.0538 21.365C54.7778 21.2403 54.4639 21.176 54.1123 21.176H51.5147V25.3693H54.1123V25.3731Z" fill="#F8F8F8"></path><path d="M65.4633 31.4834H65.3498C65.0738 31.8464 64.7146 32.1753 64.276 32.4702C63.8374 32.7652 63.2778 32.9126 62.601 32.9126C62.1132 32.9126 61.6557 32.8332 61.2284 32.6782C60.8011 32.5232 60.4306 32.3039 60.1167 32.0203C59.8029 31.7367 59.5571 31.4077 59.3756 31.0221C59.1941 30.6402 59.1034 30.2167 59.1034 29.7516C59.1034 29.2638 59.2017 28.8252 59.3945 28.4358C59.5874 28.0463 59.8596 27.7211 60.2037 27.4565C60.5478 27.1918 60.9599 26.9876 61.4364 26.8439C61.9128 26.7002 62.427 26.6284 62.9791 26.6284C63.5916 26.6284 64.1058 26.6889 64.5218 26.8061C64.9339 26.9271 65.2478 27.0367 65.4633 27.1351V26.7758C65.4633 26.4998 65.4028 26.2427 65.2856 26.0045C65.1646 25.7663 65.002 25.5621 64.7978 25.3919C64.5936 25.2218 64.3554 25.0895 64.0907 24.9987C63.826 24.9042 63.55 24.8588 63.2627 24.8588C62.7976 24.8588 62.3816 24.9496 62.0111 25.131C61.6405 25.3125 61.3116 25.6037 61.0242 26.0045L59.3681 24.9117C59.8067 24.3105 60.3512 23.8568 61.0053 23.5467C61.6557 23.2405 62.3968 23.0854 63.2248 23.0854C64.5898 23.0854 65.6486 23.4258 66.3934 24.1026C67.1383 24.7794 67.5127 25.7474 67.5127 26.9989V32.6026H65.4633V31.4758V31.4834ZM65.4633 28.7761C65.1873 28.6135 64.881 28.4811 64.5407 28.3828C64.2004 28.2807 63.8147 28.2316 63.3761 28.2316C62.7257 28.2316 62.2039 28.3828 61.8145 28.6815C61.425 28.984 61.2322 29.347 61.2322 29.7743C61.2322 30.0012 61.2813 30.1978 61.3834 30.3679C61.4855 30.5381 61.6103 30.6855 61.7691 30.8103C61.9241 30.9351 62.1094 31.0296 62.3136 31.0939C62.5215 31.1582 62.7295 31.1884 62.945 31.1884C63.2853 31.1884 63.6067 31.1242 63.913 30.9918C64.2193 30.8595 64.4877 30.6856 64.7108 30.4662C64.9377 30.2469 65.1192 29.9936 65.2553 29.7062C65.3914 29.4189 65.4633 29.1126 65.4633 28.7836V28.7761Z" fill="#F8F8F8"></path><path d="M71.3506 24.9381H71.464C71.7136 24.4126 72.0955 24.0042 72.6021 23.7168C73.1088 23.4295 73.6722 23.2858 74.2848 23.2858C74.4852 23.2858 74.6326 23.2933 74.7271 23.3047C74.8217 23.316 74.92 23.3349 75.0183 23.3614V25.4675C74.8784 25.4184 74.7461 25.3843 74.6137 25.3654C74.4814 25.3465 74.3112 25.3389 74.0957 25.3389C73.3054 25.3389 72.6702 25.5809 72.1862 26.0649C71.7022 26.5489 71.4602 27.1841 71.4602 27.9744V32.7727H69.373V23.5543H71.3468V24.9457L71.3506 24.9381ZM77.839 25.2406H76.2207V23.3954H77.839V20.5747H79.9262V23.3954H82.2025V25.2406H79.9262V29.4528C79.9262 29.6835 79.9527 29.899 80.0018 30.0918C80.051 30.2847 80.1266 30.4473 80.2287 30.5758C80.4405 30.8216 80.7127 30.9426 81.0379 30.9426C81.2383 30.9426 81.3933 30.9275 81.5067 30.8972C81.6202 30.867 81.7374 30.8178 81.8622 30.7573L82.5012 32.6025C82.2365 32.7046 81.9605 32.7802 81.6731 32.837C81.3857 32.8937 81.0568 32.9201 80.6938 32.9201C80.2552 32.9201 79.8657 32.8483 79.5292 32.7084C79.1927 32.5685 78.894 32.3757 78.6444 32.1337C78.1037 31.5816 77.8352 30.8367 77.8352 29.8877V25.2444L77.839 25.2406Z" fill="#F8F8F8"></path><path d="M85.6585 24.6394H85.7719C86.0479 24.2008 86.4411 23.834 86.9478 23.5391C87.4545 23.2441 88.0292 23.0967 88.6682 23.0967C89.8328 23.0967 90.7063 23.4445 91.2848 24.1403C91.8595 24.836 92.1507 25.7624 92.1507 26.9156V32.6138H90.0635V27.1954C90.0635 26.3938 89.8782 25.8304 89.5077 25.5128C89.1371 25.1914 88.6531 25.0326 88.0481 25.0326C87.6851 25.0326 87.3637 25.1082 87.0877 25.2595C86.8117 25.4107 86.5735 25.6149 86.3731 25.872C86.1727 26.1292 86.0214 26.4241 85.9231 26.7568C85.821 27.0896 85.7719 27.4374 85.7719 27.8004V32.6176H83.6847V23.3992H85.6585V24.6394Z" fill="#F8F8F8"></path><path d="M102.496 30.4133C102.106 31.128 101.554 31.7254 100.84 32.2018C100.125 32.6782 99.2478 32.9164 98.208 32.9164C97.5198 32.9164 96.8808 32.7954 96.2985 32.5497C95.7162 32.3039 95.2095 31.9636 94.786 31.525C94.3588 31.0864 94.026 30.5683 93.7878 29.9747C93.5496 29.3811 93.4324 28.7231 93.4324 28.0085C93.4324 27.343 93.5458 26.7154 93.7727 26.1179C93.9996 25.5243 94.3134 25.0025 94.7217 24.5563C95.1301 24.1102 95.6217 23.7585 96.1964 23.4938C96.7711 23.2291 97.4139 23.1006 98.1134 23.1006C98.8129 23.1006 99.4633 23.2216 100.023 23.4598C100.583 23.698 101.055 24.0307 101.445 24.458C101.834 24.8853 102.133 25.3995 102.337 26.0007C102.541 26.6019 102.647 27.2598 102.647 27.9745V28.1446C102.636 28.2089 102.628 28.2656 102.628 28.3148C102.617 28.3639 102.609 28.4169 102.609 28.466H95.5196C95.5574 28.9046 95.6633 29.2865 95.841 29.6117C96.0149 29.9369 96.2342 30.2091 96.4913 30.4209C96.7484 30.6326 97.032 30.7914 97.3459 30.8897C97.6597 30.9918 97.966 31.041 98.2685 31.041C98.8697 31.041 99.365 30.8973 99.7544 30.6099C100.144 30.3226 100.462 29.9634 100.715 29.5361L102.503 30.4209L102.496 30.4133ZM100.56 26.859C100.533 26.67 100.477 26.462 100.382 26.2276C100.288 25.9969 100.144 25.7814 99.9511 25.5886C99.7582 25.3957 99.5049 25.2294 99.1986 25.0895C98.8923 24.9533 98.518 24.8815 98.0794 24.8815C97.4782 24.8815 96.9602 25.0592 96.5291 25.4184C96.0981 25.7776 95.8032 26.2541 95.6557 26.859H100.564H100.56Z" fill="#F8F8F8"></path><path d="M104.027 23.3951H106.001V24.7866H106.114C106.228 24.5484 106.379 24.3253 106.576 24.1173C106.772 23.9094 106.988 23.7354 107.234 23.588C107.479 23.4443 107.737 23.3233 108.005 23.2288C108.273 23.1342 108.534 23.0889 108.784 23.0889C109.086 23.0889 109.344 23.1191 109.555 23.1758C109.767 23.2326 109.964 23.312 110.138 23.4103L109.536 25.3084C109.396 25.2441 109.245 25.1987 109.075 25.1685C108.905 25.1382 108.701 25.1231 108.462 25.1231C108.122 25.1231 107.812 25.1912 107.532 25.3311C107.249 25.471 107.003 25.66 106.787 25.8983C106.576 26.1365 106.409 26.4201 106.288 26.749C106.167 27.078 106.111 27.4221 106.111 27.7888V32.6098H104.023V23.3914L104.027 23.3951Z" fill="#F8F8F8"></path><path d="M59.247 6.64457C59.247 8.06628 58.8273 9.19685 57.9841 10.04C57.0388 11.042 55.791 11.5449 54.2483 11.5449C52.7056 11.5449 51.5221 11.0345 50.4974 10.0098C49.4765 8.98888 48.9623 7.72976 48.9623 6.23243C48.9623 4.7351 49.4727 3.47598 50.4974 2.45507C51.5183 1.43416 52.7699 0.919922 54.2483 0.919922C54.997 0.919922 55.7003 1.05226 56.3658 1.31694C57.0275 1.58162 57.5719 1.95595 57.9992 2.43994L57.0615 3.37766C56.7477 2.99955 56.3431 2.70462 55.8477 2.4891C55.3524 2.27735 54.8193 2.1677 54.2483 2.1677C53.1404 2.1677 52.2027 2.54959 51.4351 3.31717C50.6789 4.0923 50.3008 5.06406 50.3008 6.22865C50.3008 7.39324 50.6789 8.36499 51.4351 9.14013C52.2027 9.9077 53.1404 10.2896 54.2483 10.2896C55.2617 10.2896 56.1049 10.006 56.7779 9.43884C57.4509 8.87167 57.8366 8.08897 57.9425 7.09453H54.2483V5.87322H59.1751C59.2205 6.1379 59.247 6.39502 59.247 6.64079V6.64457Z" fill="#F8F8F8"></path><path d="M60.1432 7.8354C60.1432 6.76534 60.4797 5.88055 61.1528 5.18104C61.8334 4.48153 62.6917 4.12988 63.7239 4.12988C64.7562 4.12988 65.6069 4.48153 66.28 5.18104C66.9606 5.88055 67.3009 6.76534 67.3009 7.8354C67.3009 8.90547 66.9606 9.8016 66.28 10.4898C65.6069 11.1893 64.7562 11.5409 63.7239 11.5409C62.6917 11.5409 61.8334 11.1893 61.1528 10.4898C60.4797 9.79026 60.1432 8.90547 60.1432 7.8354ZM61.4515 7.8354C61.4515 8.58407 61.6708 9.18905 62.1056 9.65413C62.5404 10.1192 63.0811 10.3499 63.7239 10.3499C64.3667 10.3499 64.9074 10.1192 65.3423 9.65413C65.7771 9.18905 65.9964 8.58407 65.9964 7.8354C65.9964 7.08674 65.7771 6.49688 65.3423 6.0318C64.8961 5.55915 64.3592 5.32094 63.7239 5.32094C63.0887 5.32094 62.5518 5.55915 62.1056 6.0318C61.6708 6.49688 61.4515 7.09808 61.4515 7.8354Z" fill="#F8F8F8"></path><path d="M68.0951 7.8354C68.0951 6.76534 68.4316 5.88055 69.1047 5.18104C69.7853 4.48153 70.6436 4.12988 71.6758 4.12988C72.7081 4.12988 73.5589 4.48153 74.2319 5.18104C74.9125 5.88055 75.2528 6.76534 75.2528 7.8354C75.2528 8.90547 74.9125 9.8016 74.2319 10.4898C73.5589 11.1893 72.7081 11.5409 71.6758 11.5409C70.6436 11.5409 69.7853 11.1893 69.1047 10.4898C68.4316 9.79026 68.0951 8.90547 68.0951 7.8354ZM69.4034 7.8354C69.4034 8.58407 69.6227 9.18905 70.0575 9.65413C70.4923 10.1192 71.033 10.3499 71.6758 10.3499C72.3186 10.3499 72.8593 10.1192 73.2942 9.65413C73.729 9.18905 73.9483 8.58407 73.9483 7.8354C73.9483 7.08674 73.729 6.49688 73.2942 6.0318C72.848 5.55915 72.3111 5.32094 71.6758 5.32094C71.0406 5.32094 70.5037 5.55915 70.0575 6.0318C69.6227 6.49688 69.4034 7.09808 69.4034 7.8354Z" fill="#F8F8F8"></path><path d="M79.5292 14.6112C79.1397 14.6112 78.7767 14.5621 78.4364 14.4637C78.0961 14.3654 77.7861 14.2255 77.5063 14.044C77.2265 13.8625 76.9883 13.6508 76.7879 13.405C76.5875 13.1593 76.4362 12.8832 76.3341 12.5807L77.5706 12.0703C77.7142 12.4786 77.96 12.8038 78.3079 13.0496C78.6595 13.2954 79.0641 13.4202 79.5292 13.4202C80.24 13.4202 80.7921 13.2084 81.1891 12.7811C81.5861 12.3539 81.7865 11.7678 81.7865 11.0191V10.3499H81.7298C81.484 10.7204 81.1513 11.0116 80.7278 11.2233C80.3081 11.4351 79.8506 11.5447 79.359 11.5447C78.4516 11.5447 77.6689 11.1893 77.0147 10.4784C76.3719 9.74866 76.0505 8.86766 76.0505 7.8354C76.0505 6.80315 76.3719 5.92593 77.0147 5.20751C77.6689 4.48909 78.4478 4.12988 79.359 4.12988C79.8506 4.12988 80.3081 4.23575 80.7278 4.45128C81.1475 4.66302 81.484 4.95417 81.7298 5.32472H81.7865V4.36053H83.0381V11.0229C83.0381 12.1383 82.7205 13.0156 82.0852 13.6508C81.4424 14.2936 80.5879 14.615 79.5292 14.615V14.6112ZM79.5708 10.3499C80.2136 10.3499 80.7392 10.1192 81.1475 9.65413C81.5748 9.18905 81.7865 8.58407 81.7865 7.8354C81.7865 7.08674 81.5748 6.50444 81.1475 6.0318C80.7316 5.55915 80.206 5.32094 79.5708 5.32094C78.9355 5.32094 78.4213 5.55915 77.994 6.0318C77.5668 6.50444 77.355 7.10564 77.355 7.8354C77.355 8.56516 77.5668 9.17393 77.994 9.63901C78.4213 10.1117 78.9469 10.3499 79.5708 10.3499Z" fill="#F8F8F8"></path><path d="M85.9344 1.14648V11.314H84.6261V1.14648H85.9344Z" fill="#F8F8F8"></path><path d="M90.5776 11.5448C89.5567 11.5448 88.7135 11.1932 88.048 10.4937C87.3863 9.79416 87.0536 8.90937 87.0536 7.83931C87.0536 6.76925 87.375 5.8958 88.0178 5.19251C88.6606 4.48544 89.4849 4.13379 90.4906 4.13379C91.4964 4.13379 92.3434 4.46653 92.956 5.13579C93.5647 5.80506 93.871 6.739 93.871 7.9414L93.8559 8.08508H88.3883C88.4072 8.76569 88.6341 9.31774 89.0689 9.73366C89.5038 10.1496 90.0256 10.3576 90.6305 10.3576C91.4624 10.3576 92.1165 9.94163 92.5892 9.10599L93.7538 9.67317C93.4399 10.2592 93.0089 10.7205 92.4531 11.0495C91.901 11.3822 91.2734 11.5448 90.5701 11.5448H90.5776ZM88.4904 6.9999H92.4795C92.4417 6.51591 92.2451 6.11889 91.8897 5.80127C91.5342 5.48366 91.0578 5.32485 90.4642 5.32485C89.9726 5.32485 89.5491 5.4761 89.1937 5.77859C88.8383 6.08108 88.6039 6.48944 88.4904 6.9999Z" fill="#F8F8F8"></path><path d="M102.919 11.5449C101.414 11.5449 100.155 11.0383 99.142 10.0249C98.14 9.01157 97.6371 7.74867 97.6371 6.23243C97.6371 4.71619 98.14 3.45707 99.142 2.45507C100.144 1.43416 101.403 0.919922 102.919 0.919922C104.436 0.919922 105.698 1.47197 106.655 2.57984L105.717 3.48732C104.988 2.60631 104.057 2.1677 102.919 2.1677C101.781 2.1677 100.851 2.54581 100.095 3.30204C99.3462 4.05071 98.9718 5.02624 98.9718 6.22865C98.9718 7.43105 99.3462 8.40659 100.095 9.15525C100.851 9.91148 101.793 10.2896 102.919 10.2896C104.103 10.2896 105.131 9.79427 106.001 8.79983L106.954 9.72243C106.47 10.3009 105.88 10.7471 105.18 11.0647C104.481 11.3823 103.729 11.5412 102.923 11.5412L102.919 11.5449Z" fill="#F8F8F8"></path><path d="M109.423 1.14648V11.314H108.115V1.14648H109.423Z" fill="#F8F8F8"></path><path d="M110.546 7.8354C110.546 6.76534 110.882 5.88055 111.555 5.18104C112.236 4.48153 113.094 4.12988 114.127 4.12988C115.159 4.12988 116.01 4.48153 116.683 5.18104C117.363 5.88055 117.704 6.76534 117.704 7.8354C117.704 8.90547 117.363 9.8016 116.683 10.4898C116.01 11.1893 115.159 11.5409 114.127 11.5409C113.094 11.5409 112.236 11.1893 111.555 10.4898C110.882 9.79026 110.546 8.90547 110.546 7.8354ZM111.854 7.8354C111.854 8.58407 112.073 9.18905 112.508 9.65413C112.943 10.1192 113.484 10.3499 114.127 10.3499C114.769 10.3499 115.31 10.1192 115.745 9.65413C116.18 9.18905 116.399 8.58407 116.399 7.8354C116.399 7.08674 116.18 6.49688 115.745 6.0318C115.299 5.55915 114.762 5.32094 114.127 5.32094C113.491 5.32094 112.954 5.55915 112.508 6.0318C112.073 6.49688 111.854 7.09808 111.854 7.8354Z" fill="#F8F8F8"></path><path d="M124.929 11.3177H123.678V10.3535H123.621C123.421 10.6938 123.118 10.9774 122.706 11.2042C122.294 11.4311 121.867 11.5445 121.42 11.5445C120.57 11.5445 119.912 11.3025 119.454 10.8148C118.997 10.327 118.766 9.63505 118.766 8.73514V4.36035H120.074V8.64817C120.105 9.78251 120.676 10.3535 121.791 10.3535C122.313 10.3535 122.748 10.1417 123.099 9.72201C123.451 9.30231 123.625 8.79563 123.625 8.20956V4.36035H124.933V11.3177H124.929Z" fill="#F8F8F8"></path><path d="M129.361 11.5448C128.453 11.5448 127.671 11.1855 127.017 10.4671C126.374 9.73737 126.052 8.86392 126.052 7.83923C126.052 6.81454 126.374 5.9411 127.017 5.21134C127.671 4.49292 128.45 4.13371 129.361 4.13371C129.871 4.13371 130.336 4.24337 130.76 4.45889C131.18 4.6782 131.505 4.96557 131.732 5.32477H131.788L131.732 4.36058V1.15039H133.04V11.3179H131.788V10.3537H131.732C131.505 10.7129 131.18 11.0041 130.76 11.2196C130.34 11.4351 129.871 11.5448 129.361 11.5448ZM129.573 10.3499C130.215 10.3499 130.741 10.1193 131.149 9.65418C131.577 9.1891 131.788 8.58412 131.788 7.83545C131.788 7.08679 131.577 6.50449 131.149 6.03185C130.733 5.5592 130.208 5.32099 129.573 5.32099C128.937 5.32099 128.423 5.5592 127.996 6.03185C127.569 6.50449 127.357 7.10569 127.357 7.83545C127.357 8.56521 127.569 9.17398 127.996 9.63906C128.423 10.1117 128.949 10.3499 129.573 10.3499Z" fill="#F8F8F8"></path><path d="M23.5418 11.9795L24.6837 12.0022L27.7804 8.90542L27.9317 7.59336C25.4701 5.40408 22.2297 4.06934 18.683 4.06934C12.2626 4.06934 6.84423 8.43656 5.23724 14.3578C5.57755 14.1234 6.29596 14.2973 6.29596 14.2973L12.4895 13.2802C12.4895 13.2802 12.8109 12.7546 12.9697 12.7849C14.3876 11.2346 16.4219 10.2591 18.683 10.2591C20.5206 10.2591 22.2108 10.9056 23.5418 11.9795Z" fill="#F8F8F8"></path><path d="M32.1287 14.3617C31.4103 11.7074 29.9243 9.36686 27.9279 7.58594L23.538 11.9758C25.2962 13.3976 26.423 15.5679 26.423 17.9954V18.7706C28.5555 18.7706 30.2911 20.5061 30.2911 22.6387C30.2911 24.7712 28.5555 26.5068 26.4192 26.5068H18.6792L17.9041 27.2857V31.9289L18.6792 32.7003H26.4192C31.9661 32.7003 36.4808 28.1856 36.4808 22.6387C36.4808 19.2092 34.7528 16.1767 32.1249 14.358L32.1287 14.3617Z" fill="#F8F8F8"></path><path d="M10.943 32.7001H18.6754V26.5066H10.943C10.3758 26.5066 9.83512 26.3818 9.34735 26.1587L8.23191 26.499L5.13137 29.5995L4.85913 30.6469C6.5493 31.9325 8.6554 32.7001 10.9392 32.7001H10.943Z" fill="#F8F8F8"></path><path d="M10.943 12.5771C5.39603 12.5771 0.881348 17.0918 0.881348 22.6388C0.881348 25.9057 2.44674 28.8134 4.86667 30.651L9.35489 26.1628C8.01259 25.554 7.07486 24.2042 7.07486 22.6388C7.07486 20.5062 8.81041 18.7707 10.943 18.7707C12.5121 18.7707 13.862 19.7084 14.467 21.0507L18.9552 16.5625C17.1176 14.1425 14.2099 12.5771 10.943 12.5771Z" fill="#F8F8F8"></path></svg>