<svg xmlns="http://www.w3.org/2000/svg" width="149" height="35" viewBox="0 0 149 35" fill="none"><g clip-path="url(#clip0_6144_1999)"><mask id="mask0_6144_1999" style="mask-type:luminance" maskUnits="userSpaceOnUse" x="0" y="0" width="149" height="35"><path d="M148.677 0.919922H0.297363V34.5299H148.677V0.919922Z" fill="white"></path></mask><g mask="url(#mask0_6144_1999)"><path d="M0.33713 24.2785C0.21713 24.5985 0.37713 24.6685 0.42713 24.7285C0.79713 24.9885 1.17713 25.1885 1.55713 25.4085C3.57713 26.4685 5.46713 26.7885 7.44713 26.7885C11.4871 26.7885 14.0071 24.6385 14.0071 21.1885V21.1185C14.0071 17.9285 11.1671 16.7585 8.51713 15.9185L8.16713 15.8085C6.16713 15.1585 4.42713 14.5985 4.42713 13.2785V13.2085C4.42713 12.0785 5.43713 11.2485 7.00713 11.2485C8.74713 11.2485 10.8171 11.8285 12.1471 12.5585C12.1471 12.5585 12.5371 12.8085 12.6771 12.4385C12.7571 12.2385 13.4271 10.4185 13.4971 10.2285C13.5771 10.0085 13.4471 9.84852 13.3071 9.77852C11.7871 8.84852 9.68713 8.22852 7.50713 8.22852H7.10713C3.40713 8.22852 0.82713 10.4585 0.82713 13.6685V13.7385C0.82713 17.1085 3.67713 18.2085 6.35713 18.9785L6.78713 19.1085C8.72713 19.7085 10.3971 20.2185 10.3971 21.5885V21.6585C10.3971 22.9085 9.30713 23.8385 7.54713 23.8385C6.86713 23.8385 4.69713 23.8185 2.34713 22.3385C2.05713 22.1685 1.89713 22.0485 1.67713 21.9185C1.56713 21.8485 1.27713 21.7185 1.14713 22.0985L0.33713 24.2785Z" fill="#F8F8F8"></path><path d="M59.5051 24.2804C59.3851 24.6004 59.5451 24.6704 59.5951 24.7304C59.9651 24.9904 60.3351 25.1904 60.7251 25.4104C62.7351 26.4704 64.6351 26.7904 66.6151 26.7904C70.6551 26.7904 73.1651 24.6404 73.1651 21.1904V21.1204C73.1651 17.9304 70.3251 16.7604 67.6751 15.9204L67.3251 15.8104C65.3251 15.1604 63.5851 14.6004 63.5851 13.2804V13.2104C63.5851 12.0804 64.5951 11.2504 66.1651 11.2504C67.9051 11.2504 69.9751 11.8304 71.2951 12.5604C71.2951 12.5604 71.6851 12.8104 71.8251 12.4404C71.9051 12.2404 72.5751 10.4205 72.6451 10.2305C72.7251 10.0105 72.5851 9.85047 72.4551 9.78047C70.9351 8.85047 68.8351 8.23047 66.6551 8.23047H66.2551C62.5551 8.23047 59.9751 10.4605 59.9751 13.6704V13.7404C59.9751 17.1104 62.8251 18.2104 65.4951 18.9804L65.9251 19.1104C67.8651 19.7104 69.5451 20.2204 69.5451 21.5904V21.6604C69.5451 22.9104 68.4551 23.8404 66.6951 23.8404C66.0151 23.8404 63.8451 23.8204 61.4951 22.3404C61.2051 22.1704 61.0451 22.0604 60.8251 21.9204C60.7451 21.8704 60.4151 21.7404 60.2951 22.1004L59.5051 24.3104H59.5251L59.5051 24.2804Z" fill="#F8F8F8"></path><path d="M99.9074 17.5095C99.9074 19.4595 99.5374 21.0095 98.8274 22.0895C98.1074 23.1595 97.0374 23.6895 95.5374 23.6895C94.0374 23.6895 92.9674 23.1695 92.2774 22.0895C91.5674 20.9995 91.2174 19.4495 91.2174 17.5095C91.2174 15.5695 91.5774 14.0195 92.2774 12.9395C92.9774 11.8795 94.0474 11.3495 95.5374 11.3495C97.0274 11.3495 98.1174 11.8595 98.8274 12.9395C99.5474 14.0095 99.9074 15.5495 99.9074 17.5095ZM103.277 13.8795C102.947 12.7495 102.427 11.7695 101.737 10.9495C101.047 10.1295 100.187 9.46953 99.1474 8.98953C98.1174 8.50953 96.9074 8.26953 95.5374 8.26953C94.1674 8.26953 92.9574 8.50953 91.9274 8.98953C90.8974 9.46953 90.0274 10.1295 89.3374 10.9595C88.6474 11.7795 88.1374 12.7695 87.7974 13.8895C87.4674 14.9995 87.2974 16.2195 87.2974 17.5195C87.2974 18.8195 87.4674 20.0295 87.7974 21.1495C88.1274 22.2695 88.6474 23.2495 89.3374 24.0795C90.0274 24.8995 90.8974 25.5595 91.9274 26.0395C92.9574 26.5095 94.1774 26.7495 95.5374 26.7495C96.8974 26.7495 98.1174 26.5095 99.1474 26.0395C100.177 25.5695 101.047 24.9095 101.737 24.0795C102.427 23.2495 102.937 22.2695 103.277 21.1495C103.607 20.0295 103.777 18.8195 103.777 17.5195C103.777 16.2195 103.607 15.0095 103.277 13.8895" fill="#F8F8F8"></path><path fill-rule="evenodd" clip-rule="evenodd" d="M130.977 23.1697C130.867 22.8397 130.547 22.9697 130.547 22.9697C130.047 23.1597 129.537 23.3297 128.977 23.4197C128.417 23.5097 127.797 23.5497 127.127 23.5497C125.497 23.5497 124.197 23.0697 123.267 22.1097C122.337 21.1497 121.817 19.5997 121.817 17.4997C121.817 15.5897 122.287 14.1497 123.117 13.0597C123.937 11.9697 125.197 11.4097 126.857 11.4097C128.247 11.4097 129.317 11.5697 130.427 11.9197C130.427 11.9197 130.687 12.0397 130.817 11.6897C131.117 10.8698 131.337 10.2798 131.647 9.38977C131.737 9.12977 131.517 9.01977 131.437 8.99977C130.997 8.82977 129.957 8.54977 129.187 8.42977C128.467 8.31977 127.607 8.25977 126.657 8.25977C125.247 8.25977 123.977 8.49977 122.897 8.97977C121.827 9.44977 120.907 10.1098 120.187 10.9397C119.467 11.7697 118.917 12.7497 118.547 13.8697C118.177 14.9797 117.997 16.1997 117.997 17.4997C117.997 20.2997 118.747 22.5597 120.237 24.2097C121.737 25.8697 123.977 26.7197 126.907 26.7197C128.637 26.7197 130.407 26.3697 131.677 25.8597C131.677 25.8597 131.917 25.7497 131.817 25.4597L130.987 23.1697H130.967H130.977Z" fill="#F8F8F8"></path><path fill-rule="evenodd" clip-rule="evenodd" d="M136.869 15.6295C137.029 14.5395 137.329 13.6495 137.799 12.9295C138.499 11.8695 139.559 11.2695 141.059 11.2695C142.559 11.2695 143.549 11.8495 144.259 12.9295C144.729 13.6395 144.929 14.5795 145.009 15.6295H136.869ZM148.239 13.2495C147.949 12.1695 147.239 11.0795 146.779 10.5795C146.039 9.78953 145.319 9.23953 144.609 8.92953C143.679 8.52953 142.559 8.26953 141.339 8.26953C139.919 8.26953 138.629 8.50953 137.569 8.98953C136.519 9.48953 135.639 10.1595 134.939 10.9995C134.249 11.8295 133.729 12.8295 133.399 13.9695C133.069 15.0995 132.899 16.3195 132.899 17.6095C132.899 18.8995 133.069 20.1595 133.409 21.2595C133.749 22.3695 134.309 23.3495 135.059 24.1695C135.809 24.9895 136.779 25.6295 137.929 26.0695C139.069 26.5095 140.469 26.7395 142.079 26.7395C145.379 26.7395 147.119 25.9895 147.829 25.5995C147.949 25.5295 148.069 25.4095 147.929 25.0495L147.179 22.9595C147.069 22.6495 146.749 22.7695 146.749 22.7695C145.929 23.0795 144.769 23.6195 142.059 23.6195C140.289 23.6195 138.979 23.0895 138.149 22.2795C137.299 21.4395 136.889 20.2095 136.819 18.4695H148.239C148.239 18.4695 148.539 18.4695 148.569 18.1795C148.589 18.0595 148.959 15.8295 148.229 13.2595" fill="#F8F8F8"></path><path fill-rule="evenodd" clip-rule="evenodd" d="M45.3867 15.6295C45.5467 14.5395 45.8467 13.6495 46.3167 12.9295C47.0267 11.8695 48.0767 11.2695 49.5767 11.2695C51.0767 11.2695 52.0667 11.8495 52.7767 12.9295C53.2467 13.6395 53.4467 14.5795 53.5367 15.6295H45.3867ZM56.7667 13.2495C56.4767 12.1695 55.7667 11.0795 55.3067 10.5795C54.5667 9.78953 53.8567 9.23953 53.1367 8.92953C52.2067 8.52953 51.0867 8.26953 49.8667 8.26953C48.4467 8.26953 47.1567 8.50953 46.0967 8.98953C45.0367 9.48953 44.1567 10.1595 43.4567 10.9995C42.7667 11.8295 42.2467 12.8295 41.9167 13.9695C41.5867 15.0995 41.4067 16.3195 41.4067 17.6095C41.4067 18.8995 41.5767 20.1595 41.9167 21.2595C42.2667 22.3695 42.8167 23.3495 43.5667 24.1695C44.3167 24.9795 45.2867 25.6295 46.4367 26.0695C47.5867 26.5095 48.9767 26.7395 50.5867 26.7395C53.8867 26.7395 55.6267 25.9895 56.3367 25.5995C56.4567 25.5295 56.5867 25.4095 56.4367 25.0495L55.6967 22.9595C55.5867 22.6495 55.2667 22.7695 55.2667 22.7695C54.4467 23.0795 53.2867 23.6195 50.5767 23.6195C48.8067 23.6195 47.4967 23.0895 46.6667 22.2795C45.8167 21.4395 45.3967 20.2095 45.3367 18.4695H56.7567C56.7567 18.4695 57.0567 18.4695 57.0767 18.1795C57.0967 18.0595 57.4667 15.8295 56.7367 13.2595" fill="#F8F8F8"></path><path d="M20.7156 23.13C20.2656 22.77 20.2056 22.68 20.0656 22.46C19.8356 22.1 19.7256 21.61 19.7256 20.97C19.7256 19.97 20.0556 19.25 20.7456 18.76C20.7456 18.76 21.7356 17.9 24.0556 17.93C25.6956 17.95 27.1556 18.19 27.1556 18.19V23.39C27.1556 23.39 25.7056 23.7 24.0756 23.8C21.7556 23.93 20.7256 23.13 20.7256 23.13H20.7156ZM25.2856 15.09C24.8256 15.06 24.2256 15.04 23.4956 15.04C22.5156 15.04 21.5756 15.16 20.6856 15.4C19.7956 15.64 18.9956 16.01 18.3056 16.51C17.6156 17.01 17.0556 17.64 16.6456 18.39C16.2456 19.14 16.0356 20.04 16.0356 21.03C16.0356 22.02 16.2156 22.92 16.5556 23.64C16.9056 24.36 17.4156 24.96 18.0456 25.43C18.6856 25.89 19.4556 26.23 20.3656 26.43C21.2656 26.63 22.2756 26.74 23.3956 26.74C24.5156 26.74 25.7256 26.64 26.8656 26.45C27.9856 26.26 29.3656 25.98 29.7356 25.89C30.1056 25.8 30.5356 25.69 30.5356 25.69C30.8156 25.62 30.7956 25.32 30.7956 25.32V14.87C30.7956 12.58 30.1756 10.88 28.9756 9.83C27.7756 8.77 26.0056 8.25 23.7256 8.25C22.8656 8.25 21.4956 8.37 20.6656 8.54C20.6656 8.54 18.1656 9.02 17.1356 9.82C17.1356 9.82 16.9056 9.96 17.0356 10.27L17.8456 12.44C17.9456 12.72 18.2256 12.62 18.2256 12.62C18.2256 12.62 18.3156 12.59 18.4056 12.53C20.6056 11.33 23.3856 11.37 23.3856 11.37C24.6156 11.37 25.5656 11.62 26.2056 12.11C26.8256 12.59 27.1356 13.31 27.1356 14.83V15.31C26.1556 15.17 25.2556 15.09 25.2556 15.09" fill="#F8F8F8"></path><path fill-rule="evenodd" clip-rule="evenodd" d="M117.386 9.19019C117.476 8.93019 117.286 8.81019 117.216 8.78019C117.026 8.70019 116.046 8.50019 115.306 8.45019C113.866 8.36019 113.076 8.61019 112.356 8.93019C111.646 9.24019 110.866 9.76019 110.426 10.3502V8.95019C110.426 8.76019 110.286 8.61019 110.096 8.61019H107.176C106.986 8.61019 106.856 8.76019 106.856 8.95019V25.9902C106.856 26.1802 107.016 26.3402 107.196 26.3402H110.186C110.376 26.3402 110.526 26.1802 110.526 25.9902V17.4802C110.526 16.3402 110.656 15.2002 110.906 14.4802C111.156 13.7702 111.486 13.2102 111.906 12.8002C112.316 12.4002 112.796 12.1102 113.316 11.9502C113.846 11.7802 114.436 11.7302 114.846 11.7302C115.436 11.7302 116.096 11.8902 116.096 11.8902C116.316 11.9202 116.436 11.7802 116.516 11.5802C116.706 11.0602 117.266 9.49019 117.376 9.19019" fill="#F8F8F8"></path><path fill-rule="evenodd" clip-rule="evenodd" d="M89.2269 1.29992C88.8569 1.18992 88.5269 1.11992 88.0969 1.03992C87.6569 0.949922 87.1369 0.919922 86.5469 0.919922C84.4869 0.919922 82.8569 1.49992 81.7069 2.65992C80.5769 3.79992 79.8069 5.54992 79.4069 7.83992L79.2669 8.61992H76.6769C76.6769 8.61992 76.3669 8.59992 76.2969 8.94992L75.8669 11.3199C75.8369 11.5499 75.9369 11.6899 76.2469 11.6899H78.7669L76.2069 25.9899C76.0069 27.1399 75.7769 28.0799 75.5169 28.7999C75.2669 29.5099 75.0169 30.0399 74.7269 30.4199C74.4269 30.7899 74.1569 31.0699 73.6769 31.2199C73.2869 31.3499 72.8269 31.4099 72.3369 31.4099C72.0669 31.4099 71.6869 31.3699 71.4169 31.3099C71.1469 31.2599 71.0069 31.1999 70.8069 31.1099C70.8069 31.1099 70.5069 30.9999 70.3969 31.2899C70.2969 31.5299 69.6269 33.3799 69.5469 33.6099C69.4669 33.8399 69.5769 34.0099 69.7269 34.0599C70.0569 34.1799 70.3069 34.2599 70.7669 34.3699C71.4069 34.5199 71.9369 34.5299 72.4369 34.5299C73.4869 34.5299 74.4469 34.3799 75.2369 34.0899C76.0269 33.7999 76.7269 33.2999 77.3469 32.6099C78.0069 31.8799 78.4269 31.0999 78.8269 30.0499C79.2269 29.0099 79.5669 27.7199 79.8269 26.2099L82.4069 11.6499H86.1669C86.1669 11.6499 86.4769 11.6499 86.5469 11.3199L86.9769 8.94992C87.0069 8.71992 86.9169 8.57992 86.5969 8.57992H82.9469C82.9669 8.48992 83.1269 7.20992 83.5469 5.99992C83.7269 5.47992 84.0569 5.06992 84.3469 4.78992C84.6169 4.50992 84.9469 4.30992 85.2969 4.19992C85.6569 4.07992 86.0769 4.02992 86.5169 4.02992C86.8569 4.02992 87.1969 4.05992 87.4569 4.11992C87.8069 4.19992 87.9569 4.23992 88.0369 4.26992C88.4169 4.37992 88.4669 4.26992 88.5369 4.09992L89.4069 1.69992C89.4969 1.44992 89.2769 1.32992 89.1969 1.29992" fill="#F8F8F8"></path><path fill-rule="evenodd" clip-rule="evenodd" d="M38.2078 25.9993C38.2078 26.1893 38.0778 26.3393 37.8878 26.3393H34.8578C34.6678 26.3393 34.5278 26.1793 34.5278 25.9993V1.6293C34.5278 1.4393 34.6578 1.2793 34.8578 1.2793H37.8878C38.0778 1.2793 38.2078 1.4393 38.2078 1.6293V25.9993Z" fill="#F8F8F8"></path></g></g><defs><clipPath id="clip0_6144_1999"><rect width="149" height="34" fill="white" transform="translate(0 0.919922)"></rect></clipPath></defs></svg>