<svg xmlns="http://www.w3.org/2000/svg" width="173" height="49" viewBox="0 0 173 49" fill="none"><g clip-path="url(#clip0_6144_2019)"><path d="M33.3062 34.716C30.8572 36.6749 27.4286 38.1444 24 38.1444C16.1632 38.1444 10.7755 32.2668 10.7755 24.43C10.7755 16.5934 16.1632 11.2056 24 11.2056C27.4286 11.2056 30.8572 12.1852 33.3062 14.6341L34.7755 16.1035L42.6122 8.75662L40.6529 7.28723C36.068 3.19855 30.1432 0.933132 24 0.919922C10.2857 0.919922 0 11.2056 0 24.9199C0 38.6341 10.2857 48.9199 24 48.9199C30.1432 48.9065 36.068 46.6412 40.6529 42.5525L42.6122 41.0831L34.7755 33.2463L33.3062 34.716Z" fill="#F8F8F8"></path><path d="M23.5184 32.755C27.8465 32.755 31.3552 29.2464 31.3552 24.9184C31.3552 20.5901 27.8465 17.0815 23.5184 17.0815C19.1904 17.0815 15.6817 20.5901 15.6817 24.9184C15.6817 29.2464 19.1904 32.755 23.5184 32.755Z" fill="#F8F8F8"></path><path d="M67.4404 3.115L70.4654 9.23817C70.4886 9.282 70.5222 9.31957 70.563 9.3477C70.6039 9.37583 70.6512 9.39364 70.7003 9.39969L77.4547 10.3835C77.5099 10.3952 77.561 10.4211 77.603 10.4586C77.6452 10.4961 77.6767 10.5439 77.6943 10.5974C77.7121 10.6508 77.7157 10.708 77.7046 10.7632C77.6936 10.8184 77.6682 10.8697 77.6311 10.9121L72.7415 15.6843C72.7035 15.7191 72.6756 15.7632 72.6603 15.812C72.6447 15.861 72.6421 15.9133 72.6533 15.9633L73.7985 22.6886C73.8091 22.7461 73.8028 22.8057 73.7807 22.8599C73.7584 22.9139 73.7211 22.9606 73.6735 22.9944C73.6258 23.0286 73.5695 23.0479 73.5109 23.0511C73.4525 23.054 73.3943 23.0404 73.3434 23.0117L67.3083 19.8398C67.2625 19.8178 67.2125 19.8063 67.1614 19.8063C67.1107 19.8063 67.0607 19.8178 67.0147 19.8398L60.9797 23.0117C60.9286 23.0404 60.8704 23.054 60.8121 23.0511C60.7537 23.0479 60.697 23.0286 60.6495 22.9944C60.6017 22.9606 60.5644 22.9139 60.5426 22.8599C60.5205 22.8057 60.5142 22.7461 60.5245 22.6886L61.6699 15.9633C61.6808 15.9133 61.6784 15.861 61.6631 15.812C61.6474 15.7632 61.6195 15.7191 61.5817 15.6843L56.6919 10.9121C56.655 10.8697 56.6295 10.8184 56.6184 10.7632C56.6074 10.708 56.6111 10.6508 56.6285 10.5974C56.6466 10.5439 56.678 10.4961 56.72 10.4586C56.7618 10.4211 56.813 10.3952 56.8681 10.3835L63.6227 9.39969C63.6721 9.39364 63.719 9.37583 63.76 9.3477C63.8009 9.31957 63.8346 9.282 63.8576 9.23817L66.8827 3.115C66.9075 3.06208 66.9469 3.0173 66.9964 2.98599C67.0457 2.95463 67.103 2.93799 67.1614 2.93799C67.2201 2.93799 67.2773 2.95463 67.3268 2.98599C67.3761 3.0173 67.4157 3.06208 67.4404 3.115Z" fill="#F8F8F8"></path><path d="M91.1528 3.115L94.1778 9.23818C94.201 9.282 94.2346 9.31961 94.2756 9.3477C94.3165 9.37585 94.3634 9.39366 94.4125 9.39969L101.167 10.3835C101.222 10.3952 101.273 10.4211 101.315 10.4586C101.357 10.4961 101.389 10.544 101.407 10.5974C101.424 10.6508 101.428 10.708 101.417 10.7632C101.406 10.8184 101.381 10.8697 101.344 10.9121L96.4539 15.6844C96.4161 15.7191 96.3882 15.7632 96.3725 15.8122C96.3571 15.861 96.3547 15.9133 96.3657 15.9633L97.511 22.6886C97.5213 22.7462 97.5151 22.8057 97.4929 22.8597C97.471 22.9141 97.4337 22.9608 97.3861 22.9946C97.3383 23.0284 97.2819 23.0481 97.2233 23.0511C97.1651 23.0542 97.1069 23.0404 97.0558 23.0115L91.0207 19.8398C90.9749 19.8178 90.9247 19.8063 90.874 19.8063C90.8231 19.8063 90.7729 19.8178 90.727 19.8398L84.6921 23.0115C84.6409 23.0404 84.583 23.0542 84.5246 23.0511C84.4659 23.0481 84.4096 23.0284 84.362 22.9946C84.3141 22.9608 84.277 22.9141 84.2548 22.8597C84.2327 22.8057 84.2264 22.7462 84.2371 22.6886L85.3823 15.9633C85.3931 15.9133 85.3908 15.861 85.3753 15.8122C85.36 15.7632 85.3317 15.7191 85.2941 15.6844L80.4045 10.9121C80.3674 10.8697 80.3419 10.8184 80.3309 10.7632C80.3198 10.708 80.3235 10.6508 80.3411 10.5974C80.3588 10.544 80.3904 10.4961 80.4324 10.4586C80.4744 10.4211 80.5256 10.3952 80.5805 10.3835L87.3352 9.39969C87.3844 9.39366 87.4316 9.37585 87.4724 9.3477C87.5132 9.31961 87.5468 9.282 87.57 9.23818L90.5949 3.115C90.6199 3.06207 90.6594 3.01732 90.7088 2.98597C90.7582 2.95463 90.8154 2.93799 90.874 2.93799C90.9325 2.93799 90.9897 2.95463 91.039 2.98597C91.0883 3.01732 91.1281 3.06207 91.1528 3.115Z" fill="#F8F8F8"></path><path d="M114.865 3.115L117.89 9.23817C117.914 9.282 117.947 9.31957 117.988 9.3477C118.029 9.37583 118.076 9.39364 118.125 9.39969L124.88 10.3835C124.935 10.3952 124.986 10.4211 125.028 10.4586C125.07 10.4961 125.102 10.5439 125.119 10.5974C125.137 10.6508 125.14 10.708 125.129 10.7632C125.118 10.8184 125.093 10.8697 125.056 10.9121L120.166 15.6843C120.128 15.7191 120.1 15.7632 120.085 15.812C120.07 15.861 120.067 15.9133 120.078 15.9633L121.223 22.6886C121.234 22.7461 121.228 22.8057 121.206 22.8599C121.183 22.9139 121.146 22.9606 121.098 22.9944C121.051 23.0286 120.994 23.0479 120.936 23.0511C120.877 23.054 120.819 23.0404 120.768 23.0117L114.733 19.8398C114.688 19.8178 114.637 19.8063 114.586 19.8063C114.536 19.8063 114.485 19.8178 114.439 19.8398L108.404 23.0117C108.353 23.0404 108.295 23.054 108.237 23.0511C108.179 23.0479 108.122 23.0286 108.074 22.9944C108.026 22.9606 107.989 22.9139 107.967 22.8599C107.945 22.8057 107.939 22.7461 107.949 22.6886L109.095 15.9633C109.106 15.9133 109.103 15.861 109.088 15.812C109.072 15.7632 109.044 15.7191 109.006 15.6843L104.117 10.9121C104.08 10.8697 104.054 10.8184 104.043 10.7632C104.032 10.708 104.036 10.6508 104.053 10.5974C104.071 10.5439 104.103 10.4961 104.145 10.4586C104.187 10.4211 104.238 10.3952 104.293 10.3835L111.048 9.39969C111.097 9.39364 111.144 9.37583 111.185 9.3477C111.226 9.31957 111.259 9.282 111.282 9.23817L114.307 3.115C114.332 3.06208 114.372 3.0173 114.421 2.98599C114.471 2.95463 114.528 2.93799 114.586 2.93799C114.645 2.93799 114.702 2.95463 114.752 2.98599C114.801 3.0173 114.84 3.06208 114.865 3.115Z" fill="#F8F8F8"></path><path d="M138.578 3.115L141.603 9.23817C141.626 9.282 141.66 9.31957 141.7 9.3477C141.742 9.37583 141.788 9.39364 141.838 9.39969L148.592 10.3835C148.648 10.3952 148.698 10.4211 148.74 10.4586C148.782 10.4961 148.814 10.5439 148.832 10.5974C148.85 10.6508 148.853 10.708 148.842 10.7632C148.831 10.8184 148.806 10.8697 148.768 10.9121L143.879 15.6843C143.841 15.7191 143.813 15.7632 143.797 15.812C143.782 15.861 143.78 15.9133 143.791 15.9633L144.936 22.6886C144.946 22.7461 144.94 22.8057 144.918 22.8599C144.896 22.9139 144.859 22.9606 144.811 22.9944C144.763 23.0286 144.707 23.0479 144.648 23.0511C144.59 23.054 144.532 23.0404 144.481 23.0117L138.446 19.8398C138.4 19.8178 138.35 19.8063 138.299 19.8063C138.248 19.8063 138.198 19.8178 138.152 19.8398L132.117 23.0117C132.066 23.0404 132.008 23.054 131.949 23.0511C131.891 23.0479 131.834 23.0286 131.787 22.9944C131.739 22.9606 131.702 22.9139 131.68 22.8599C131.658 22.8057 131.651 22.7461 131.662 22.6886L132.807 15.9633C132.818 15.9133 132.816 15.861 132.8 15.812C132.785 15.7632 132.757 15.7191 132.719 15.6843L127.829 10.9121C127.792 10.8697 127.767 10.8184 127.756 10.7632C127.745 10.708 127.748 10.6508 127.766 10.5974C127.784 10.5439 127.815 10.4961 127.857 10.4586C127.899 10.4211 127.95 10.3952 128.006 10.3835L134.76 9.39969C134.809 9.39364 134.856 9.37583 134.898 9.3477C134.938 9.31957 134.972 9.282 134.995 9.23817L138.02 3.115C138.045 3.06208 138.084 3.0173 138.134 2.98599C138.183 2.95463 138.24 2.93799 138.299 2.93799C138.358 2.93799 138.415 2.95463 138.464 2.98599C138.514 3.0173 138.553 3.06208 138.578 3.115Z" fill="#F8F8F8"></path><path d="M162.29 3.115L165.315 9.23817C165.339 9.282 165.372 9.31957 165.413 9.3477C165.454 9.37583 165.501 9.39364 165.55 9.39969L172.305 10.3835C172.361 10.3952 172.411 10.4211 172.454 10.4586C172.494 10.4961 172.526 10.5439 172.545 10.5974C172.562 10.6508 172.565 10.708 172.555 10.7632C172.543 10.8184 172.518 10.8697 172.481 10.9121L167.591 15.6843C167.553 15.7191 167.525 15.7632 167.51 15.812C167.494 15.861 167.492 15.9133 167.503 15.9633L168.648 22.6886C168.659 22.7461 168.653 22.8057 168.63 22.8599C168.608 22.9139 168.571 22.9606 168.523 22.9944C168.475 23.0286 168.419 23.0479 168.361 23.0511C168.302 23.054 168.244 23.0404 168.193 23.0117L162.158 19.8398C162.112 19.8178 162.062 19.8063 162.011 19.8063C161.96 19.8063 161.91 19.8178 161.864 19.8398L155.829 23.0117C155.778 23.0404 155.72 23.054 155.662 23.0511C155.603 23.0479 155.547 23.0286 155.499 22.9944C155.451 22.9606 155.414 22.9139 155.392 22.8599C155.37 22.8057 155.364 22.7461 155.374 22.6886L156.52 15.9633C156.531 15.9133 156.528 15.861 156.513 15.812C156.497 15.7632 156.469 15.7191 156.431 15.6843L151.542 10.9121C151.505 10.8697 151.479 10.8184 151.468 10.7632C151.457 10.708 151.461 10.6508 151.479 10.5974C151.496 10.5439 151.528 10.4961 151.57 10.4586C151.612 10.4211 151.663 10.3952 151.718 10.3835L158.473 9.39969C158.522 9.39364 158.569 9.37583 158.61 9.3477C158.651 9.31957 158.684 9.282 158.707 9.23817L161.732 3.115C161.757 3.06208 161.797 3.0173 161.846 2.98599C161.896 2.95463 161.953 2.93799 162.011 2.93799C162.07 2.93799 162.127 2.95463 162.177 2.98599C162.226 3.0173 162.265 3.06208 162.29 3.115Z" fill="#F8F8F8"></path><path d="M160.823 37.3955C162.485 37.3955 163.599 38.3679 163.599 40.5482V45.1282H162.329V40.9089C162.329 39.1836 161.576 38.5719 160.462 38.5719C158.941 38.5719 157.984 39.5757 157.984 41.2854V45.1282H156.713V33.584H157.984V38.7444H158.015C158.643 37.866 159.646 37.3955 160.823 37.3955Z" fill="#F8F8F8"></path><path d="M151.828 45.2234C149.632 45.2234 148.048 43.6392 148.048 41.3178C148.048 39.0121 149.632 37.3965 151.875 37.3965C153.02 37.3965 154.197 37.867 154.949 38.7611L154.071 39.5297C153.601 38.9493 152.848 38.5729 151.938 38.5729C150.401 38.5729 149.334 39.7022 149.334 41.3178C149.334 42.949 150.401 44.0627 151.938 44.0627C152.832 44.0627 153.632 43.6705 154.102 43.1529L154.981 43.9372C154.338 44.6587 153.193 45.2234 151.828 45.2234Z" fill="#F8F8F8"></path><path d="M145.322 45.2223C143.957 45.2223 143.33 44.391 143.33 42.8538V38.5875H142.358V37.4895H143.33V34.8858L144.6 34.7446V37.4895H147.141V38.5875H144.6V42.6656C144.6 43.5754 144.82 44.0302 145.542 44.0302C145.996 44.0302 146.467 43.842 146.828 43.6381L147.173 44.7517C146.749 44.987 146.216 45.2223 145.322 45.2223Z" fill="#F8F8F8"></path><path d="M139.543 37.4897H140.813V45.1284H139.543V43.8579H139.527C138.915 44.7363 138.005 45.2225 137.017 45.2225C135.261 45.2225 134.147 44.2187 134.147 42.0384V37.4897H135.417V41.6777C135.417 43.4187 136.061 44.0618 137.284 44.0618C138.492 44.0618 139.543 43.0109 139.543 41.1914V37.4897Z" fill="#F8F8F8"></path><path d="M130.492 45.1282V33.584H131.763V45.1282H130.492Z" fill="#F8F8F8"></path><path d="M124.241 45.2065C121.23 45.2065 118.689 43.2459 118.689 39.6069C118.689 36.4385 120.665 33.8818 124.241 33.8818C125.779 33.8818 127.378 34.5092 128.586 36.015L127.567 36.862C126.72 35.7954 125.528 35.1837 124.241 35.1837C121.7 35.1837 120.116 37.0189 120.116 39.6069C120.116 42.2577 121.889 43.9046 124.241 43.9046C125.684 43.9046 126.782 43.2145 127.567 42.242L128.586 43.1047C127.614 44.3125 126.202 45.2065 124.241 45.2065Z" fill="#F8F8F8"></path><path d="M109.615 37.3965C111.262 37.3965 112.36 38.416 112.36 40.5962V45.1293H111.09V40.957C111.09 39.1689 110.337 38.5729 109.223 38.5729C107.78 38.5729 106.823 39.5924 106.823 41.3178V45.1293H105.553V37.4906H106.823V38.8238H106.839C107.482 37.9141 108.486 37.3965 109.615 37.3965Z" fill="#F8F8F8"></path><path d="M99.6762 45.2234C97.2921 45.2234 95.7236 43.5137 95.7236 41.3178C95.7236 39.1218 97.2921 37.3965 99.6762 37.3965C101.919 37.3965 103.597 38.9964 103.597 41.3178C103.597 43.6392 101.919 45.2234 99.6762 45.2234ZM99.6762 44.0627C101.151 44.0627 102.311 42.9333 102.311 41.3178C102.311 39.6865 101.151 38.5729 99.6762 38.5729C98.0763 38.5729 97.0097 39.7963 97.0097 41.3178C97.0097 42.8392 98.092 44.0627 99.6762 44.0627Z" fill="#F8F8F8"></path><path d="M69.4167 38.4707C71.3303 38.4707 72.8988 39.7412 72.8988 41.9057C72.8988 43.9918 71.2362 45.4192 69.1501 45.4192C67.66 45.4192 66.3268 44.7447 65.5739 43.6154L66.562 42.8625C67.0483 43.6624 67.9423 44.18 69.056 44.18C70.4519 44.18 71.5656 43.2076 71.5656 41.89C71.5656 40.4313 70.3735 39.6314 69.0717 39.6314C68.3658 39.6314 67.6757 39.7882 67.1738 40.2274L66.4052 39.9921L66.7189 34.5337H72.4126V35.7571H67.958L67.7855 38.7844C68.3658 38.5805 69.0089 38.4707 69.4167 38.4707Z" fill="#F8F8F8"></path><path d="M75.2408 46.9012L74.2055 46.4307L80.2443 33.0513L81.2638 33.5375L75.2408 46.9012Z" fill="#F8F8F8"></path><path d="M86.4137 38.4707C88.3273 38.4707 89.8958 39.7412 89.8958 41.9057C89.8958 43.9918 88.2332 45.4192 86.1471 45.4192C84.657 45.4192 83.3237 44.7447 82.5709 43.6154L83.559 42.8625C84.0453 43.6624 84.9393 44.18 86.053 44.18C87.4489 44.18 88.5626 43.2076 88.5626 41.89C88.5626 40.4313 87.3705 39.6314 86.0686 39.6314C85.3628 39.6314 84.6727 39.7882 84.1707 40.2274L83.4022 39.9921L83.7159 34.5337H89.4096V35.7571H84.955L84.7825 38.7844C85.3628 38.5805 86.0059 38.4707 86.4137 38.4707Z" fill="#F8F8F8"></path></g><defs><clipPath id="clip0_6144_2019"><rect width="172.561" height="48" fill="white" transform="translate(0 0.919922)"></rect></clipPath></defs></svg>