<svg xmlns="http://www.w3.org/2000/svg" width="113" height="37" viewBox="0 0 113 37" fill="none"><g clip-path="url(#clip0_6144_2043)"><path d="M11.3112 24.5474H12.9043C13.4888 24.537 14.1344 24.6898 14.1344 25.401C14.1344 25.7069 13.9528 25.9547 13.6851 26.0868C14.0481 26.1925 14.2721 26.5078 14.2721 26.894C14.2721 27.7041 13.6751 27.9532 12.9466 27.9532H11.3112V24.5474ZM12.1975 25.8866H12.8842C13.037 25.8866 13.2466 25.807 13.2466 25.5619C13.2466 25.3144 13.0709 25.2332 12.8842 25.2332H12.1975V25.8866ZM12.1975 27.2423H12.9084C13.1895 27.2423 13.3852 27.1406 13.3852 26.8592C13.3852 26.5596 13.1753 26.4605 12.9084 26.4605H12.1975V27.2423Z" fill="#F8F8F8"></path><path d="M15.1063 26.2421C15.1213 25.9164 15.2744 25.7084 15.4928 25.5791C15.7124 25.4549 15.9995 25.4072 16.2802 25.4072C16.8672 25.4072 17.4341 25.5349 17.4341 26.2367V27.3203C17.4341 27.5293 17.4341 27.758 17.5295 27.9547H16.7147C16.684 27.8775 16.6765 27.8028 16.6649 27.72C16.4562 27.939 16.1466 28.0265 15.8498 28.0265C15.3783 28.0265 15.0062 27.7862 15.0062 27.2761C15.0062 26.4708 15.8837 26.5329 16.4465 26.4196C16.5855 26.3886 16.6614 26.3415 16.6614 26.1893C16.6614 26.0042 16.4368 25.9311 16.2702 25.9311C16.0459 25.9311 15.9031 26.0334 15.8658 26.2424L15.1063 26.2421ZM16.1566 27.5246C16.5422 27.5246 16.6705 27.3046 16.6523 26.7945C16.5372 26.867 16.3276 26.8811 16.1504 26.9288C15.9703 26.9715 15.8175 27.0468 15.8175 27.2441C15.8175 27.4439 15.9737 27.5246 16.1566 27.5246Z" fill="#F8F8F8"></path><path d="M18.3885 25.4765H19.1765V25.8147H19.1856C19.3334 25.5612 19.6681 25.4053 19.964 25.4053C20.7881 25.4053 20.855 26.0051 20.855 26.364V27.9527H20.0443V26.7549C20.0443 26.4177 20.0819 26.0723 19.6393 26.0723C19.3334 26.0723 19.2007 26.3308 19.2007 26.6018V27.9527H18.3885V25.4765Z" fill="#F8F8F8"></path><path d="M24.2088 27.6526C24.2088 28.0585 24.1332 28.8215 22.9737 28.8215C22.3967 28.8215 21.8521 28.6922 21.7583 28.0297H22.5683C22.5872 28.1407 22.6305 28.2069 22.7067 28.2449C22.7789 28.2828 22.8777 28.2985 23.0025 28.2985C23.3894 28.2985 23.427 28.0265 23.427 27.72V27.4866H23.4173C23.2701 27.7153 23.0217 27.8483 22.7591 27.8483C22.0102 27.8483 21.673 27.3147 21.673 26.6179C21.673 25.9603 22.0595 25.4072 22.7591 25.4072C23.0549 25.4072 23.2805 25.5349 23.4223 25.789H23.4323V25.4784H24.2088V27.6526ZM22.9561 26.0262C22.5966 26.0262 22.4827 26.3409 22.4827 26.6468C22.4827 26.936 22.617 27.2278 22.9495 27.2278C23.2934 27.2278 23.4421 26.963 23.4421 26.6508C23.4421 26.3371 23.3166 26.0262 22.9561 26.0262Z" fill="#F8F8F8"></path><path d="M25.9892 24.5488H25.1783V27.954H25.9892V24.5488Z" fill="#F8F8F8"></path><path d="M26.9498 26.2421C26.9658 25.9164 27.1183 25.7084 27.3357 25.5791C27.5553 25.4549 27.842 25.4072 28.1231 25.4072C28.7108 25.4072 29.278 25.5349 29.278 26.2367V27.3203C29.278 27.5293 29.278 27.758 29.3727 27.9547H28.5583C28.5291 27.8775 28.52 27.8028 28.5093 27.72C28.2998 27.939 27.9911 28.0265 27.693 28.0265C27.2218 28.0265 26.8497 27.7862 26.8497 27.2761C26.8497 26.4708 27.7275 26.5329 28.2897 26.4196C28.429 26.3886 28.5049 26.3415 28.5049 26.1893C28.5049 26.0042 28.2813 25.9311 28.1134 25.9311C27.8894 25.9311 27.746 26.0334 27.7093 26.2424L26.9498 26.2421ZM28.0002 27.5246C28.3857 27.5246 28.5153 27.3046 28.4962 26.7945C28.3807 26.867 28.1705 26.8811 27.9939 26.9288C27.8138 26.9715 27.6613 27.0468 27.6613 27.2441C27.6613 27.4439 27.8173 27.5246 28.0002 27.5246Z" fill="#F8F8F8"></path><path d="M32.6844 27.9546H31.9107V27.6679H31.901C31.7441 27.901 31.5051 28.0265 31.2205 28.0265C30.4412 28.0265 30.1131 27.3589 30.1131 26.6621C30.1131 26.0174 30.4563 25.4072 31.1575 25.4072C31.4643 25.4072 31.6964 25.5198 31.8637 25.7444H31.8731V24.5488H32.6844V27.9546ZM30.924 26.6891C30.924 27.0285 31.048 27.4062 31.4197 27.4062C31.8169 27.4062 31.9013 27.0285 31.9013 26.7126C31.9013 26.3562 31.773 26.0265 31.4197 26.0265C31.048 26.0265 30.924 26.376 30.924 26.6891Z" fill="#F8F8F8"></path><path d="M34.35 26.9128C34.3641 27.2526 34.5593 27.4769 34.9031 27.4769C35.0989 27.4769 35.2887 27.3862 35.3655 27.2058H36.1241C35.9767 27.7781 35.4468 28.0262 34.8937 28.0262C34.0874 28.0262 33.5387 27.5384 33.5387 26.7095C33.5387 25.9512 34.1448 25.4072 34.8743 25.4072C35.7608 25.4072 36.2038 26.0742 36.1665 26.9131H34.35V26.9128ZM35.3568 26.4617C35.3423 26.184 35.1453 25.9556 34.8743 25.9556C34.5881 25.9556 34.3965 26.1605 34.35 26.4617H35.3568Z" fill="#F8F8F8"></path><path d="M37.6211 27.138C37.6211 27.2594 37.6744 27.3516 37.7556 27.4131C37.8322 27.4708 37.9414 27.4981 38.0559 27.4981C38.214 27.4981 38.4383 27.4316 38.4383 27.2355C38.4383 27.0448 38.1851 27.0068 38.0418 26.9755C37.5316 26.8446 36.8923 26.8321 36.8923 26.1629C36.8923 25.5662 37.536 25.4053 38.0226 25.4053C38.5673 25.4053 39.1342 25.5615 39.1618 26.2062H38.4135C38.4135 26.1014 38.3759 26.0343 38.3091 25.9916C38.2422 25.9493 38.1519 25.9286 38.0509 25.9286C37.9182 25.9286 37.7029 25.9446 37.7029 26.1149C37.7029 26.3499 38.2463 26.3923 38.6181 26.4729C39.1197 26.5736 39.2477 26.9347 39.2477 27.1405C39.2477 27.8034 38.6181 28.0246 38.059 28.0246C37.4746 28.0246 36.8728 27.8285 36.8496 27.138H37.6211Z" fill="#F8F8F8"></path><path d="M40.0654 24.5488H40.8767V25.8163H40.8864C41.0106 25.5631 41.3438 25.4069 41.639 25.4069C42.4644 25.4069 42.5316 26.0067 42.5316 26.3656V27.954H41.72V26.7565C41.72 26.4193 41.7585 26.0738 41.3153 26.0738C41.0106 26.0738 40.8767 26.3324 40.8767 26.6034V27.954H40.0654V24.5488Z" fill="#F8F8F8"></path><path d="M46.3729 24.5488H47.2755L48.5489 27.9543H47.6231L47.4145 27.3444H46.2249L46.0109 27.9543H45.1005L46.3729 24.5488ZM46.43 26.6856H47.2027L46.8275 25.4922H46.8172L46.43 26.6856Z" fill="#F8F8F8"></path><path d="M49.8213 27.138C49.8213 27.2594 49.8756 27.3516 49.9559 27.4131C50.0337 27.4708 50.1429 27.4981 50.2574 27.4981C50.4136 27.4981 50.6383 27.4316 50.6383 27.2355C50.6383 27.0448 50.3863 27.0068 50.2436 26.9755C49.7319 26.8446 49.0928 26.8321 49.0928 26.1629C49.0928 25.5662 49.7363 25.4053 50.2226 25.4053C50.7675 25.4053 51.3344 25.5615 51.363 26.2062H50.6147C50.6147 26.1014 50.5749 26.0343 50.5093 25.9916C50.4425 25.9493 50.3525 25.9286 50.2508 25.9286C50.1181 25.9286 49.9041 25.9446 49.9041 26.1149C49.9041 26.3499 50.4466 26.3923 50.8193 26.4729C51.32 26.5736 51.4486 26.9347 51.4486 27.1405C51.4486 27.8034 50.8193 28.0246 50.2599 28.0246C49.6748 28.0246 49.0737 27.8285 49.0499 27.138H49.8213Z" fill="#F8F8F8"></path><path d="M52.8952 27.138C52.8952 27.2594 52.9476 27.3516 53.0289 27.4131C53.1051 27.4708 53.2152 27.4981 53.3291 27.4981C53.4872 27.4981 53.7118 27.4316 53.7118 27.2355C53.7118 27.0448 53.4583 27.0068 53.3165 26.9755C52.8049 26.8446 52.1658 26.8321 52.1658 26.1629C52.1658 25.5662 52.8092 25.4053 53.2961 25.4053C53.8395 25.4053 54.407 25.5615 54.4356 26.2062H53.6867C53.6867 26.1014 53.6485 26.0343 53.5823 25.9916C53.5154 25.9493 53.4251 25.9286 53.3238 25.9286C53.1917 25.9286 52.9758 25.9446 52.9758 26.1149C52.9758 26.3499 53.5201 26.3923 53.8919 26.4729C54.3929 26.5736 54.5225 26.9347 54.5225 27.1405C54.5225 27.8034 53.8919 28.0246 53.3344 28.0246C52.7478 28.0246 52.1467 27.8285 52.1234 27.138H52.8952Z" fill="#F8F8F8"></path><path d="M56.5214 25.4072C57.2882 25.4072 57.8281 25.9741 57.8281 26.7189C57.8281 27.4621 57.2882 28.0268 56.5214 28.0268C55.7544 28.0268 55.2182 27.4621 55.2182 26.7189C55.2185 25.9738 55.7547 25.4072 56.5214 25.4072ZM56.5214 27.4063C56.8976 27.4063 57.0171 27.0326 57.0171 26.7189C57.0171 26.4046 56.8976 26.0271 56.5214 26.0271C56.1428 26.0271 56.0295 26.4046 56.0295 26.7189C56.0298 27.0323 56.1428 27.4063 56.5214 27.4063Z" fill="#F8F8F8"></path><path d="M60.2853 26.3828C60.279 26.1733 60.0949 26.0249 59.8888 26.0249C59.4367 26.0249 59.3639 26.4126 59.3639 26.7549C59.3639 27.0743 59.5041 27.4043 59.8461 27.4043C60.1291 27.4043 60.2706 27.2418 60.3082 26.9795H61.0966C61.0232 27.6424 60.5109 28.0246 59.8511 28.0246C59.1054 28.0246 58.5545 27.5138 58.5545 26.7549C58.5545 25.9675 59.0567 25.4053 59.8511 25.4053C60.466 25.4053 61.0138 25.73 61.0743 26.3825H60.2853V26.3828Z" fill="#F8F8F8"></path><path d="M62.7611 25.1675H61.9501V24.5488H62.7611V25.1675ZM61.9501 25.4781H62.7611V27.9546H61.9501V25.4781Z" fill="#F8F8F8"></path><path d="M63.7234 26.2421C63.7384 25.9164 63.8896 25.7084 64.1105 25.5791C64.3285 25.4549 64.6156 25.4072 64.8976 25.4072C65.4827 25.4072 66.0518 25.5349 66.0518 26.2367V27.3203C66.0518 27.5293 66.0518 27.758 66.145 27.9547H65.3306C65.3005 27.8775 65.292 27.8028 65.2826 27.72C65.0721 27.939 64.7634 28.0265 64.4685 28.0265C63.9938 28.0265 63.6227 27.7862 63.6227 27.2761C63.6227 26.4708 64.4998 26.5329 65.0636 26.4196C65.2029 26.3886 65.2769 26.3415 65.2769 26.1893C65.2769 26.0042 65.0548 25.9311 64.8863 25.9311C64.6623 25.9311 64.5199 26.0334 64.4835 26.2424L63.7234 26.2421ZM64.7734 27.5246C65.1596 27.5246 65.2876 27.3046 65.2691 26.7945C65.1549 26.867 64.9447 26.8811 64.7668 26.9288C64.5858 26.9715 64.4349 27.0468 64.4349 27.2441C64.4352 27.4439 64.593 27.5246 64.7734 27.5246Z" fill="#F8F8F8"></path><path d="M68.4985 26.0021H67.9962V27.1262C67.9962 27.3223 68.1104 27.364 68.288 27.364C68.3542 27.364 68.426 27.3571 68.4985 27.3571V27.9528C68.3492 27.9563 68.202 27.9757 68.053 27.9757C67.3635 27.9757 67.1868 27.7762 67.1868 27.1033V26.0021H66.7758V25.4763H67.1868V24.729H67.9962V25.4763H68.4985V26.0021Z" fill="#F8F8F8"></path><path d="M70.1216 25.1675H69.3128V24.5488H70.1216V25.1675ZM69.3128 25.4781H70.1216V27.9546H69.3128V25.4781Z" fill="#F8F8F8"></path><path d="M72.3001 25.4072C73.0675 25.4072 73.6068 25.9741 73.6068 26.7189C73.6068 27.4621 73.0675 28.0268 72.3001 28.0268C71.5324 28.0268 70.9972 27.4621 70.9972 26.7189C70.9972 25.9738 71.5324 25.4072 72.3001 25.4072ZM72.3001 27.4063C72.675 27.4063 72.7958 27.0326 72.7958 26.7189C72.7958 26.4046 72.675 26.0271 72.3001 26.0271C71.9227 26.0271 71.8082 26.4046 71.8082 26.7189C71.8082 27.0323 71.9227 27.4063 72.3001 27.4063Z" fill="#F8F8F8"></path><path d="M74.4503 25.4765H75.2371V25.8147H75.2481C75.3955 25.5612 75.7287 25.4053 76.0245 25.4053C76.8496 25.4053 76.9177 26.0051 76.9177 26.364V27.9527H76.1074V26.7549C76.1074 26.4177 76.145 26.0723 75.7005 26.0723C75.3955 26.0723 75.2616 26.3308 75.2616 26.6018V27.9527H74.4506V25.4765H74.4503Z" fill="#F8F8F8"></path><path d="M80.9858 25.4072C81.7516 25.4072 82.2918 25.9741 82.2918 26.7189C82.2918 27.4621 81.7516 28.0268 80.9858 28.0268C80.2165 28.0268 79.6797 27.4621 79.6797 26.7189C79.6797 25.9738 80.2165 25.4072 80.9858 25.4072ZM80.9858 27.4063C81.3616 27.4063 81.4799 27.0326 81.4799 26.7189C81.4799 26.4046 81.3616 26.0271 80.9858 26.0271C80.6074 26.0271 80.4932 26.4046 80.4932 26.7189C80.4932 27.0323 80.6074 27.4063 80.9858 27.4063Z" fill="#F8F8F8"></path><path d="M83.3117 26.0039H82.9224V25.4781H83.3117C83.3117 24.7678 83.5593 24.5488 84.252 24.5488C84.3797 24.5488 84.5136 24.5573 84.6429 24.5629V25.1342C84.5682 25.1248 84.4951 25.1211 84.4239 25.1211C84.2369 25.1211 84.1227 25.1437 84.1227 25.3677V25.4781H84.6099V26.0039H84.1227V27.9546H83.3117V26.0039Z" fill="#F8F8F8"></path><path d="M12.199 31.5715C12.2185 31.9718 12.4666 32.1011 12.8422 32.1011C13.1101 32.1011 13.3862 32.0051 13.3862 31.7531C13.3862 31.4535 12.8999 31.3952 12.4095 31.2581C11.9214 31.1194 11.4125 30.9001 11.4125 30.2736C11.4125 29.5304 12.1601 29.2393 12.7995 29.2393C13.4775 29.2393 14.1598 29.568 14.1645 30.3357H13.2776C13.2908 30.0267 13 29.9257 12.7286 29.9257C12.5372 29.9257 12.2979 29.9919 12.2979 30.2175C12.2979 30.4791 12.791 30.528 13.2867 30.6651C13.7774 30.8038 14.2724 31.0325 14.2724 31.649C14.2724 32.512 13.5393 32.7872 12.791 32.7872C12.0083 32.7872 11.3156 32.4449 11.3112 31.5718L12.199 31.5715Z" fill="#F8F8F8"></path><path d="M15.7104 30.1699C16.4772 30.1699 17.0177 30.7387 17.0177 31.4816C17.0177 32.2264 16.4772 32.7883 15.7104 32.7883C14.9418 32.7883 14.4075 32.2264 14.4075 31.4816C14.4075 30.739 14.9418 30.1699 15.7104 30.1699ZM15.7104 32.169C16.0869 32.169 16.2055 31.7966 16.2055 31.4819C16.2055 31.1688 16.0869 30.7914 15.7104 30.7914C15.3333 30.7914 15.2182 31.1688 15.2182 31.4819C15.2182 31.7966 15.3333 32.169 15.7104 32.169Z" fill="#F8F8F8"></path><path d="M17.4912 30.7666H17.099V30.2414H17.4912C17.4912 29.5305 17.7381 29.3115 18.4302 29.3115C18.5588 29.3115 18.6931 29.32 18.8217 29.3256V29.8985C18.7448 29.8885 18.6727 29.8834 18.6027 29.8834C18.4157 29.8834 18.3009 29.907 18.3009 30.131V30.2414H18.7878V30.7666H18.3009V32.7183H17.4912V30.7666Z" fill="#F8F8F8"></path><path d="M20.7375 30.7661H20.2384V31.8923C20.2384 32.0853 20.3504 32.1295 20.5279 32.1295C20.5947 32.1295 20.6669 32.1201 20.7375 32.1201V32.7177C20.5888 32.7199 20.4407 32.7397 20.2942 32.7397C19.6024 32.7397 19.4258 32.5392 19.4258 31.8679V30.7661H19.0161V30.2409H19.4261V29.4917H20.2387V30.2409H20.7378L20.7375 30.7661Z" fill="#F8F8F8"></path><path d="M24.1466 32.7171H23.3256L22.9344 31.0713H22.9253L22.5391 32.7171H21.7177L20.945 30.2402H21.7667L22.1821 31.8431H22.1912L22.5435 30.2402H23.3165L23.6788 31.8393H23.6892L24.0936 30.2402H24.9199L24.1466 32.7171Z" fill="#F8F8F8"></path><path d="M25.0281 31.0054C25.0432 30.6822 25.1963 30.4708 25.4156 30.3415C25.6333 30.2186 25.9204 30.1699 26.2021 30.1699C26.7891 30.1699 27.3569 30.2989 27.3569 31.0007V32.0824C27.3569 32.2929 27.3569 32.5213 27.4513 32.7186H26.6356C26.6071 32.6415 26.5983 32.5649 26.5873 32.4843C26.3778 32.7026 26.0684 32.788 25.7726 32.788C25.2998 32.788 24.928 32.5508 24.928 32.0407C24.928 31.2344 25.8068 31.2965 26.368 31.1836C26.507 31.1525 26.5833 31.1055 26.5833 30.9533C26.5833 30.7673 26.3596 30.6948 26.1914 30.6948C25.9684 30.6948 25.824 30.7955 25.7876 31.0054H25.0281ZM26.0775 32.2882C26.465 32.2882 26.5936 32.0683 26.5742 31.5585C26.4606 31.6294 26.2495 31.6451 26.0735 31.6924C25.8918 31.7351 25.7403 31.8113 25.7403 32.0062C25.7403 32.2082 25.8978 32.2882 26.0775 32.2882Z" fill="#F8F8F8"></path><path d="M27.7933 30.2409H28.5801V30.6744H28.5895C28.7084 30.3607 28.9845 30.1929 29.3327 30.1929C29.3948 30.1929 29.462 30.1985 29.5241 30.2126V30.9521C29.4187 30.9235 29.3233 30.905 29.2145 30.905C28.8138 30.905 28.6036 31.1824 28.6036 31.4911V32.7177H27.7933V30.2409Z" fill="#F8F8F8"></path><path d="M30.4779 31.6783C30.4932 32.0162 30.6884 32.2402 31.0316 32.2402C31.228 32.2402 31.4168 32.1505 31.4937 31.9691H32.2517C32.1051 32.5404 31.5749 32.788 31.0225 32.788C30.2149 32.788 29.6669 32.3026 29.6669 31.4735C29.6669 30.7136 30.273 30.1699 31.0024 30.1699C31.8902 30.1699 32.3329 30.8382 32.2962 31.6786H30.4779V31.6783ZM31.4849 31.2244C31.4714 30.9483 31.275 30.7183 31.0024 30.7183C30.7172 30.7183 30.5255 30.9247 30.4779 31.2244H31.4849Z" fill="#F8F8F8"></path><path d="M35.6944 32.4292C35.3998 32.6717 35.1002 32.7872 34.718 32.7872C34.1122 32.7872 33.5827 32.3828 33.5827 31.7481C33.5827 31.2609 33.9447 30.9472 34.3557 30.7552C34.1875 30.5707 34.0542 30.3608 34.0542 30.1023C34.0542 29.5728 34.5361 29.2393 35.0274 29.2393C35.5381 29.2393 35.9911 29.5784 35.9911 30.1221C35.9911 30.5186 35.7477 30.7944 35.4089 30.966L35.7618 31.3902C35.8289 31.2895 35.8719 31.1743 35.886 31.0567H36.5816C36.554 31.3619 36.4159 31.6622 36.206 31.8858L36.9229 32.7175H35.9344L35.6944 32.4292ZM34.7598 31.2895C34.5948 31.3666 34.3648 31.5329 34.3648 31.7387C34.3648 31.9768 34.5948 32.1296 34.8131 32.1296C34.9659 32.1296 35.1378 32.0054 35.2671 31.8862L34.7598 31.2895ZM35.3282 30.0741C35.3282 29.9116 35.2081 29.8124 35.0424 29.8124C34.8944 29.8124 34.7755 29.9229 34.7755 30.0647C34.7755 30.2507 34.9078 30.3608 35.0139 30.4942C35.1798 30.3922 35.3282 30.2789 35.3282 30.0741Z" fill="#F8F8F8"></path><path d="M39.0335 29.3115H38.1447V32.718H39.0335V29.3115Z" fill="#F8F8F8"></path><path d="M39.4894 30.2424H40.2763V30.5812H40.2869C40.4353 30.3271 40.7685 30.1699 41.0647 30.1699C41.8894 30.1699 41.9563 30.772 41.9563 31.1299V32.7189H41.144V31.5208C41.144 31.1836 41.1823 30.8382 40.7396 30.8382C40.4353 30.8382 40.3004 31.0967 40.3004 31.3677V32.7189H39.4894V30.2424Z" fill="#F8F8F8"></path><path d="M42.5439 30.7666H42.153V30.2414H42.5439C42.5439 29.5305 42.7927 29.3115 43.4817 29.3115C43.6119 29.3115 43.7452 29.32 43.8745 29.3256V29.8985C43.7976 29.8885 43.727 29.8834 43.6558 29.8834C43.4685 29.8834 43.3543 29.907 43.3543 30.131V30.2414H43.8406V30.7666H43.3543V32.7183H42.5439V30.7666Z" fill="#F8F8F8"></path><path d="M45.1881 30.1699C45.9558 30.1699 46.4954 30.7387 46.4954 31.4816C46.4954 32.2264 45.9558 32.7883 45.1881 32.7883C44.421 32.7883 43.8871 32.2264 43.8871 31.4816C43.8871 30.739 44.4214 30.1699 45.1881 30.1699ZM45.1881 32.169C45.5652 32.169 45.6838 31.7966 45.6838 31.4819C45.6838 31.1688 45.5652 30.7914 45.1881 30.7914C44.811 30.7914 44.6962 31.1688 44.6962 31.4819C44.6965 31.7966 44.811 32.169 45.1881 32.169Z" fill="#F8F8F8"></path><path d="M46.8211 30.2409H47.6076V30.6744H47.6167C47.7368 30.3607 48.0132 30.1929 48.3612 30.1929C48.4226 30.1929 48.4904 30.1985 48.5503 30.2126V30.9521C48.4462 30.9235 48.3514 30.905 48.2426 30.905C47.8413 30.905 47.6327 31.1824 47.6327 31.4911V32.7177H46.8211V30.2409Z" fill="#F8F8F8"></path><path d="M48.6962 30.2424H49.4856V30.5812H49.4943C49.6431 30.3331 49.9044 30.1699 50.2052 30.1699C50.5152 30.1699 50.7919 30.2706 50.9246 30.5718C51.121 30.3083 51.3632 30.1699 51.6976 30.1699C52.4845 30.1699 52.5701 30.7673 52.5701 31.24V32.7189H51.7601V31.262C51.7601 30.9956 51.6308 30.8378 51.4203 30.8378C51.0733 30.8378 51.0398 31.1051 51.0398 31.5055V32.7186H50.2291V31.3094C50.2291 31.0192 50.1441 30.8378 49.9232 30.8378C49.6321 30.8378 49.5069 31.0051 49.5069 31.5111V32.7189H48.6962V30.2424Z" fill="#F8F8F8"></path><path d="M52.9523 31.0054C52.967 30.6822 53.1189 30.4708 53.3394 30.3415C53.5587 30.2186 53.8442 30.1699 54.1256 30.1699C54.7126 30.1699 55.2804 30.2989 55.2804 31.0007V32.0824C55.2804 32.2929 55.2804 32.5213 55.3752 32.7186H54.5592C54.5303 32.6415 54.5209 32.5649 54.5121 32.4843C54.3022 32.7026 53.9932 32.788 53.6961 32.788C53.223 32.788 52.8535 32.5508 52.8535 32.0407C52.8535 31.2344 53.7306 31.2965 54.2925 31.1836C54.4309 31.1525 54.5065 31.1055 54.5065 30.9533C54.5065 30.7673 54.2825 30.6948 54.1159 30.6948C53.8919 30.6948 53.7485 30.7955 53.7112 31.0054H52.9523ZM54.0007 32.2882C54.3879 32.2882 54.5171 32.0683 54.4977 31.5585C54.3844 31.6294 54.1733 31.6451 53.9964 31.6924C53.8156 31.7351 53.6632 31.8113 53.6632 32.0062C53.6632 32.2082 53.82 32.2882 54.0007 32.2882Z" fill="#F8F8F8"></path><path d="M57.1798 30.7661H56.6787V31.8923C56.6787 32.0853 56.7926 32.1295 56.9702 32.1295C57.037 32.1295 57.1076 32.1201 57.1798 32.1201V32.7177C57.0311 32.7199 56.883 32.7397 56.7352 32.7397C56.0447 32.7397 55.8674 32.5392 55.8674 31.8679V30.7661H55.4571V30.2409H55.8674V29.4917H56.6787V30.2409H57.1798V30.7661Z" fill="#F8F8F8"></path><path d="M58.2548 29.9308H57.4445V29.3115H58.2548V29.9308ZM57.4445 30.2414H58.2548V32.7186H57.4445V30.2414Z" fill="#F8F8F8"></path><path d="M59.8855 30.1699C60.6532 30.1699 61.1925 30.7387 61.1925 31.4816C61.1925 32.2264 60.6532 32.7883 59.8855 32.7883C59.1162 32.7883 58.5829 32.2264 58.5829 31.4816C58.5829 30.739 59.1162 30.1699 59.8855 30.1699ZM59.8855 32.169C60.2607 32.169 60.3812 31.7966 60.3812 31.4819C60.3812 31.1688 60.2607 30.7914 59.8855 30.7914C59.5081 30.7914 59.3939 31.1688 59.3939 31.4819C59.3939 31.7966 59.5081 32.169 59.8855 32.169Z" fill="#F8F8F8"></path><path d="M61.489 30.2424H62.2764V30.5812H62.2849C62.4324 30.3271 62.769 30.1699 63.0651 30.1699C63.8865 30.1699 63.9574 30.772 63.9574 31.1299V32.7189H63.1448V31.5208C63.1448 31.1836 63.1834 30.8382 62.7389 30.8382C62.432 30.8382 62.3 31.0967 62.3 31.3677V32.7189H61.489V30.2424Z" fill="#F8F8F8"></path><path d="M66.1498 31.5715C66.1708 31.9718 66.4193 32.1011 66.7964 32.1011C67.0636 32.1011 67.3388 32.0051 67.3388 31.7531C67.3388 31.4535 66.8538 31.3952 66.3606 31.2581C65.8759 31.1194 65.3642 30.9001 65.3642 30.2736C65.3642 29.5304 66.1131 29.2393 66.7531 29.2393C67.431 29.2393 68.1112 29.568 68.1174 30.3357H67.2293C67.2444 30.0267 66.9526 29.9257 66.6809 29.9257C66.4902 29.9257 66.2511 29.9919 66.2511 30.2175C66.2511 30.4791 66.7436 30.528 67.2393 30.6651C67.7297 30.8038 68.2285 31.0325 68.2285 31.649C68.2285 32.512 67.4922 32.7872 66.7436 32.7872C65.9609 32.7872 65.2698 32.4449 65.2657 31.5718L66.1498 31.5715Z" fill="#F8F8F8"></path><path d="M69.172 31.6783C69.1867 32.0162 69.3822 32.2402 69.726 32.2402C69.9215 32.2402 70.111 32.1505 70.1897 31.9691H70.948C70.799 32.5404 70.2694 32.788 69.716 32.788C68.9088 32.788 68.361 32.3026 68.361 31.4735C68.361 30.7136 68.9693 30.1699 69.6978 30.1699C70.5847 30.1699 71.0292 30.8382 70.9891 31.6786H69.172V31.6783ZM70.1784 31.2244C70.1649 30.9483 69.9695 30.7183 69.6975 30.7183C69.4107 30.7183 69.22 30.9247 69.172 31.2244H70.1784Z" fill="#F8F8F8"></path><path d="M71.295 30.2409H72.0818V30.6744H72.0912C72.2111 30.3607 72.4878 30.1929 72.8344 30.1929C72.8966 30.1929 72.9653 30.1985 73.0283 30.2126V30.9521C72.922 30.9235 72.8256 30.905 72.7162 30.905C72.3152 30.905 72.1063 31.1824 72.1063 31.4911V32.7177H71.295V30.2409Z" fill="#F8F8F8"></path><path d="M74.8398 32.7171H73.9046L73.0807 30.2402H73.924L74.3758 31.8769H74.3883L74.8413 30.2402H75.6699L74.8398 32.7171Z" fill="#F8F8F8"></path><path d="M76.6401 29.9308H75.8291V29.3115H76.6401V29.9308ZM75.8291 30.2414H76.6401V32.7186H75.8291V30.2414Z" fill="#F8F8F8"></path><path d="M78.6989 31.1474C78.6942 30.936 78.5094 30.7895 78.3024 30.7895C77.8484 30.7895 77.7772 31.1741 77.7772 31.5195C77.7772 31.8395 77.9177 32.167 78.2597 32.167C78.5411 32.167 78.6838 32.0045 78.7224 31.7429H79.5099C79.4368 32.4055 78.9245 32.7863 78.2663 32.7863C77.519 32.7863 76.9681 32.2775 76.9681 31.5192C76.9681 30.7305 77.47 30.168 78.2663 30.168C78.8809 30.168 79.4286 30.4933 79.4879 31.1468H78.6989V31.1474Z" fill="#F8F8F8"></path><path d="M80.4795 31.6783C80.4945 32.0162 80.69 32.2402 81.0335 32.2402C81.2289 32.2402 81.4169 32.1505 81.4966 31.9691H82.2539C82.1064 32.5404 81.5762 32.788 81.0219 32.788C80.2166 32.788 79.6678 32.3026 79.6678 31.4735C79.6678 30.7136 80.2755 30.1699 81.004 30.1699C81.8906 30.1699 82.3351 30.8382 82.2966 31.6786H80.4795V31.6783ZM81.4843 31.2244C81.4727 30.9483 81.2773 30.7183 81.0037 30.7183C80.7166 30.7183 80.5275 30.9247 80.4795 31.2244H81.4843Z" fill="#F8F8F8"></path><path d="M83.2051 31.9023C83.2051 32.0256 83.2581 32.1169 83.3394 32.1784C83.414 32.2367 83.5238 32.265 83.6396 32.265C83.7939 32.265 84.0195 32.1978 84.0195 32.0024C84.0195 31.8116 83.7688 31.7737 83.6261 31.7398C83.1138 31.6105 82.476 31.5964 82.476 30.9288C82.476 30.3331 83.1194 30.1699 83.6051 30.1699C84.1519 30.1699 84.715 30.3271 84.747 30.9724H83.9963C83.9963 30.8673 83.958 30.8005 83.8915 30.7566C83.8241 30.7139 83.734 30.6951 83.6349 30.6951C83.5009 30.6951 83.2851 30.7092 83.2851 30.8821C83.2851 31.1146 83.8303 31.1588 84.2002 31.2407C84.7025 31.3385 84.8308 31.7028 84.8308 31.9076C84.8308 32.5696 84.2002 32.7889 83.6437 32.7889C83.0567 32.7889 82.4562 32.5944 82.4333 31.9029H83.2051V31.9023Z" fill="#F8F8F8"></path><path d="M11.3112 3.28369H18.7217C22.1137 3.28369 25.5731 4.09028 25.5731 8.09875C25.5731 9.62 24.8055 11.1165 23.2745 11.6028V11.7386C25.1775 12.4103 26.3848 13.7897 26.3848 15.8628C26.3848 19.4352 23.0414 20.6584 19.9757 20.6584H11.3112V3.28369ZM17.7924 9.9651C18.7217 9.9651 19.7673 9.87318 19.7673 8.67726C19.7673 7.3844 18.5811 7.47726 17.6519 7.47726H17.2108V9.9651H17.7924ZM17.2108 16.5091H17.9311C18.9764 16.5091 20.4883 16.4865 20.4883 15.0569C20.4883 13.6062 18.8601 13.6275 17.8376 13.6275H17.2108V16.5091Z" fill="#F8F8F8"></path><path d="M33.6117 20.6581H26.8751L32.9613 3.28369H39.9982L46.2476 20.6581H39.5107L38.9287 18.4906H34.1234L33.6117 20.6581ZM37.8144 14.3657L37.0689 11.3009C36.8842 10.564 36.7703 9.80322 36.6536 9.06691H36.4208L35.2587 14.3657H37.8144Z" fill="#F8F8F8"></path><path d="M48.6188 14.4341L48.9438 14.6879C50.0811 15.5632 51.4517 16.2769 52.9159 16.2769C53.5424 16.2769 54.54 16.0234 54.54 15.2401C54.54 14.4583 53.7033 14.3864 53.1248 14.2719L51.8458 14.0423C49.3607 13.6052 47.2701 12.153 47.2701 9.43333C47.2701 5.30847 51.0552 3.00635 54.8638 3.00635C56.8616 3.00635 58.6969 3.48886 60.4174 4.52698L58.6969 8.97309C57.6067 8.23615 56.375 7.65952 55.0031 7.65952C54.4469 7.65952 53.634 7.86847 53.634 8.58219C53.634 9.2269 54.4255 9.32007 54.9121 9.43333L56.3527 9.75741C59.0477 10.356 60.9962 11.7844 60.9962 14.7337C60.9962 18.8815 57.1898 20.9332 53.4034 20.9332C51.1948 20.9332 48.6401 20.334 46.6665 19.3436L48.6188 14.4341Z" fill="#F8F8F8"></path><path d="M69.3849 3.28369H63.0219V20.6581H69.3849V3.28369Z" fill="#F8F8F8"></path><path d="M73.3787 14.4341L73.7056 14.6879C74.8438 15.5632 76.2123 16.2769 77.6789 16.2769C78.3039 16.2769 79.3018 16.0234 79.3018 15.2401C79.3018 14.4583 78.4679 14.3864 77.8863 14.2719L76.6104 14.0423C74.121 13.6052 72.0325 12.153 72.0325 9.43333C72.0325 5.30847 75.8189 3.00635 79.6275 3.00635C81.6247 3.00635 83.4606 3.48886 85.1779 4.52698L83.4603 8.97309C82.3663 8.23615 81.1374 7.65952 79.768 7.65952C79.2109 7.65952 78.3967 7.86847 78.3967 8.58219C78.3967 9.2269 79.1858 9.32007 79.6752 9.43333L81.1145 9.75741C83.8085 10.356 85.7577 11.7844 85.7577 14.7337C85.7577 18.8815 81.9497 20.9332 78.1652 20.9332C75.9581 20.9332 73.4019 20.334 71.4289 19.3436L73.3787 14.4341Z" fill="#F8F8F8"></path><path d="M89.5499 16.4978V11.9902L93.3805 14.245L97.2474 16.4978L93.3974 18.7513L89.5499 21.0045V16.4978Z" fill="#F8F8F8"></path><path d="M89.5499 7.44138V2.93408L93.3805 5.18851L97.2474 7.44138L93.3974 9.69612L89.5499 11.949V7.44138Z" fill="#F8F8F8"></path><path d="M94.0478 11.9189V7.41162L97.825 9.66417L101.664 11.9189L97.8574 14.1727L94.0478 16.4268V11.9189Z" fill="#F8F8F8"></path><path d="M99.5004 2.93408C99.8107 2.93408 100.104 2.98992 100.379 3.10224C100.655 3.21455 100.899 3.37769 101.114 3.59228C101.322 3.80279 101.483 4.04624 101.595 4.32263C101.709 4.59902 101.765 4.88953 101.765 5.19416C101.765 5.50287 101.71 5.79212 101.599 6.06161C101.488 6.33079 101.326 6.56922 101.114 6.77534C100.891 6.99181 100.641 7.15871 100.362 7.27573C100.084 7.39306 99.7962 7.45173 99.5004 7.45173C99.202 7.45173 98.9175 7.39463 98.6474 7.28044C98.3769 7.16624 98.1325 6.99965 97.9139 6.7813C97.698 6.56671 97.533 6.32326 97.4188 6.05095C97.3046 5.77863 97.2475 5.49314 97.2475 5.19416C97.2475 4.89173 97.3056 4.60216 97.4204 4.32577C97.5352 4.04906 97.7018 3.80059 97.9201 3.58036C98.1266 3.36985 98.365 3.20953 98.6354 3.09942C98.9049 2.9893 99.1936 2.93408 99.5004 2.93408ZM101.302 5.19291C101.302 4.95228 101.257 4.72326 101.167 4.50522C101.077 4.28687 100.948 4.09361 100.78 3.92545C100.606 3.75134 100.411 3.61957 100.196 3.53079C99.9804 3.44169 99.7507 3.39683 99.506 3.39683C99.2601 3.39683 99.0298 3.44043 98.8158 3.52765C98.6016 3.61487 98.4108 3.74318 98.2449 3.91353C98.0729 4.08765 97.9405 4.28467 97.8489 4.50522C97.7564 4.72545 97.7109 4.95479 97.7109 5.19291C97.7109 5.43102 97.7567 5.65879 97.8477 5.87589C97.9387 6.09361 98.0692 6.28687 98.2392 6.45722C98.4121 6.62977 98.606 6.76091 98.8221 6.8522C99.038 6.94349 99.2663 6.98867 99.5063 6.98867C99.7451 6.98867 99.9741 6.94287 100.193 6.85063C100.412 6.75839 100.61 6.62538 100.786 6.45126C100.956 6.28498 101.085 6.09518 101.172 5.88185C101.259 5.66883 101.302 5.43949 101.302 5.19291ZM99.9045 4.76749C99.8985 4.64138 99.8609 4.54193 99.7912 4.47008C99.7213 4.39793 99.6281 4.36185 99.5123 4.36185C99.3664 4.36185 99.2522 4.43369 99.1688 4.57675C99.086 4.71981 99.0449 4.92185 99.0449 5.18224C99.0449 5.44483 99.0853 5.64185 99.1672 5.77298C99.2494 5.90412 99.3724 5.97 99.5365 5.97C99.656 5.97 99.7476 5.9333 99.8113 5.8602C99.8759 5.78679 99.9104 5.68012 99.9167 5.53988L100.662 5.53706C100.65 5.83573 100.541 6.07353 100.334 6.25079C100.128 6.42804 99.8565 6.51683 99.5183 6.51683C99.1283 6.51683 98.8209 6.40075 98.5975 6.16828C98.3744 5.93581 98.2634 5.61518 98.2634 5.2064C98.2634 4.80545 98.3744 4.48169 98.5962 4.23385C98.8187 3.98632 99.1082 3.86271 99.4643 3.86271C99.8166 3.86271 100.096 3.94239 100.301 4.10177C100.506 4.26114 100.616 4.48294 100.632 4.76749H99.9045Z" fill="#F8F8F8"></path></g><defs><clipPath id="clip0_6144_2043"><rect width="112.235" height="36" fill="white" transform="translate(0.0166931 0.919922)"></rect></clipPath></defs></svg>