<svg xmlns="http://www.w3.org/2000/svg" width="63" height="42" viewBox="0 0 63 42" fill="none"><g clip-path="url(#clip0_6144_2105)"><path d="M48.094 11.3402L46.574 11.2002V2.43016L52.304 11.7102H52.594V1.42016L54.114 1.28016V1.06016H50.704V1.35016L52.224 1.49016V8.37016L47.654 0.980156H44.824V1.27016L45.914 1.41016L46.134 1.70016V11.1902L44.544 11.3302V11.6202H48.024L48.094 11.3302V11.3402ZM36.574 8.95016C36.574 10.8302 37.664 11.7002 40.054 11.7002C42.664 11.7002 43.174 10.5402 43.174 9.24016V1.41016L44.554 1.27016V1.05016H41.434V1.34016L42.734 1.48016V9.31016C42.734 10.6102 42.084 11.1902 40.704 11.1902C38.744 11.1902 38.384 10.5402 38.384 9.23016V1.33016L39.974 1.26016V1.04016H35.264V1.33016L36.644 1.40016L36.574 8.94016V8.95016ZM62.154 7.65016H61.864L60.564 11.2702H57.594V6.12016H59.264L59.484 8.37016H59.774V3.73016H59.484L59.264 5.83016H57.594V1.34016H60.564L61.574 4.60016H61.864L61.794 0.980156H54.404V1.27016L55.994 1.34016V11.2702L54.404 11.3402V11.6302H61.864L62.154 7.64016V7.65016ZM28.454 1.35016H30.264V11.2802L28.594 11.3502V11.6402H33.454V11.3502L31.864 11.2802V1.35016H33.604L34.694 4.61016H34.984L34.914 0.990156H27.164L27.094 4.61016H27.384L28.474 1.35016H28.454ZM13.744 11.7102C16.714 11.7102 18.024 9.46016 18.024 6.20016C18.024 3.08016 16.794 0.910156 13.824 0.910156C10.854 0.910156 9.54399 3.16016 9.54399 6.35016C9.54399 9.54016 10.704 11.7102 13.744 11.7102ZM13.744 1.27016C15.624 1.27016 16.204 2.50016 16.204 6.27016C16.204 10.0402 15.624 11.3402 13.814 11.3402C12.004 11.3402 11.274 10.1102 11.274 6.27016C11.274 2.43016 11.854 1.27016 13.734 1.27016H13.744ZM50.484 13.0802C43.164 13.0802 38.814 18.5902 38.814 26.9202C38.814 35.2502 43.164 40.7602 50.484 40.7602C57.804 40.7602 62.084 35.2502 62.084 26.9202C62.084 18.5902 57.804 13.0802 50.484 13.0802ZM50.484 35.1802C47.584 35.1802 45.994 32.4302 45.994 26.9202C45.994 21.4102 47.444 18.8002 50.484 18.8002C53.524 18.8002 54.904 21.4102 54.904 26.9202C54.904 32.4302 53.454 35.1802 50.484 35.1802ZM19.684 11.3402L18.164 11.4102V11.7002H22.874V11.4102L21.354 11.3402V6.48016H22.224C23.384 6.48016 23.744 6.70016 23.964 8.07016L24.474 11.6202H27.374V11.3302L26.074 11.2602L25.564 7.85016C25.344 6.62016 24.694 6.33016 23.534 6.26016C25.054 6.04016 25.994 5.25016 25.994 3.58016C25.994 1.91016 25.414 0.970156 22.664 0.970156H18.174V1.26016L19.764 1.33016L19.694 11.3302L19.684 11.3402ZM21.354 1.34016H22.514C23.964 1.34016 24.324 2.21016 24.324 3.66016C24.324 5.18016 24.104 6.20016 22.514 6.20016H21.354V1.34016ZM27.154 13.0802C19.834 13.0802 15.484 18.5902 15.484 26.9202C15.484 35.2502 19.834 40.7602 27.154 40.7602C34.474 40.7602 38.754 35.2502 38.754 26.9202C38.754 18.5902 34.404 13.0802 27.154 13.0802ZM27.154 35.1802C24.254 35.1802 22.664 32.4302 22.664 26.9202C22.664 21.4102 24.114 18.8002 27.154 18.8002C30.194 18.8002 31.574 21.4102 31.574 26.9202C31.574 32.4302 30.124 35.1802 27.154 35.1802ZM6.21399 11.3402L4.54399 11.2702V6.20016H6.21399L6.43399 8.45016H6.72399V3.74016H6.43399L6.21399 5.84016H4.54399V1.35016H7.44399L8.45399 4.68016H8.74399L8.67399 1.06016H1.28399V1.35016L2.87399 1.42016V11.3502L1.28399 11.4202V11.7102H6.14399V11.3502H6.21399V11.3402ZM12.884 13.5902H6.07399C4.84399 14.6802 3.32399 15.2602 1.29399 15.3302V21.2002C2.81399 21.2002 4.62399 20.6902 5.93399 19.9702V34.7502H1.15399V40.3302H16.954V34.7502H12.824V13.5902H12.894H12.884Z" fill="#F8F8F8"></path></g><defs><clipPath id="clip0_6144_2105"><rect width="62" height="41" fill="white" transform="translate(0.707947 0.419922)"></rect></clipPath></defs></svg>