<svg xmlns="http://www.w3.org/2000/svg" width="62" height="40" viewBox="0 0 62 40" fill="none"><path fill-rule="evenodd" clip-rule="evenodd" d="M44.1692 20.4045C45.6007 18.5154 47.8295 17.3389 50.9238 17.3637C57.4984 17.4547 59.1014 23.0556 59.1185 26.8835C59.1185 31.5564 56.8726 36.9501 50.3923 36.9501C47.5808 36.9501 45.2493 35.7819 43.7749 33.6278C42.4034 35.5831 40.2262 36.9501 36.9603 36.9501C34.1316 36.9501 31.7915 35.7654 30.317 33.6028C30.3153 33.6063 30.3139 33.6093 30.3127 33.6121L30.31 33.6186C30.3072 33.6257 30.3051 33.6308 30.3 33.636L30.2915 33.6278C28.9285 35.5332 26.7512 36.8838 23.5454 36.8838C20.9309 36.8838 18.7023 35.873 17.2279 34.0006C17.5364 33.6028 17.5108 33.6028 17.2021 34.0006C16.5763 33.1969 16.5678 33.2219 17.2021 34.0254C17.0479 34.2325 16.8678 34.4397 16.645 34.6468C14.5191 36.7346 11.5018 36.8756 9.86466 36.8756C8.81888 36.8756 5.57872 36.8756 3.3929 34.7297C2.13378 33.4878 1.85039 32.1716 1.54207 30.7393L1.54138 30.7362L7.31023 30.1395C7.31023 30.6201 7.31023 31.0758 7.45596 31.5149C7.79884 32.5921 8.7246 33.0974 9.89037 33.0974C11.9304 33.0974 12.7619 31.6393 12.7619 30.181C12.7619 28.4826 11.8018 27.2646 9.80466 27.2646C8.26642 27.2646 7.78811 27.9424 7.45529 28.4139L7.43025 28.4493L2.58714 27.886L3.6672 17.7199H18.0593L17.8451 19.6256C17.2879 20.189 16.7993 20.8766 16.4221 21.6139H7.76454L7.48168 24.2736C7.62389 24.1863 7.78072 24.1129 7.93012 24.0428C7.97879 24.0201 8.0268 23.9978 8.07314 23.9754C8.93032 23.6523 10.1989 23.4699 11.2533 23.4699C12.8562 23.4699 14.3048 23.8179 15.4706 24.4807C16.1821 24.8784 16.2078 24.8703 15.4963 24.4807C15.6763 23.4699 16.0278 22.5172 16.4563 21.6554H16.4221C16.7993 20.9099 17.2963 20.2553 17.8451 19.6586H17.8708C19.2936 18.1674 21.3337 17.2726 24.0425 17.2974C27.274 17.3305 29.3056 18.7307 30.54 20.6033C30.557 20.6364 30.5915 20.6033 30.5742 20.5785C30.72 20.3712 30.8742 20.1724 31.0456 19.9818C32.4771 18.3414 34.6116 17.3389 37.4831 17.3637C41.4862 17.4216 43.5177 19.4019 44.1692 20.4045ZM21.2132 30.7115C21.5817 32.178 22.4475 33.0645 23.7076 33.0645C26.082 33.0645 26.4848 29.9989 26.4848 27.3063C26.4848 26.4693 26.4335 24.4146 26.1506 23.2547C25.8677 22.0946 25.1562 21.0259 23.8018 21.0259C23.159 21.0259 22.3275 21.3573 21.8047 22.1859C21.0932 23.3789 20.9732 25.8148 20.9732 27.6707C20.9732 28.6898 20.9989 29.7254 21.2132 30.7115ZM37.1495 33.1226C35.8895 33.1226 35.015 32.2278 34.655 30.7697C34.4407 29.7837 34.4065 28.7399 34.4065 27.7206C34.4065 25.873 34.535 23.4371 35.2378 22.2441C35.7608 21.4073 36.5922 21.0759 37.2523 21.0759C38.6068 21.0759 39.3181 22.1528 39.5923 23.3046C39.8753 24.4729 39.9353 26.5193 39.9353 27.3645C39.9268 30.0488 39.5239 33.1226 37.1495 33.1226ZM48.0957 30.7697C48.4643 32.2278 49.33 33.1226 50.59 33.1226C52.9646 33.1226 53.3675 30.0488 53.3675 27.3645C53.3675 26.5193 53.3075 24.4729 53.0331 23.3046C52.7502 22.1528 52.0388 21.0759 50.6845 21.0759C50.0415 21.0759 49.21 21.4073 48.6872 22.2441C47.9757 23.4371 47.8557 25.873 47.8557 27.7206C47.8557 28.7399 47.8815 29.7837 48.0957 30.7697Z" fill="#F8F8F8"></path><path d="M18.8555 12.715H16.944V4.93516H18.8555V1.59619H8.61218V4.93516H10.5237V12.715H8.61218V15.8386H18.8555V12.715Z" fill="#F8F8F8"></path><path d="M27.4184 12.6813H25.8756V9.99688C25.8756 8.86179 26.767 8.03328 27.9414 8.03328C28.8929 8.03328 29.6043 8.48067 29.6043 9.46662V12.7145H28.1214V15.8462H35.956V12.8222C37.0361 15.084 39.7706 16.1197 42.5564 16.1197C44.8365 16.1197 48.0167 15.5812 48.7195 12.1842L48.8138 11.8279H44.648H44.4936C44.4936 12.9879 43.6279 13.5264 42.6421 13.5264C40.7906 13.5264 40.6362 12.0102 40.6362 10.5768V10.5437C40.6362 9.0855 40.7906 7.59415 42.6421 7.59415C44.0909 7.59415 44.3394 8.81209 44.3994 9.98032L48.7195 9.5329C48.1623 4.67771 42.5821 5.00085 42.5564 5.03399C38.9819 5.03399 35.4675 6.73248 35.4675 10.5768C35.4675 11.3971 35.6388 12.1179 35.9304 12.7559H34.6703V8.64638C34.6703 6.02822 32.6645 5.06713 30.2302 5.06713C28.4729 5.06713 27.1784 5.51455 26.0041 6.79876C25.9441 6.88989 25.8156 7.0059 25.7299 7.09703V4.93457H19.4124V8.03328H20.8609V12.7145H19.4124V15.7799H27.427V12.6813H27.4184Z" fill="#F8F8F8"></path><path d="M50.2391 15.8718C51.242 15.8718 52.0563 15.0847 52.0563 14.1154C52.0563 13.146 51.242 12.3589 50.2391 12.3589C49.2361 12.3589 48.4218 13.146 48.4218 14.1154C48.4218 15.0847 49.2361 15.8718 50.2391 15.8718Z" fill="#F8F8F8"></path></svg>