<svg xmlns="http://www.w3.org/2000/svg" width="148" height="31" viewBox="0 0 148 31" fill="none"><g clip-path="url(#clip0_6144_2118)"><mask id="mask0_6144_2118" style="mask-type:luminance" maskUnits="userSpaceOnUse" x="0" y="1" width="148" height="30"><path d="M147.62 1.27002H0.952881V30.807H147.62V1.27002Z" fill="white"></path></mask><g mask="url(#mask0_6144_2118)"><path d="M18.2745 5.20902H14.6826V28.2553C15.912 27.8936 17.1415 27.3392 18.2745 26.616V5.20902ZM14.0558 8.48756H10.4638V28.4722H14.0558V8.48756ZM24.3735 23.0723C26.0369 20.5651 26.9048 17.7447 26.9048 14.8759C26.9048 10.9947 25.3137 7.6197 22.5173 5.52241V1.95459H18.9013V3.97957C13.7665 2.43674 7.76387 4.67868 4.34069 9.81344C0.628234 15.4062 1.27912 22.4696 5.57014 26.4955C2.09875 22.4936 1.93 15.9126 5.47372 10.5366C8.72814 5.61884 14.1522 3.20815 18.9013 4.10011V26.182C20.2512 25.2177 21.4808 23.9884 22.4933 22.5419V5.57062C24.036 7.01704 25.1208 8.9938 25.5789 11.2599C25.7476 12.1036 25.8441 12.9715 25.8441 13.8634C25.8441 16.7804 24.928 19.7696 23.1682 22.4213C19.6727 27.6767 13.6701 30.2561 8.67993 28.8096C14.0076 31.0034 20.6611 28.665 24.3735 23.0723ZM9.81295 11.7661H6.22103V26.8569C6.43799 27.0981 6.65495 27.3151 6.89602 27.508C7.40226 27.9177 8.02904 28.2311 8.75225 28.4722H9.81295V11.7661ZM22.4933 26.0615C21.4808 27.0257 20.3718 27.8454 19.1905 28.4722H22.4933V26.0615Z" fill="#F8F8F8"></path><path d="M41.4397 20.6858C41.1987 19.9867 40.8853 19.4081 40.4513 18.9259C40.0415 18.4438 39.5352 18.0823 38.9326 17.817C38.354 17.5519 37.7031 17.4313 36.9799 17.4313C36.2567 17.4313 35.6059 17.5519 35.0272 17.817C34.4246 18.0823 33.9184 18.4438 33.4844 18.9259C33.0506 19.4081 32.7371 20.0108 32.496 20.7098C32.2549 21.4089 32.1345 22.2044 32.1345 23.0964C32.1345 23.9883 32.2549 24.7839 32.496 25.459C32.7371 26.158 33.0506 26.7365 33.4844 27.2188C33.9184 27.7008 34.4246 28.0625 35.0031 28.3276C35.5817 28.5928 36.2567 28.7134 36.9558 28.7134C37.6791 28.7134 38.33 28.5928 38.9085 28.3276C39.5112 28.0625 40.0175 27.7008 40.4272 27.2188C40.8612 26.7365 41.1745 26.134 41.4156 25.4348C41.6567 24.7357 41.7773 23.9402 41.7773 23.0482C41.8013 22.1562 41.6808 21.3607 41.4397 20.6858ZM39.3665 24.5429C39.2461 24.9767 39.0773 25.3384 38.8602 25.6278C38.6433 25.9169 38.3782 26.134 38.0648 26.3027C37.7514 26.4474 37.4139 26.5197 37.0281 26.5197C36.6425 26.5197 36.305 26.4474 35.9916 26.2786C35.6782 26.134 35.413 25.8928 35.1719 25.6036C34.9309 25.3143 34.7621 24.9527 34.6416 24.5188C34.521 24.0848 34.4487 23.6027 34.4487 23.0482C34.4487 22.4938 34.4969 22.0117 34.6416 21.5777C34.7621 21.1438 34.9308 20.7822 35.1478 20.4929C35.3648 20.2036 35.63 19.9867 35.9433 19.8421C36.2567 19.6973 36.6184 19.625 36.9799 19.625C37.3657 19.625 37.7031 19.6973 38.0406 19.8661C38.354 20.0108 38.6192 20.2519 38.8602 20.5411C39.0773 20.8304 39.2702 21.192 39.3907 21.6259C39.5112 22.0599 39.5835 22.5419 39.5835 23.0964C39.5352 23.6268 39.487 24.1089 39.3665 24.5429ZM47.4181 17.4313C47.2495 17.359 47.0567 17.3108 46.8396 17.2626C46.6227 17.2144 46.3575 17.1902 46.0683 17.1902C45.6825 17.1902 45.3692 17.2385 45.0798 17.3108C44.7906 17.3832 44.5496 17.5278 44.3567 17.6964C44.1638 17.8652 44.0191 18.0823 43.8985 18.3715C43.8023 18.6366 43.754 18.9742 43.754 19.3599V20.3483H42.7656V22.3732H43.754V28.5446H45.8995V22.3732H47.2977V20.3483H45.8995V19.6733C45.8995 19.5768 45.9236 19.4804 45.9236 19.4081C45.9477 19.3117 45.9718 19.2394 46.0441 19.1911C46.0923 19.1429 46.1888 19.0947 46.2852 19.0706C46.3817 19.0465 46.5262 19.0224 46.695 19.0224C46.8638 19.0224 46.9843 19.0465 47.1048 19.0706C47.2254 19.0947 47.3459 19.1429 47.4423 19.1911V17.4313H47.4181ZM60.3636 19.7456V17.5761H51.9021V19.7456H55.036V28.5204H57.2298V19.7456H60.3636ZM68.5117 28.5204V23.8919C68.5117 23.3134 68.4636 22.7831 68.343 22.325C68.2225 21.867 68.0296 21.4813 67.7886 21.1438C67.5475 20.8304 67.234 20.5652 66.8484 20.3964C66.4626 20.2278 66.0288 20.1313 65.4984 20.1313C65.2814 20.1313 65.0645 20.1555 64.8957 20.1796C64.7028 20.2036 64.534 20.2759 64.3654 20.3242C64.1966 20.3964 64.052 20.4688 63.9073 20.5652C63.7627 20.6617 63.6663 20.734 63.5698 20.8304V17.1421L61.4003 18.2269V28.5446H63.5698V24.0607C63.5698 23.6992 63.5939 23.4098 63.6663 23.1687C63.7386 22.9278 63.8109 22.7349 63.9315 22.5902C64.052 22.4456 64.1966 22.3491 64.3654 22.2768C64.534 22.2044 64.7269 22.1804 64.968 22.1804C65.4742 22.1804 65.8359 22.325 66.0528 22.6384C66.2698 22.9518 66.3662 23.434 66.3662 24.0848V28.5204H68.5117ZM76.5153 22.7831C76.3705 22.2768 76.1295 21.8188 75.8403 21.4331C75.5509 21.0474 75.1893 20.734 74.7555 20.517C74.3215 20.3001 73.8394 20.1796 73.2849 20.1796C72.7546 20.1796 72.2966 20.2759 71.8384 20.4929C71.4046 20.7098 71.0188 20.9992 70.6813 21.3848C70.3439 21.7706 70.1028 22.2044 69.9099 22.7349C69.7172 23.2652 69.6207 23.8438 69.6207 24.4705C69.6207 24.9285 69.6689 25.3143 69.7411 25.7C69.8135 26.0615 69.934 26.3991 70.0786 26.6883C70.2234 26.9777 70.3921 27.267 70.6091 27.4839C70.8259 27.725 71.0671 27.9419 71.3322 28.1107C71.5973 28.3036 71.9109 28.4481 72.2724 28.5446C72.634 28.6651 73.0439 28.7134 73.4777 28.7134C73.743 28.7134 74.0322 28.6892 74.2973 28.6169C74.5626 28.5687 74.8519 28.4723 75.0929 28.3517C75.358 28.2313 75.5992 28.0866 75.8162 27.9419C76.033 27.7732 76.2259 27.5803 76.3947 27.3634L74.8519 26.0857C74.7795 26.1821 74.6832 26.2544 74.5867 26.3268C74.4902 26.3991 74.3697 26.4715 74.2492 26.5197C74.1287 26.5677 73.984 26.616 73.8635 26.6402C73.743 26.6642 73.5982 26.6642 73.4536 26.6642C73.2608 26.6642 73.068 26.6402 72.8751 26.5919C72.6822 26.5438 72.5134 26.4474 72.3447 26.3268C72.2001 26.2063 72.0555 26.0375 71.959 25.8446C71.8626 25.6518 71.7903 25.4107 71.7661 25.1214H76.6599C76.6599 25.0491 76.684 24.9527 76.684 24.8321C76.684 24.7117 76.684 24.5911 76.684 24.4223C76.7563 23.8438 76.6599 23.2892 76.5153 22.7831ZM71.8384 23.5063C71.8626 23.2892 71.9109 23.0964 71.9832 22.9278C72.0555 22.759 72.1519 22.5902 72.2483 22.4696C72.3688 22.3491 72.4894 22.2285 72.6581 22.1562C72.8028 22.0839 72.9957 22.0357 73.1885 22.0357C73.4295 22.0357 73.6465 22.0839 73.8153 22.1562C73.984 22.2527 74.1287 22.3491 74.2492 22.4938C74.3697 22.6384 74.4661 22.7831 74.5144 22.9759C74.5867 23.1446 74.6107 23.3375 74.6349 23.5063H71.8384ZM87.7731 17.6001L85.0249 22.1804L82.3009 17.6001H79.7938L83.9402 24.2536V28.5446H86.1338V24.2294L90.2802 17.6242H87.7731V17.6001ZM96.0659 22.7831C95.9212 22.2768 95.6801 21.8188 95.391 21.4331C95.1016 21.0474 94.74 20.734 94.3061 20.517C93.8721 20.3001 93.3901 20.1796 92.8356 20.1796C92.3053 20.1796 91.8231 20.2759 91.3891 20.4929C90.9553 20.7098 90.5695 20.9992 90.2321 21.3848C89.8945 21.7706 89.6534 22.2044 89.4605 22.7349C89.2678 23.2652 89.1714 23.8438 89.1714 24.4705C89.1714 24.9285 89.2196 25.3143 89.2919 25.7C89.3642 26.0615 89.4847 26.3991 89.6293 26.6883C89.774 26.9777 89.9428 27.267 90.1598 27.4839C90.3766 27.725 90.6178 27.9419 90.8829 28.1107C91.1481 28.3036 91.4615 28.4481 91.8231 28.5446C92.1847 28.6651 92.5945 28.7134 93.0284 28.7134C93.2936 28.7134 93.5829 28.6892 93.848 28.6169C94.1374 28.5687 94.4025 28.4723 94.6437 28.3517C94.9087 28.2313 95.1499 28.0866 95.3668 27.9419C95.5837 27.7732 95.7766 27.5803 95.9453 27.3634L94.4026 26.0857C94.3302 26.1821 94.2338 26.2544 94.1374 26.3268C94.0409 26.3991 93.9203 26.4715 93.7998 26.5197C93.6793 26.5677 93.5347 26.616 93.4141 26.6402C93.2936 26.6642 93.1489 26.6642 93.0043 26.6642C92.8115 26.6642 92.6187 26.6402 92.4258 26.5919C92.2328 26.5438 92.0641 26.4474 91.8954 26.3268C91.7508 26.2063 91.6061 26.0375 91.5097 25.8446C91.4132 25.6518 91.3409 25.4107 91.3168 25.1214H96.2106C96.2106 25.0491 96.2347 24.9527 96.2347 24.8321C96.2347 24.7117 96.2347 24.5911 96.2347 24.4223C96.307 23.8438 96.2347 23.2892 96.0659 22.7831ZM91.3891 23.5063C91.4132 23.2892 91.4615 23.0964 91.5338 22.9278C91.6061 22.759 91.7026 22.5902 91.7991 22.4696C91.9195 22.3491 92.0401 22.2285 92.2088 22.1562C92.3534 22.0839 92.5463 22.0357 92.7391 22.0357C92.9801 22.0357 93.1972 22.0839 93.3659 22.1562C93.5347 22.2527 93.6793 22.3491 93.7998 22.4938C93.9203 22.6384 94.0168 22.7831 94.0651 22.9759C94.1374 23.1446 94.1614 23.3375 94.1855 23.5063H91.3891ZM104.118 28.5204V23.0241C104.118 22.5661 104.046 22.1562 103.877 21.7947C103.708 21.4331 103.491 21.1438 103.201 20.9027C102.912 20.6617 102.551 20.4688 102.141 20.3483C101.731 20.2278 101.273 20.1555 100.767 20.1555C100.164 20.1555 99.6337 20.2278 99.1758 20.3483C98.7176 20.4688 98.2114 20.6858 97.7051 20.9992L98.5247 22.4938C98.9347 22.2768 99.2962 22.1321 99.6096 22.0599C99.8989 21.9876 100.309 21.9634 100.767 21.9634C101.153 21.9634 101.442 22.0599 101.634 22.2527C101.827 22.4456 101.948 22.7107 101.948 23V23.4098C101.779 23.3134 101.562 23.2411 101.321 23.1929C101.08 23.1205 100.767 23.0964 100.381 23.0964C99.9231 23.0964 99.4891 23.1446 99.0793 23.2652C98.6695 23.3857 98.3319 23.5545 98.0185 23.7715C97.7293 23.9883 97.4882 24.2777 97.3195 24.6152C97.1508 24.9527 97.0543 25.3625 97.0543 25.7964C97.0543 26.3027 97.1508 26.7365 97.3195 27.0982C97.4882 27.4598 97.7293 27.7732 98.0185 28.0142C98.3078 28.2553 98.6212 28.424 99.007 28.5446C99.3685 28.6651 99.7543 28.7134 100.14 28.7134C100.333 28.7134 100.502 28.6892 100.695 28.6651C100.863 28.641 101.056 28.5687 101.225 28.4963C101.394 28.424 101.538 28.3518 101.659 28.2553C101.779 28.183 101.9 28.0866 101.996 27.9661V28.5204H104.118ZM101.948 26.134C101.9 26.2303 101.803 26.3268 101.707 26.4232C101.61 26.5197 101.49 26.5919 101.369 26.6642C101.249 26.7365 101.104 26.7848 100.936 26.833C100.791 26.8812 100.622 26.9053 100.429 26.9053C100.212 26.9053 99.9954 26.8812 99.8508 26.8089C99.682 26.7365 99.5614 26.6642 99.4649 26.5677C99.3685 26.4715 99.2962 26.3509 99.248 26.2303C99.1997 26.1098 99.1758 25.9652 99.1758 25.8205C99.1758 25.483 99.272 25.2419 99.4891 25.0491C99.706 24.8562 100.02 24.784 100.405 24.784C100.598 24.784 100.767 24.7839 100.911 24.8079C101.056 24.8321 101.177 24.8562 101.297 24.8804C101.417 24.9044 101.514 24.9527 101.61 24.9767C101.707 25.025 101.803 25.0732 101.9 25.1214V26.134H101.948ZM111.036 20.734C110.891 20.5893 110.699 20.4446 110.433 20.3242C110.168 20.2036 109.879 20.1555 109.517 20.1555C109.348 20.1555 109.18 20.1796 109.011 20.2036C108.842 20.2278 108.697 20.3 108.553 20.3723C108.409 20.4446 108.289 20.517 108.168 20.6134C108.048 20.7098 107.951 20.7822 107.855 20.8786V20.3483H105.685V28.5446H107.855V24.1089C107.855 23.5063 107.951 23.0723 108.168 22.759C108.385 22.4696 108.745 22.325 109.252 22.325C109.493 22.325 109.734 22.3732 109.927 22.4696C110.144 22.5661 110.337 22.6867 110.505 22.8554L111.036 20.734Z" fill="#F8F8F8"></path><path d="M40.5961 10.7539H34.9552V8.12628H39.3426V6.00487H34.9552V4.12454H40.3551V1.97903H32.7615V12.9236H40.5961V10.7539ZM49.0576 1.97903L46.3094 6.55933L43.5854 1.97903H41.0542L45.2006 8.63253V12.9236H47.3943V8.60842L51.5407 2.00314H49.0576V1.97903ZM63.1362 10.7539H57.4951V8.12628H61.8826V6.00487H57.4951V4.12454H62.8951V1.97903H55.3013V12.9236H63.1362V10.7539ZM71.7422 12.8994V8.27092C71.7422 7.69236 71.6941 7.16201 71.5735 6.70398C71.453 6.24594 71.2601 5.83612 71.0191 5.52274C70.778 5.20935 70.4645 4.94418 70.0789 4.77543C69.6932 4.60667 69.2593 4.51025 68.7289 4.51025C68.536 4.51025 68.3191 4.53435 68.1503 4.55845C67.9574 4.58256 67.7887 4.6549 67.596 4.72721C67.4272 4.79953 67.2825 4.87185 67.1378 4.96827C67.0172 5.06471 66.8967 5.13702 66.8003 5.23346V4.7031H64.6307V12.8994H66.8003V8.41556C66.8003 8.05396 66.8244 7.76468 66.8967 7.52362C66.9691 7.28254 67.0414 7.0897 67.162 6.94505C67.2825 6.80041 67.4272 6.70397 67.596 6.63165C67.7646 6.55933 67.9574 6.53523 68.1985 6.53523C68.7047 6.53523 69.0664 6.67986 69.2833 6.99325C69.5003 7.30665 69.5967 7.78878 69.5967 8.43967V12.8754H71.7422V12.8994ZM78.1065 10.3923C77.8654 10.6093 77.6484 10.778 77.4556 10.8745C77.2627 10.9709 77.0699 11.0191 76.877 11.0191C76.7564 11.0191 76.6359 10.995 76.5396 10.9709C76.4431 10.9468 76.3467 10.8986 76.2985 10.8262C76.2262 10.7539 76.1779 10.6575 76.1539 10.5129C76.1297 10.3923 76.1056 10.2236 76.1056 10.0307V6.72808H78.0824V4.7031H76.1056V1.521L73.9359 2.60581V4.72721H72.5618V6.75219H73.9359V10.6334C73.9359 10.995 73.9841 11.3325 74.1047 11.6218C74.2011 11.911 74.3458 12.1763 74.5387 12.3932C74.7316 12.6103 74.9484 12.7789 75.2377 12.8994C75.5029 13.02 75.8163 13.0923 76.1297 13.0923C76.4673 13.0923 76.7805 13.044 77.0939 12.9477C77.3833 12.8512 77.6243 12.7306 77.8172 12.5861L78.1065 10.3923ZM84.6876 5.11292C84.5431 4.96827 84.3502 4.82364 84.085 4.7031C83.8197 4.58256 83.5306 4.53435 83.1689 4.53435C83.0001 4.53435 82.8315 4.55846 82.6627 4.58256C82.4939 4.60667 82.3493 4.679 82.2046 4.75132C82.0599 4.82364 81.9154 4.89596 81.819 4.99238C81.6984 5.08882 81.602 5.16113 81.5056 5.25756V4.72721H79.3359V12.9236H81.5056V8.46378C81.5056 7.86111 81.602 7.42717 81.819 7.11379C82.0358 6.8245 82.3975 6.67986 82.9037 6.67986C83.1448 6.67986 83.3618 6.72809 83.5788 6.82451C83.7956 6.92095 83.9885 7.04147 84.1573 7.21022L84.6876 5.11292ZM91.775 7.16201C91.6304 6.63166 91.3894 6.19773 91.1 5.81202C90.8108 5.42631 90.4492 5.11292 90.0152 4.89596C89.5814 4.679 89.0992 4.55845 88.5447 4.55845C88.0144 4.55845 87.5322 4.6549 87.0983 4.87185C86.6644 5.08882 86.2546 5.3781 85.9412 5.76381C85.6037 6.14952 85.3627 6.58344 85.1698 7.11379C84.9769 7.64414 84.8805 8.22271 84.8805 8.84949C84.8805 9.30752 84.9287 9.71733 85.001 10.0789C85.0733 10.4405 85.1939 10.778 85.3386 11.0673C85.4832 11.3566 85.6518 11.6459 85.8689 11.8869C86.0858 12.128 86.3269 12.345 86.592 12.5138C86.8573 12.7066 87.1707 12.8512 87.5322 12.9477C87.8939 13.0682 88.3037 13.1165 88.7377 13.1165C89.0028 13.1165 89.292 13.0923 89.5573 13.02C89.8465 12.9717 90.1116 12.8754 90.3527 12.7548C90.6179 12.6342 90.859 12.5138 91.076 12.345C91.2929 12.1763 91.4858 11.9834 91.6546 11.7665L90.1116 10.4887C90.0393 10.5852 89.943 10.6575 89.8465 10.7298C89.7502 10.8021 89.6296 10.8745 89.509 10.9227C89.3885 10.9709 89.2439 11.0191 89.1233 11.0432C89.0028 11.0673 88.8581 11.0673 88.7135 11.0673C88.5206 11.0673 88.3277 11.0432 88.135 10.9709C87.9421 10.9227 87.7733 10.8262 87.6046 10.7057C87.4599 10.5852 87.3153 10.4164 87.2189 10.2236C87.1225 10.0307 87.0502 9.78966 87.026 9.50037H91.9197C91.9197 9.42805 91.9437 9.33162 91.9437 9.2111C91.9437 9.09056 91.9437 8.97001 91.9437 8.80128C91.992 8.22271 91.9197 7.66825 91.775 7.16201ZM87.0983 7.88522C87.1225 7.66825 87.1707 7.4754 87.243 7.30665C87.3154 7.1379 87.4116 6.96914 87.5081 6.84861C87.6287 6.72808 87.7492 6.60755 87.9179 6.53523C88.0627 6.4629 88.2554 6.41469 88.4483 6.41469C88.6894 6.41469 88.9064 6.4629 89.0752 6.53523C89.2439 6.60755 89.3885 6.72808 89.509 6.87272C89.6296 7.01736 89.726 7.162 89.7742 7.35486C89.8465 7.5236 89.8707 7.71646 89.8948 7.88522H87.0983ZM100.068 6.92094C99.8991 6.36649 99.6821 5.90844 99.3929 5.54683C99.1035 5.18525 98.7661 4.92007 98.3804 4.75132C97.9947 4.58257 97.5848 4.51025 97.1508 4.51025C96.8134 4.51025 96.5 4.55845 96.2107 4.67899C95.9215 4.79953 95.6563 4.96827 95.4152 5.18524V4.67899H93.2456V15.8888L95.4152 14.8039V12.3932C95.6081 12.562 95.8492 12.7306 96.1625 12.8512C96.4518 12.9717 96.7893 13.044 97.1508 13.044C97.6571 13.044 98.1151 12.9477 98.5009 12.7306C98.8866 12.5138 99.2241 12.2486 99.4892 11.8629C99.7545 11.5013 99.9714 11.0432 100.116 10.537C100.261 10.0307 100.333 9.47627 100.333 8.84949C100.333 8.15039 100.236 7.4754 100.068 6.92094ZM97.8019 10.5129C97.5848 10.8745 97.2714 11.0432 96.8375 11.0432C96.6688 11.0432 96.5241 11.0191 96.3794 10.995C96.2348 10.9709 96.1144 10.9227 95.9938 10.8503C95.8733 10.778 95.7527 10.7298 95.6804 10.6334C95.5839 10.5611 95.4875 10.4405 95.391 10.32V7.25842C95.5839 7.01736 95.7768 6.84861 95.9696 6.72808C96.1867 6.63165 96.4277 6.55933 96.717 6.55933C97.175 6.55933 97.5366 6.75219 97.7536 7.16201C97.9947 7.57182 98.1151 8.17449 98.1151 8.94592C98.1393 9.64502 98.0428 10.1754 97.8019 10.5129ZM106.914 5.11292C106.77 4.96827 106.577 4.82364 106.311 4.7031C106.047 4.58256 105.757 4.53435 105.396 4.53435C105.227 4.53435 105.059 4.55846 104.89 4.58256C104.72 4.60667 104.576 4.679 104.431 4.75132C104.287 4.82364 104.166 4.89596 104.045 4.99238C103.925 5.08882 103.828 5.16113 103.732 5.25756V4.72721H101.562V12.9236H103.732V8.46378C103.732 7.86111 103.828 7.42717 104.045 7.11379C104.262 6.8245 104.624 6.67986 105.131 6.67986C105.371 6.67986 105.613 6.72809 105.805 6.82451C106.022 6.92095 106.216 7.04147 106.384 7.21022L106.914 5.11292ZM114.17 7.16201C114.026 6.63166 113.785 6.19773 113.495 5.81202C113.206 5.42631 112.844 5.11292 112.41 4.89596C111.976 4.679 111.495 4.55845 110.94 4.55845C110.433 4.55845 109.952 4.6549 109.493 4.87185C109.06 5.08882 108.674 5.3781 108.337 5.76381C107.999 6.14952 107.759 6.58344 107.565 7.11379C107.373 7.64414 107.276 8.22271 107.276 8.84949C107.276 9.30752 107.325 9.71733 107.397 10.0789C107.469 10.4405 107.59 10.778 107.734 11.0673C107.879 11.3566 108.048 11.6459 108.265 11.8869C108.482 12.128 108.723 12.345 108.988 12.5138C109.252 12.7066 109.566 12.8512 109.927 12.9477C110.289 13.0682 110.699 13.1165 111.156 13.1165C111.422 13.1165 111.712 13.0923 111.976 13.02C112.242 12.9717 112.531 12.8754 112.772 12.7548C113.038 12.6342 113.278 12.5138 113.495 12.345C113.712 12.1763 113.905 11.9834 114.075 11.7665L112.531 10.4887C112.459 10.5852 112.362 10.6575 112.266 10.7298C112.17 10.8021 112.049 10.8745 111.929 10.9227C111.807 10.9709 111.663 11.0191 111.542 11.0432C111.422 11.0673 111.278 11.0673 111.133 11.0673C110.94 11.0673 110.747 11.0432 110.555 10.9709C110.361 10.9227 110.192 10.8262 110.024 10.7057C109.879 10.5852 109.735 10.4164 109.638 10.2236C109.541 10.0307 109.469 9.78966 109.445 9.50037H114.339C114.339 9.42805 114.364 9.33162 114.364 9.2111C114.364 9.09056 114.364 8.97001 114.364 8.80128C114.387 8.22271 114.315 7.66825 114.17 7.16201ZM109.493 7.88522C109.518 7.66825 109.566 7.4754 109.613 7.30665C109.686 7.1379 109.782 6.96914 109.879 6.84861C109.999 6.72808 110.12 6.60755 110.289 6.53523C110.433 6.4629 110.627 6.41469 110.819 6.41469C111.061 6.41469 111.278 6.4629 111.446 6.53523C111.615 6.60755 111.759 6.72808 111.88 6.87272C112.001 7.01736 112.098 7.162 112.145 7.35486C112.218 7.5236 112.242 7.71646 112.266 7.88522H109.493ZM122.752 12.8994V8.27092C122.752 7.69236 122.68 7.16201 122.584 6.70398C122.463 6.24594 122.271 5.83612 122.029 5.52274C121.788 5.20935 121.475 4.94418 121.089 4.77543C120.703 4.60667 120.269 4.51025 119.739 4.51025C119.546 4.51025 119.329 4.53435 119.137 4.55845C118.943 4.58256 118.774 4.6549 118.581 4.72721C118.412 4.79953 118.268 4.87185 118.124 4.96827C118.004 5.06471 117.884 5.13702 117.787 5.23346V4.7031H115.618V12.8994H117.787V8.41556C117.787 8.05396 117.811 7.76468 117.884 7.52362C117.956 7.28254 118.028 7.0897 118.148 6.94505C118.268 6.80041 118.412 6.70397 118.581 6.63165C118.751 6.55933 118.943 6.53523 119.184 6.53523C119.691 6.53523 120.052 6.67986 120.269 6.99325C120.486 7.30665 120.583 7.78878 120.583 8.43967V12.8754H122.752V12.8994ZM130.756 7.16201C130.611 6.63166 130.37 6.19773 130.081 5.81202C129.791 5.42631 129.43 5.11292 128.996 4.89596C128.562 4.679 128.08 4.55845 127.525 4.55845C126.995 4.55845 126.538 4.6549 126.08 4.87185C125.646 5.08882 125.26 5.3781 124.923 5.76381C124.585 6.14952 124.344 6.58344 124.151 7.11379C123.958 7.64414 123.861 8.22271 123.861 8.84949C123.861 9.30752 123.909 9.71733 123.982 10.0789C124.054 10.4405 124.175 10.778 124.32 11.0673C124.464 11.3566 124.634 11.6459 124.85 11.8869C125.067 12.128 125.308 12.345 125.574 12.5138C125.838 12.7066 126.152 12.8512 126.514 12.9477C126.875 13.0682 127.284 13.1165 127.719 13.1165C127.983 13.1165 128.273 13.0923 128.537 13.02C128.827 12.9717 129.093 12.8754 129.333 12.7548C129.599 12.6342 129.84 12.5138 130.057 12.345C130.274 12.1763 130.467 11.9834 130.636 11.7665L129.093 10.4887C129.02 10.5852 128.924 10.6575 128.827 10.7298C128.731 10.8021 128.61 10.8745 128.49 10.9227C128.369 10.9709 128.225 11.0191 128.104 11.0432C127.983 11.0673 127.839 11.0673 127.694 11.0673C127.501 11.0673 127.308 11.0432 127.116 10.9709C126.923 10.9227 126.755 10.8262 126.586 10.7057C126.441 10.5852 126.297 10.4164 126.2 10.2236C126.104 10.0307 126.032 9.78966 126.007 9.50037H130.9C130.9 9.42805 130.925 9.33162 130.925 9.2111C130.925 9.09056 130.925 8.97001 130.925 8.80128C130.997 8.22271 130.9 7.66825 130.756 7.16201ZM126.08 7.88522C126.104 7.66825 126.152 7.4754 126.2 7.30665C126.272 7.1379 126.369 6.96914 126.466 6.84861C126.586 6.72808 126.706 6.60755 126.875 6.53523C127.019 6.4629 127.211 6.41469 127.405 6.41469C127.645 6.41469 127.863 6.4629 128.031 6.53523C128.2 6.60755 128.345 6.72808 128.465 6.87272C128.586 7.01736 128.682 7.162 128.731 7.35486C128.803 7.5236 128.827 7.71646 128.851 7.88522H126.08ZM139.266 12.8994V4.7031H137.096V9.18699C137.096 9.78966 136.999 10.2477 136.782 10.5611C136.565 10.8745 136.204 11.0191 135.699 11.0191C135.192 11.0191 134.831 10.8745 134.613 10.5611C134.396 10.2477 134.3 9.76556 134.3 9.11466V4.67899H132.13V9.30752C132.13 10.537 132.396 11.4772 132.902 12.104C133.408 12.7306 134.179 13.0682 135.168 13.0682C135.602 13.0682 135.987 12.9959 136.3 12.8512C136.638 12.7066 136.879 12.5379 137.072 12.345V12.8994H139.266ZM146.569 5.11292C146.425 4.96827 146.232 4.82364 145.967 4.7031C145.702 4.58256 145.412 4.53435 145.051 4.53435C144.883 4.53435 144.715 4.55846 144.546 4.58256C144.376 4.60667 144.232 4.679 144.087 4.75132C143.943 4.82364 143.822 4.89596 143.702 4.99238C143.581 5.08882 143.485 5.16113 143.389 5.25756V4.72721H141.218V12.9236H143.389V8.46378C143.389 7.86111 143.485 7.42717 143.702 7.11379C143.919 6.8245 144.281 6.67986 144.787 6.67986C145.026 6.67986 145.268 6.72809 145.461 6.82451C145.678 6.92095 145.871 7.04147 146.04 7.21022L146.569 5.11292Z" fill="#F8F8F8"></path><path d="M114.051 19.3123C114.003 19.3605 113.931 19.3605 113.859 19.3605H113.4V18.8543H113.859C113.931 18.8543 114.003 18.8783 114.051 18.9265C114.099 18.9747 114.123 19.0229 114.123 19.1194C114.148 19.2158 114.099 19.2881 114.051 19.3123ZM114.389 18.8784C114.365 18.8061 114.317 18.7578 114.268 18.7096C114.22 18.6613 114.148 18.6373 114.075 18.6132C114.003 18.589 113.931 18.589 113.859 18.589H113.086V20.3248H113.376V19.6498H113.714L114.051 20.3248H114.413L114.051 19.6257C114.171 19.6015 114.245 19.5292 114.317 19.4569C114.389 19.3605 114.413 19.264 114.413 19.1194C114.437 19.0229 114.413 18.9506 114.389 18.8784ZM114.943 20.0354C114.871 20.2042 114.774 20.3488 114.654 20.4694C114.534 20.5899 114.389 20.6863 114.22 20.7586C114.051 20.831 113.882 20.855 113.689 20.855C113.497 20.855 113.328 20.831 113.159 20.7586C112.991 20.6863 112.846 20.5899 112.725 20.4694C112.605 20.3488 112.508 20.2042 112.436 20.0354C112.363 19.8667 112.339 19.698 112.339 19.5051C112.339 19.3123 112.363 19.1435 112.436 18.9747C112.508 18.8061 112.605 18.6614 112.725 18.5409C112.846 18.4203 112.991 18.3238 113.159 18.2515C113.328 18.1792 113.497 18.155 113.689 18.155C113.882 18.155 114.051 18.1792 114.22 18.2515C114.389 18.3238 114.534 18.4203 114.654 18.5409C114.774 18.6614 114.871 18.8061 114.943 18.9747C115.016 19.1435 115.04 19.3123 115.04 19.5051C115.04 19.698 115.016 19.8667 114.943 20.0354ZM115.185 18.8784C115.112 18.6855 114.991 18.5167 114.846 18.3721C114.702 18.2275 114.534 18.1069 114.34 18.0346C114.148 17.9623 113.931 17.9141 113.714 17.9141C113.497 17.9141 113.28 17.9623 113.086 18.0346C112.894 18.1069 112.725 18.2275 112.58 18.3721C112.436 18.5167 112.315 18.6855 112.243 18.8784C112.171 19.0712 112.122 19.2881 112.122 19.5051C112.122 19.7221 112.171 19.939 112.243 20.1319C112.315 20.3248 112.436 20.4936 112.58 20.6382C112.725 20.7827 112.894 20.9033 113.086 20.9756C113.28 21.0479 113.497 21.0961 113.714 21.0961C113.931 21.0961 114.148 21.0479 114.34 20.9756C114.534 20.9033 114.702 20.7827 114.846 20.6382C114.991 20.4936 115.112 20.3248 115.185 20.1319C115.257 19.939 115.305 19.7221 115.305 19.5051C115.305 19.264 115.257 19.0712 115.185 18.8784Z" fill="#F8F8F8"></path></g></g><defs><clipPath id="clip0_6144_2118"><rect width="147" height="30" fill="white" transform="translate(0.619873 0.919922)"></rect></clipPath></defs></svg>