<svg xmlns="http://www.w3.org/2000/svg" width="119" height="40" viewBox="0 0 119 40" fill="none"><path d="M0.66 38.9199V1.47992H6.926V38.9199H0.66ZM27.1162 39.6999C24.3082 39.6999 21.8556 39.0673 19.7582 37.8019C17.6609 36.5366 16.0316 34.7946 14.8702 32.5759C13.7262 30.3399 13.1542 27.7746 13.1542 24.8799C13.1542 21.9333 13.7436 19.3506 14.9222 17.1319C16.1009 14.9133 17.7389 13.1799 19.8362 11.9319C21.9336 10.6839 24.3602 10.0599 27.1162 10.0599C29.9416 10.0599 32.4029 10.6926 34.5002 11.9579C36.5976 13.2233 38.2269 14.9739 39.3882 17.2099C40.5496 19.4286 41.1302 21.9853 41.1302 24.8799C41.1302 27.7919 40.5409 30.3659 39.3622 32.6019C38.2009 34.8206 36.5716 36.5626 34.4742 37.8279C32.3769 39.0759 29.9242 39.6999 27.1162 39.6999ZM27.1162 33.8239C29.6122 33.8239 31.4669 32.9919 32.6802 31.3279C33.8936 29.6639 34.5002 27.5146 34.5002 24.8799C34.5002 22.1586 33.8849 19.9919 32.6542 18.3799C31.4236 16.7506 29.5776 15.9359 27.1162 15.9359C25.4349 15.9359 24.0482 16.3173 22.9562 17.0799C21.8816 17.8253 21.0842 18.8739 20.5642 20.2259C20.0442 21.5606 19.7842 23.1119 19.7842 24.8799C19.7842 27.6013 20.3996 29.7766 21.6302 31.4059C22.8782 33.0179 24.7069 33.8239 27.1162 33.8239ZM66.2808 38.9199V25.3999C66.2808 24.5159 66.2201 23.5366 66.0988 22.4619C65.9774 21.3873 65.6914 20.3559 65.2408 19.3679C64.8074 18.3626 64.1488 17.5393 63.2648 16.8979C62.3981 16.2566 61.2194 15.9359 59.7288 15.9359C58.9314 15.9359 58.1428 16.0659 57.3628 16.3259C56.5828 16.5859 55.8721 17.0366 55.2308 17.6779C54.6068 18.3019 54.1041 19.1686 53.7228 20.2779C53.3414 21.3699 53.1508 22.7739 53.1508 24.4899L49.4328 22.9039C49.4328 20.5119 49.8921 18.3453 50.8108 16.4039C51.7468 14.4626 53.1161 12.9199 54.9188 11.7759C56.7214 10.6146 58.9401 10.0339 61.5748 10.0339C63.6548 10.0339 65.3708 10.3806 66.7228 11.0739C68.0748 11.7673 69.1494 12.6513 69.9467 13.7259C70.7441 14.8006 71.3334 15.9446 71.7148 17.1579C72.0961 18.3713 72.3388 19.5239 72.4428 20.6159C72.5641 21.6906 72.6248 22.5659 72.6248 23.2419V38.9199H66.2808ZM46.8068 38.9199V10.8399H52.3968V19.5499H53.1508V38.9199H46.8068ZM79.9295 6.57592V0.829921H86.1955V6.57592H79.9295ZM79.9295 38.9199V10.8399H86.1955V38.9199H79.9295ZM106.178 39.6999C103.283 39.6999 100.813 39.0586 98.7678 37.7759C96.7224 36.4759 95.1538 34.7079 94.0618 32.4719C92.9871 30.2359 92.4411 27.7053 92.4238 24.8799C92.4411 22.0026 93.0044 19.4546 94.1138 17.2359C95.2404 14.9999 96.8351 13.2493 98.8978 11.9839C100.96 10.7013 103.413 10.0599 106.256 10.0599C109.445 10.0599 112.14 10.8659 114.342 12.4779C116.56 14.0726 118.008 16.2566 118.684 19.0299L112.444 20.7199C111.958 19.2119 111.152 18.0419 110.026 17.2099C108.899 16.3606 107.616 15.9359 106.178 15.9359C104.548 15.9359 103.205 16.3259 102.148 17.1059C101.09 17.8686 100.31 18.9259 99.8078 20.2779C99.3051 21.6299 99.0538 23.1639 99.0538 24.8799C99.0538 27.5493 99.6518 29.7073 100.848 31.3539C102.044 33.0006 103.82 33.8239 106.178 33.8239C107.842 33.8239 109.15 33.4426 110.104 32.6799C111.074 31.9173 111.802 30.8166 112.288 29.3779L118.684 30.8079C117.817 33.6679 116.3 35.8693 114.134 37.4119C111.967 38.9373 109.315 39.6999 106.178 39.6999Z" fill="#E6EFF5"></path></svg>