<svg xmlns="http://www.w3.org/2000/svg" width="143" height="39" viewBox="0 0 143 39" fill="none"><path d="M0.64 37.9199V0.47992H16.11C16.474 0.47992 16.942 0.497253 17.514 0.53192C18.086 0.549254 18.6147 0.601254 19.1 0.687921C21.2667 1.01725 23.052 1.73659 24.456 2.84592C25.8773 3.95525 26.926 5.35925 27.602 7.05792C28.2953 8.73925 28.642 10.6113 28.642 12.6739C28.642 15.7246 27.8707 18.3506 26.328 20.5519C24.7853 22.7359 22.4193 24.0879 19.23 24.6079L16.552 24.8419H6.906V37.9199H0.64ZM22.142 37.9199L14.758 22.6839L21.128 21.2799L29.24 37.9199H22.142ZM6.906 18.9919H15.85C16.1967 18.9919 16.5867 18.9746 17.02 18.9399C17.4533 18.9053 17.852 18.8359 18.216 18.7319C19.256 18.4719 20.0707 18.0126 20.66 17.3539C21.2667 16.6953 21.6913 15.9499 21.934 15.1179C22.194 14.2859 22.324 13.4713 22.324 12.6739C22.324 11.8766 22.194 11.0619 21.934 10.2299C21.6913 9.38059 21.2667 8.62659 20.66 7.96792C20.0707 7.30925 19.256 6.84992 18.216 6.58992C17.852 6.48592 17.4533 6.42525 17.02 6.40792C16.5867 6.37325 16.1967 6.35592 15.85 6.35592H6.906V18.9919ZM47.7341 38.6999C44.8915 38.6999 42.3955 38.0846 40.2461 36.8539C38.0968 35.6233 36.4155 33.9159 35.2021 31.7319C34.0061 29.5479 33.4081 27.0346 33.4081 24.1919C33.4081 21.1239 33.9975 18.4633 35.1761 16.2099C36.3548 13.9393 37.9928 12.1799 40.0901 10.9319C42.1875 9.68392 44.6141 9.05992 47.3701 9.05992C50.2821 9.05992 52.7521 9.74459 54.7801 11.1139C56.8255 12.4659 58.3421 14.3813 59.3301 16.8599C60.3181 19.3386 60.6908 22.2593 60.4481 25.6219H54.2341V23.3339C54.2168 20.2833 53.6795 18.0559 52.6221 16.6519C51.5648 15.2479 49.9008 14.5459 47.6301 14.5459C45.0648 14.5459 43.1581 15.3433 41.9101 16.9379C40.6621 18.5153 40.0381 20.8293 40.0381 23.8799C40.0381 26.7226 40.6621 28.9239 41.9101 30.4839C43.1581 32.0439 44.9781 32.8239 47.3701 32.8239C48.9128 32.8239 50.2388 32.4859 51.3481 31.8099C52.4748 31.1166 53.3415 30.1199 53.9481 28.8199L60.1361 30.6919C59.0615 33.2226 57.3975 35.1899 55.1441 36.5939C52.9081 37.9979 50.4381 38.6999 47.7341 38.6999ZM38.0621 25.6219V20.8899H57.3801V25.6219H38.0621ZM73.5936 38.6999C71.5656 38.6999 69.8496 38.3186 68.4456 37.5559C67.0416 36.7759 65.9756 35.7446 65.2476 34.4619C64.5369 33.1793 64.1816 31.7666 64.1816 30.2239C64.1816 28.8719 64.4069 27.6586 64.8576 26.5839C65.3082 25.4919 66.0016 24.5559 66.9376 23.7759C67.8736 22.9786 69.0869 22.3286 70.5776 21.8259C71.7042 21.4619 73.0216 21.1326 74.5296 20.8379C76.0549 20.5433 77.7016 20.2746 79.4696 20.0319C81.2549 19.7719 83.1182 19.4946 85.0596 19.1999L82.8236 20.4739C82.8409 18.5326 82.4076 17.1026 81.5236 16.1839C80.6396 15.2653 79.1489 14.8059 77.0516 14.8059C75.7862 14.8059 74.5642 15.1006 73.3856 15.6899C72.2069 16.2793 71.3836 17.2933 70.9156 18.7319L65.1956 16.9379C65.8889 14.5633 67.2062 12.6566 69.1476 11.2179C71.1062 9.77925 73.7409 9.05992 77.0516 9.05992C79.5476 9.05992 81.7402 9.46725 83.6296 10.2819C85.5362 11.0966 86.9489 12.4313 87.8676 14.2859C88.3702 15.2739 88.6736 16.2879 88.7776 17.3279C88.8816 18.3506 88.9336 19.4686 88.9336 20.6819V37.9199H83.4476V31.8359L84.3576 32.8239C83.0922 34.8519 81.6102 36.3426 79.9116 37.2959C78.2302 38.2319 76.1242 38.6999 73.5936 38.6999ZM74.8416 33.7079C76.2629 33.7079 77.4762 33.4566 78.4816 32.9539C79.4869 32.4513 80.2842 31.8359 80.8736 31.1079C81.4802 30.3799 81.8876 29.6953 82.0956 29.0539C82.4249 28.2566 82.6069 27.3466 82.6416 26.3239C82.6936 25.2839 82.7196 24.4433 82.7196 23.8019L84.6436 24.3739C82.7542 24.6686 81.1336 24.9286 79.7816 25.1539C78.4296 25.3793 77.2682 25.5959 76.2976 25.8039C75.3269 25.9946 74.4689 26.2113 73.7236 26.4539C72.9956 26.7139 72.3802 27.0173 71.8776 27.3639C71.3749 27.7106 70.9849 28.1093 70.7076 28.5599C70.4476 29.0106 70.3176 29.5393 70.3176 30.1459C70.3176 30.8393 70.4909 31.4546 70.8376 31.9919C71.1842 32.5119 71.6869 32.9279 72.3456 33.2399C73.0216 33.5519 73.8536 33.7079 74.8416 33.7079ZM107.897 38.6999C105.002 38.6999 102.532 38.0586 100.487 36.7759C98.4412 35.4759 96.8725 33.7079 95.7805 31.4719C94.7058 29.2359 94.1598 26.7053 94.1425 23.8799C94.1598 21.0026 94.7232 18.4546 95.8325 16.2359C96.9592 13.9999 98.5538 12.2493 100.617 10.9839C102.679 9.70125 105.132 9.05992 107.975 9.05992C111.164 9.05992 113.859 9.86592 116.061 11.4779C118.279 13.0726 119.727 15.2566 120.403 18.0299L114.163 19.7199C113.677 18.2119 112.871 17.0419 111.745 16.2099C110.618 15.3606 109.335 14.9359 107.897 14.9359C106.267 14.9359 104.924 15.3259 103.867 16.1059C102.809 16.8686 102.029 17.9259 101.527 19.2779C101.024 20.6299 100.773 22.1639 100.773 23.8799C100.773 26.5493 101.371 28.7073 102.567 30.3539C103.763 32.0006 105.539 32.8239 107.897 32.8239C109.561 32.8239 110.869 32.4426 111.823 31.6799C112.793 30.9173 113.521 29.8166 114.007 28.3779L120.403 29.8079C119.536 32.6679 118.019 34.8693 115.853 36.4119C113.686 37.9373 111.034 38.6999 107.897 38.6999ZM142.071 37.9199C140.216 38.2666 138.396 38.4139 136.611 38.3619C134.843 38.3273 133.257 38.0066 131.853 37.3999C130.449 36.7759 129.383 35.7966 128.655 34.4619C128.013 33.2486 127.675 32.0093 127.641 30.7439C127.606 29.4786 127.589 28.0486 127.589 26.4539V2.03992H133.829V26.0899C133.829 27.2166 133.837 28.2046 133.855 29.0539C133.889 29.9033 134.071 30.5966 134.401 31.1339C135.025 32.1739 136.021 32.7546 137.391 32.8759C138.76 32.9973 140.32 32.9279 142.071 32.6679V37.9199ZM122.493 14.7539V9.83992H142.071V14.7539H122.493Z" fill="#E6EFF5"></path></svg>