<svg xmlns="http://www.w3.org/2000/svg" width="272" height="39" viewBox="0 0 272 39" fill="none"><path d="M11.544 37.9199L0.598 0.47992H7.176L14.638 27.5199L22.074 0.53192L28.652 0.47992L36.114 27.5199L43.55 0.47992H50.128L39.208 37.9199H33.02L25.35 11.2959L17.732 37.9199H11.544ZM63.6748 38.6999C60.8668 38.6999 58.4141 38.0673 56.3168 36.8019C54.2195 35.5366 52.5901 33.7946 51.4288 31.5759C50.2848 29.3399 49.7128 26.7746 49.7128 23.8799C49.7128 20.9333 50.3021 18.3506 51.4808 16.1319C52.6595 13.9133 54.2975 12.1799 56.3948 10.9319C58.4921 9.68392 60.9188 9.05992 63.6748 9.05992C66.5001 9.05992 68.9615 9.69259 71.0588 10.9579C73.1561 12.2233 74.7855 13.9739 75.9468 16.2099C77.1081 18.4286 77.6888 20.9853 77.6888 23.8799C77.6888 26.7919 77.0995 29.3659 75.9208 31.6019C74.7595 33.8206 73.1301 35.5626 71.0328 36.8279C68.9355 38.0759 66.4828 38.6999 63.6748 38.6999ZM63.6748 32.8239C66.1708 32.8239 68.0255 31.9919 69.2388 30.3279C70.4521 28.6639 71.0588 26.5146 71.0588 23.8799C71.0588 21.1586 70.4435 18.9919 69.2128 17.3799C67.9821 15.7506 66.1361 14.9359 63.6748 14.9359C61.9935 14.9359 60.6068 15.3173 59.5148 16.0799C58.4401 16.8253 57.6428 17.8739 57.1228 19.2259C56.6028 20.5606 56.3428 22.1119 56.3428 23.8799C56.3428 26.6013 56.9581 28.7766 58.1888 30.4059C59.4368 32.0179 61.2655 32.8239 63.6748 32.8239ZM83.4173 37.9199V9.83992H88.9553V16.6779L88.2793 15.7939C88.626 14.8579 89.0853 14.0086 89.6573 13.2459C90.2467 12.4659 90.9487 11.8246 91.7633 11.3219C92.4567 10.8539 93.2193 10.4899 94.0513 10.2299C94.9007 9.95259 95.7673 9.78792 96.6513 9.73592C97.5353 9.66659 98.3933 9.70125 99.2253 9.83992V15.6899C98.3933 15.4473 97.4313 15.3693 96.3393 15.4559C95.2647 15.5426 94.294 15.8459 93.4273 16.3659C92.5607 16.8339 91.85 17.4319 91.2953 18.1599C90.758 18.8879 90.3593 19.7199 90.0993 20.6559C89.8393 21.5746 89.7093 22.5713 89.7093 23.6459V37.9199H83.4173ZM114.937 38.6999C112.354 38.6999 110.101 38.0499 108.177 36.7499C106.253 35.4499 104.762 33.6819 103.705 31.4459C102.648 29.2099 102.119 26.6879 102.119 23.8799C102.119 21.0373 102.648 18.5066 103.705 16.2879C104.78 14.0519 106.296 12.2926 108.255 11.0099C110.214 9.70992 112.519 9.05992 115.171 9.05992C117.84 9.05992 120.076 9.70992 121.879 11.0099C123.699 12.2926 125.077 14.0519 126.013 16.2879C126.949 18.5239 127.417 21.0546 127.417 23.8799C127.417 26.6706 126.949 29.1926 126.013 31.4459C125.077 33.6819 123.682 35.4499 121.827 36.7499C119.972 38.0499 117.676 38.6999 114.937 38.6999ZM115.899 33.0839C117.58 33.0839 118.932 32.7026 119.955 31.9399C120.995 31.1599 121.749 30.0766 122.217 28.6899C122.702 27.3033 122.945 25.6999 122.945 23.8799C122.945 22.0426 122.702 20.4393 122.217 19.0699C121.749 17.6833 121.012 16.6086 120.007 15.8459C119.002 15.0659 117.702 14.6759 116.107 14.6759C114.426 14.6759 113.039 15.0919 111.947 15.9239C110.855 16.7386 110.049 17.8479 109.529 19.2519C109.009 20.6386 108.749 22.1813 108.749 23.8799C108.749 25.5959 109 27.1559 109.503 28.5599C110.023 29.9466 110.812 31.0473 111.869 31.8619C112.926 32.6766 114.27 33.0839 115.899 33.0839ZM122.945 37.9199V18.2119H122.165V0.47992H128.483V37.9199H122.945ZM135.773 37.9199V0.47992H151.243C151.607 0.47992 152.075 0.497253 152.647 0.53192C153.219 0.549254 153.747 0.601254 154.233 0.687921C156.399 1.01725 158.185 1.73659 159.589 2.84592C161.01 3.95525 162.059 5.35925 162.735 7.05792C163.428 8.73925 163.775 10.6113 163.775 12.6739C163.775 14.7193 163.428 16.5913 162.735 18.2899C162.041 19.9713 160.984 21.3666 159.563 22.4759C158.159 23.5853 156.382 24.3046 154.233 24.6339C153.747 24.7033 153.21 24.7553 152.621 24.7899C152.049 24.8246 151.589 24.8419 151.243 24.8419H142.039V37.9199H135.773ZM142.039 18.9919H150.983C151.329 18.9919 151.719 18.9746 152.153 18.9399C152.586 18.9053 152.985 18.8359 153.349 18.7319C154.389 18.4719 155.203 18.0126 155.793 17.3539C156.399 16.6953 156.824 15.9499 157.067 15.1179C157.327 14.2859 157.457 13.4713 157.457 12.6739C157.457 11.8766 157.327 11.0619 157.067 10.2299C156.824 9.38059 156.399 8.62659 155.793 7.96792C155.203 7.30925 154.389 6.84992 153.349 6.58992C152.985 6.48592 152.586 6.42525 152.153 6.40792C151.719 6.37325 151.329 6.35592 150.983 6.35592H142.039V18.9919ZM168.984 37.9199V9.83992H174.522V16.6779L173.846 15.7939C174.192 14.8579 174.652 14.0086 175.224 13.2459C175.813 12.4659 176.515 11.8246 177.33 11.3219C178.023 10.8539 178.786 10.4899 179.618 10.2299C180.467 9.95259 181.334 9.78792 182.218 9.73592C183.102 9.66659 183.96 9.70125 184.792 9.83992V15.6899C183.96 15.4473 182.998 15.3693 181.906 15.4559C180.831 15.5426 179.86 15.8459 178.994 16.3659C178.127 16.8339 177.416 17.4319 176.862 18.1599C176.324 18.8879 175.926 19.7199 175.666 20.6559C175.406 21.5746 175.276 22.5713 175.276 23.6459V37.9199H168.984ZM202.011 38.6999C199.169 38.6999 196.673 38.0846 194.523 36.8539C192.374 35.6233 190.693 33.9159 189.479 31.7319C188.283 29.5479 187.685 27.0346 187.685 24.1919C187.685 21.1239 188.275 18.4633 189.453 16.2099C190.632 13.9393 192.27 12.1799 194.367 10.9319C196.465 9.68392 198.891 9.05992 201.647 9.05992C204.559 9.05992 207.029 9.74459 209.057 11.1139C211.103 12.4659 212.619 14.3813 213.607 16.8599C214.595 19.3386 214.968 22.2593 214.725 25.6219H208.511V23.3339C208.494 20.2833 207.957 18.0559 206.899 16.6519C205.842 15.2479 204.178 14.5459 201.907 14.5459C199.342 14.5459 197.435 15.3433 196.187 16.9379C194.939 18.5153 194.315 20.8293 194.315 23.8799C194.315 26.7226 194.939 28.9239 196.187 30.4839C197.435 32.0439 199.255 32.8239 201.647 32.8239C203.19 32.8239 204.516 32.4859 205.625 31.8099C206.752 31.1166 207.619 30.1199 208.225 28.8199L214.413 30.6919C213.339 33.2226 211.675 35.1899 209.421 36.5939C207.185 37.9979 204.715 38.6999 202.011 38.6999ZM192.339 25.6219V20.8899H211.657V25.6219H192.339ZM231.369 38.6999C227.902 38.6999 225.085 37.9199 222.919 36.3599C220.752 34.7999 219.435 32.6073 218.967 29.7819L225.363 28.7939C225.692 30.1806 226.42 31.2726 227.547 32.0699C228.673 32.8673 230.095 33.2659 231.811 33.2659C233.319 33.2659 234.48 32.9713 235.295 32.3819C236.127 31.7753 236.543 30.9519 236.543 29.9119C236.543 29.2706 236.387 28.7593 236.075 28.3779C235.78 27.9793 235.121 27.5979 234.099 27.2339C233.076 26.8699 231.507 26.4106 229.393 25.8559C227.035 25.2319 225.163 24.5646 223.777 23.8539C222.39 23.1259 221.393 22.2679 220.787 21.2799C220.18 20.2919 219.877 19.0959 219.877 17.6919C219.877 15.9413 220.336 14.4159 221.255 13.1159C222.173 11.8159 223.456 10.8193 225.103 10.1259C226.749 9.41525 228.691 9.05992 230.927 9.05992C233.111 9.05992 235.043 9.39792 236.725 10.0739C238.423 10.7499 239.793 11.7119 240.833 12.9599C241.873 14.2079 242.514 15.6726 242.757 17.3539L236.361 18.4979C236.205 17.3019 235.659 16.3573 234.723 15.6639C233.804 14.9706 232.573 14.5806 231.031 14.4939C229.557 14.4073 228.37 14.6326 227.469 15.1699C226.567 15.6899 226.117 16.4266 226.117 17.3799C226.117 17.9173 226.299 18.3766 226.663 18.7579C227.027 19.1393 227.755 19.5206 228.847 19.9019C229.956 20.2833 231.603 20.7513 233.787 21.3059C236.023 21.8779 237.808 22.5366 239.143 23.2819C240.495 24.0099 241.465 24.8853 242.055 25.9079C242.661 26.9306 242.965 28.1699 242.965 29.6259C242.965 32.4513 241.933 34.6699 239.871 36.2819C237.825 37.8939 234.991 38.6999 231.369 38.6999ZM259.502 38.6999C256.035 38.6999 253.218 37.9199 251.052 36.3599C248.885 34.7999 247.568 32.6073 247.1 29.7819L253.496 28.7939C253.825 30.1806 254.553 31.2726 255.68 32.0699C256.806 32.8673 258.228 33.2659 259.944 33.2659C261.452 33.2659 262.613 32.9713 263.428 32.3819C264.26 31.7753 264.676 30.9519 264.676 29.9119C264.676 29.2706 264.52 28.7593 264.208 28.3779C263.913 27.9793 263.254 27.5979 262.232 27.2339C261.209 26.8699 259.64 26.4106 257.526 25.8559C255.168 25.2319 253.296 24.5646 251.91 23.8539C250.523 23.1259 249.526 22.2679 248.92 21.2799C248.313 20.2919 248.01 19.0959 248.01 17.6919C248.01 15.9413 248.469 14.4159 249.388 13.1159C250.306 11.8159 251.589 10.8193 253.236 10.1259C254.882 9.41525 256.824 9.05992 259.06 9.05992C261.244 9.05992 263.176 9.39792 264.858 10.0739C266.556 10.7499 267.926 11.7119 268.966 12.9599C270.006 14.2079 270.647 15.6726 270.89 17.3539L264.494 18.4979C264.338 17.3019 263.792 16.3573 262.856 15.6639C261.937 14.9706 260.706 14.5806 259.164 14.4939C257.69 14.4073 256.503 14.6326 255.602 15.1699C254.7 15.6899 254.25 16.4266 254.25 17.3799C254.25 17.9173 254.432 18.3766 254.796 18.7579C255.16 19.1393 255.888 19.5206 256.98 19.9019C258.089 20.2833 259.736 20.7513 261.92 21.3059C264.156 21.8779 265.941 22.5366 267.276 23.2819C268.628 24.0099 269.598 24.8853 270.188 25.9079C270.794 26.9306 271.098 28.1699 271.098 29.6259C271.098 32.4513 270.066 34.6699 268.004 36.2819C265.958 37.8939 263.124 38.6999 259.502 38.6999Z" fill="#E6EFF5"></path></svg>