<svg xmlns="http://www.w3.org/2000/svg" width="82" height="40" viewBox="0 0 82 40" fill="none"><path d="M0.16 6.57592V0.829921H6.426V6.57592H0.16ZM0.16 38.9199V10.8399H6.426V38.9199H0.16ZM30.0482 39.6999C26.3042 39.6999 23.0976 38.8853 20.4282 37.2559C17.7589 35.6093 15.7049 33.3213 14.2662 30.3919C12.8449 27.4626 12.1342 24.0653 12.1342 20.1999C12.1342 16.3346 12.8449 12.9373 14.2662 10.0079C15.7049 7.07859 17.7589 4.79925 20.4282 3.16992C23.0976 1.52325 26.3042 0.699921 30.0482 0.699921C33.7922 0.699921 36.9989 1.52325 39.6682 3.16992C42.3549 4.79925 44.4089 7.07859 45.8302 10.0079C47.2689 12.9373 47.9882 16.3346 47.9882 20.1999C47.9882 24.0653 47.2689 27.4626 45.8302 30.3919C44.4089 33.3213 42.3549 35.6093 39.6682 37.2559C36.9989 38.8853 33.7922 39.6999 30.0482 39.6999ZM30.0482 33.7979C32.5616 33.8153 34.6502 33.2606 36.3142 32.1339C37.9956 31.0073 39.2522 29.4213 40.0842 27.3759C40.9336 25.3306 41.3582 22.9386 41.3582 20.1999C41.3582 17.4613 40.9336 15.0866 40.0842 13.0759C39.2522 11.0479 37.9956 9.47059 36.3142 8.34392C34.6502 7.21725 32.5616 6.63659 30.0482 6.60192C27.5349 6.58459 25.4462 7.13925 23.7822 8.26592C22.1182 9.39259 20.8616 10.9786 20.0122 13.0239C19.1802 15.0693 18.7642 17.4613 18.7642 20.1999C18.7642 22.9386 19.1802 25.3219 20.0122 27.3499C20.8442 29.3606 22.0922 30.9293 23.7562 32.0559C25.4376 33.1826 27.5349 33.7633 30.0482 33.7979ZM67.0214 39.6999C64.2828 39.6999 61.8128 39.2233 59.6114 38.2699C57.4274 37.3166 55.6248 35.9559 54.2034 34.1879C52.7994 32.4026 51.9068 30.2879 51.5254 27.8439L58.0254 26.8559C58.5801 29.0746 59.7154 30.7906 61.4314 32.0039C63.1648 33.2173 65.1581 33.8239 67.4114 33.8239C68.7461 33.8239 70.0028 33.6159 71.1814 33.1999C72.3601 32.7839 73.3134 32.1773 74.0414 31.3799C74.7868 30.5826 75.1594 29.6033 75.1594 28.4419C75.1594 27.9219 75.0728 27.4453 74.8994 27.0119C74.7261 26.5613 74.4661 26.1626 74.1194 25.8159C73.7901 25.4693 73.3568 25.1573 72.8194 24.8799C72.2994 24.5853 71.6928 24.3339 70.9994 24.1259L61.3274 21.2659C60.4954 21.0233 59.5941 20.7026 58.6234 20.3039C57.6701 19.8879 56.7601 19.3246 55.8934 18.6139C55.0441 17.8859 54.3421 16.9673 53.7874 15.8579C53.2501 14.7313 52.9814 13.3446 52.9814 11.6979C52.9814 9.28859 53.5881 7.26925 54.8014 5.63992C56.0321 3.99325 57.6788 2.76259 59.7414 1.94792C61.8214 1.13325 64.1268 0.734586 66.6574 0.75192C69.2228 0.769253 71.5108 1.21125 73.5214 2.07792C75.5321 2.92725 77.2134 4.16659 78.5654 5.79592C79.9174 7.42525 80.8708 9.39259 81.4254 11.6979L74.6914 12.8679C74.4141 11.5506 73.8768 10.4326 73.0794 9.51392C72.2994 8.57792 71.3374 7.86725 70.1934 7.38192C69.0668 6.89659 67.8621 6.63659 66.5794 6.60192C65.3314 6.58459 64.1701 6.77525 63.0954 7.17392C62.0381 7.55525 61.1801 8.10992 60.5214 8.83792C59.8801 9.56592 59.5594 10.4153 59.5594 11.3859C59.5594 12.3046 59.8368 13.0586 60.3914 13.6479C60.9461 14.2199 61.6308 14.6793 62.4454 15.0259C63.2774 15.3553 64.1181 15.6326 64.9674 15.8579L71.6754 17.7299C72.5941 17.9726 73.6254 18.3019 74.7694 18.7179C75.9134 19.1339 77.0141 19.7146 78.0714 20.4599C79.1288 21.2053 79.9954 22.1846 80.6714 23.3979C81.3648 24.6113 81.7114 26.1539 81.7114 28.0259C81.7114 29.9673 81.3041 31.6746 80.4894 33.1479C79.6921 34.6039 78.6088 35.8173 77.2394 36.7879C75.8701 37.7586 74.3014 38.4866 72.5334 38.9719C70.7828 39.4573 68.9454 39.6999 67.0214 39.6999Z" fill="#E6EFF5"></path></svg>