<svg xmlns="http://www.w3.org/2000/svg" width="109" height="39" viewBox="0 0 109 39" fill="none"><path d="M11.128 38.6999C8.268 38.6999 5.88467 37.9546 3.978 36.4639C2.08867 34.9733 0.762667 32.9626 0 30.4319L6.188 28.9499C6.37867 30.0073 6.93333 30.9173 7.852 31.6799C8.77067 32.4426 9.78467 32.8239 10.894 32.8239C11.622 32.8239 12.3933 32.6333 13.208 32.2519C14.0227 31.8533 14.6293 31.2206 15.028 30.3539C15.2707 29.7993 15.4093 29.1406 15.444 28.3779C15.496 27.5979 15.522 26.6966 15.522 25.6739V0.47992H21.866V25.6739C21.866 26.8353 21.8573 27.8579 21.84 28.7419C21.84 29.6086 21.7533 30.4319 21.58 31.2119C21.424 31.9746 21.1033 32.7633 20.618 33.5779C19.5953 35.3459 18.2607 36.6459 16.614 37.4779C14.9673 38.2926 13.1387 38.6999 11.128 38.6999ZM37.5428 38.6999C35.5148 38.6999 33.7988 38.3186 32.3948 37.5559C30.9908 36.7759 29.9248 35.7446 29.1968 34.4619C28.4861 33.1793 28.1308 31.7666 28.1308 30.2239C28.1308 28.8719 28.3561 27.6586 28.8068 26.5839C29.2574 25.4919 29.9508 24.5559 30.8868 23.7759C31.8228 22.9786 33.0361 22.3286 34.5268 21.8259C35.6534 21.4619 36.9708 21.1326 38.4788 20.8379C40.0041 20.5433 41.6508 20.2746 43.4188 20.0319C45.2041 19.7719 47.0674 19.4946 49.0088 19.1999L46.7728 20.4739C46.7901 18.5326 46.3568 17.1026 45.4728 16.1839C44.5888 15.2653 43.0981 14.8059 41.0008 14.8059C39.7354 14.8059 38.5134 15.1006 37.3348 15.6899C36.1561 16.2793 35.3328 17.2933 34.8648 18.7319L29.1448 16.9379C29.8381 14.5633 31.1554 12.6566 33.0968 11.2179C35.0554 9.77925 37.6901 9.05992 41.0008 9.05992C43.4968 9.05992 45.6894 9.46725 47.5788 10.2819C49.4854 11.0966 50.8981 12.4313 51.8168 14.2859C52.3195 15.2739 52.6228 16.2879 52.7268 17.3279C52.8308 18.3506 52.8828 19.4686 52.8828 20.6819V37.9199H47.3968V31.8359L48.3068 32.8239C47.0414 34.8519 45.5594 36.3426 43.8608 37.2959C42.1794 38.2319 40.0734 38.6999 37.5428 38.6999ZM38.7908 33.7079C40.2121 33.7079 41.4254 33.4566 42.4308 32.9539C43.4361 32.4513 44.2334 31.8359 44.8228 31.1079C45.4294 30.3799 45.8368 29.6953 46.0448 29.0539C46.3741 28.2566 46.5561 27.3466 46.5908 26.3239C46.6428 25.2839 46.6688 24.4433 46.6688 23.8019L48.5928 24.3739C46.7034 24.6686 45.0828 24.9286 43.7308 25.1539C42.3788 25.3793 41.2174 25.5959 40.2468 25.8039C39.2761 25.9946 38.4181 26.2113 37.6728 26.4539C36.9448 26.7139 36.3294 27.0173 35.8268 27.3639C35.3241 27.7106 34.9341 28.1093 34.6568 28.5599C34.3968 29.0106 34.2668 29.5393 34.2668 30.1459C34.2668 30.8393 34.4401 31.4546 34.7868 31.9919C35.1334 32.5119 35.6361 32.9279 36.2948 33.2399C36.9708 33.5519 37.8028 33.7079 38.7908 33.7079ZM66.2281 37.9199L56.0361 9.83992H62.3021L69.3741 30.1979L76.4201 9.83992H82.7121L72.5201 37.9199H66.2281ZM93.6561 38.6999C91.6281 38.6999 89.9121 38.3186 88.5081 37.5559C87.1041 36.7759 86.0381 35.7446 85.3101 34.4619C84.5994 33.1793 84.2441 31.7666 84.2441 30.2239C84.2441 28.8719 84.4694 27.6586 84.9201 26.5839C85.3707 25.4919 86.0641 24.5559 87.0001 23.7759C87.9361 22.9786 89.1494 22.3286 90.6401 21.8259C91.7667 21.4619 93.0841 21.1326 94.5921 20.8379C96.1174 20.5433 97.7641 20.2746 99.5321 20.0319C101.317 19.7719 103.181 19.4946 105.122 19.1999L102.886 20.4739C102.903 18.5326 102.47 17.1026 101.586 16.1839C100.702 15.2653 99.2114 14.8059 97.1141 14.8059C95.8487 14.8059 94.6267 15.1006 93.4481 15.6899C92.2694 16.2793 91.4461 17.2933 90.9781 18.7319L85.2581 16.9379C85.9514 14.5633 87.2687 12.6566 89.2101 11.2179C91.1687 9.77925 93.8034 9.05992 97.1141 9.05992C99.6101 9.05992 101.803 9.46725 103.692 10.2819C105.599 11.0966 107.011 12.4313 107.93 14.2859C108.433 15.2739 108.736 16.2879 108.84 17.3279C108.944 18.3506 108.996 19.4686 108.996 20.6819V37.9199H103.51V31.8359L104.42 32.8239C103.155 34.8519 101.673 36.3426 99.9741 37.2959C98.2927 38.2319 96.1867 38.6999 93.6561 38.6999ZM94.9041 33.7079C96.3254 33.7079 97.5387 33.4566 98.5441 32.9539C99.5494 32.4513 100.347 31.8359 100.936 31.1079C101.543 30.3799 101.95 29.6953 102.158 29.0539C102.487 28.2566 102.669 27.3466 102.704 26.3239C102.756 25.2839 102.782 24.4433 102.782 23.8019L104.706 24.3739C102.817 24.6686 101.196 24.9286 99.8441 25.1539C98.4921 25.3793 97.3307 25.5959 96.3601 25.8039C95.3894 25.9946 94.5314 26.2113 93.7861 26.4539C93.0581 26.7139 92.4427 27.0173 91.9401 27.3639C91.4374 27.7106 91.0474 28.1093 90.7701 28.5599C90.5101 29.0106 90.3801 29.5393 90.3801 30.1459C90.3801 30.8393 90.5534 31.4546 90.9001 31.9919C91.2467 32.5119 91.7494 32.9279 92.4081 33.2399C93.0841 33.5519 93.9161 33.7079 94.9041 33.7079Z" fill="#E6EFF5"></path></svg>