<svg xmlns="http://www.w3.org/2000/svg" width="173" height="40" viewBox="0 0 173 40" fill="none"><path d="M0.16 38.9199V1.47992H6.426V33.0439H22.962V38.9199H0.16ZM35.2186 39.6999C33.1906 39.6999 31.4746 39.3186 30.0706 38.5559C28.6666 37.7759 27.6006 36.7446 26.8726 35.4619C26.1619 34.1793 25.8066 32.7666 25.8066 31.2239C25.8066 29.8719 26.0319 28.6586 26.4826 27.5839C26.9332 26.4919 27.6266 25.5559 28.5626 24.7759C29.4986 23.9786 30.7119 23.3286 32.2026 22.8259C33.3292 22.4619 34.6466 22.1326 36.1546 21.8379C37.6799 21.5433 39.3266 21.2746 41.0946 21.0319C42.8799 20.7719 44.7432 20.4946 46.6846 20.1999L44.4486 21.4739C44.4659 19.5326 44.0326 18.1026 43.1486 17.1839C42.2646 16.2653 40.7739 15.8059 38.6766 15.8059C37.4112 15.8059 36.1892 16.1006 35.0106 16.6899C33.8319 17.2793 33.0086 18.2933 32.5406 19.7319L26.8206 17.9379C27.5139 15.5633 28.8312 13.6566 30.7726 12.2179C32.7312 10.7793 35.3659 10.0599 38.6766 10.0599C41.1726 10.0599 43.3652 10.4673 45.2546 11.2819C47.1612 12.0966 48.5739 13.4313 49.4926 15.2859C49.9952 16.2739 50.2986 17.2879 50.4026 18.3279C50.5066 19.3506 50.5586 20.4686 50.5586 21.6819V38.9199H45.0726V32.8359L45.9826 33.8239C44.7172 35.8519 43.2352 37.3426 41.5366 38.2959C39.8552 39.2319 37.7492 39.6999 35.2186 39.6999ZM36.4666 34.7079C37.8879 34.7079 39.1012 34.4566 40.1066 33.9539C41.1119 33.4513 41.9092 32.8359 42.4986 32.1079C43.1052 31.3799 43.5126 30.6953 43.7206 30.0539C44.0499 29.2566 44.2319 28.3466 44.2666 27.3239C44.3186 26.2839 44.3446 25.4433 44.3446 24.8019L46.2686 25.3739C44.3792 25.6686 42.7586 25.9286 41.4066 26.1539C40.0546 26.3793 38.8932 26.5959 37.9226 26.8039C36.9519 26.9946 36.0939 27.2113 35.3486 27.4539C34.6206 27.7139 34.0052 28.0173 33.5026 28.3639C32.9999 28.7106 32.6099 29.1093 32.3326 29.5599C32.0726 30.0106 31.9426 30.5393 31.9426 31.1459C31.9426 31.8393 32.1159 32.4546 32.4626 32.9919C32.8092 33.5119 33.3119 33.9279 33.9706 34.2399C34.6466 34.5519 35.4786 34.7079 36.4666 34.7079ZM57.3275 38.9199V10.8399H62.8655V17.6779L62.1895 16.7939C62.5362 15.8579 62.9955 15.0086 63.5675 14.2459C64.1568 13.4659 64.8588 12.8246 65.6735 12.3219C66.3668 11.8539 67.1295 11.4899 67.9615 11.2299C68.8108 10.9526 69.6775 10.7879 70.5615 10.7359C71.4455 10.6666 72.3035 10.7013 73.1355 10.8399V16.6899C72.3035 16.4473 71.3415 16.3693 70.2495 16.4559C69.1748 16.5426 68.2042 16.8459 67.3375 17.3659C66.4708 17.8339 65.7602 18.4319 65.2055 19.1599C64.6682 19.8879 64.2695 20.7199 64.0095 21.6559C63.7495 22.5746 63.6195 23.5713 63.6195 24.6459V38.9199H57.3275ZM85.2889 39.6999C83.2609 39.6999 81.5449 39.3186 80.1409 38.5559C78.7369 37.7759 77.6709 36.7446 76.9429 35.4619C76.2322 34.1793 75.8769 32.7666 75.8769 31.2239C75.8769 29.8719 76.1022 28.6586 76.5529 27.5839C77.0035 26.4919 77.6969 25.5559 78.6329 24.7759C79.5689 23.9786 80.7822 23.3286 82.2729 22.8259C83.3995 22.4619 84.7169 22.1326 86.2249 21.8379C87.7502 21.5433 89.3969 21.2746 91.1649 21.0319C92.9502 20.7719 94.8135 20.4946 96.7549 20.1999L94.5189 21.4739C94.5362 19.5326 94.1029 18.1026 93.2189 17.1839C92.3349 16.2653 90.8442 15.8059 88.7469 15.8059C87.4815 15.8059 86.2595 16.1006 85.0809 16.6899C83.9022 17.2793 83.0789 18.2933 82.6109 19.7319L76.8909 17.9379C77.5842 15.5633 78.9015 13.6566 80.8429 12.2179C82.8015 10.7793 85.4362 10.0599 88.7469 10.0599C91.2429 10.0599 93.4355 10.4673 95.3249 11.2819C97.2315 12.0966 98.6442 13.4313 99.5629 15.2859C100.066 16.2739 100.369 17.2879 100.473 18.3279C100.577 19.3506 100.629 20.4686 100.629 21.6819V38.9199H95.1429V32.8359L96.0529 33.8239C94.7875 35.8519 93.3055 37.3426 91.6069 38.2959C89.9255 39.2319 87.8195 39.6999 85.2889 39.6999ZM86.5369 34.7079C87.9582 34.7079 89.1715 34.4566 90.1769 33.9539C91.1822 33.4513 91.9795 32.8359 92.5689 32.1079C93.1755 31.3799 93.5829 30.6953 93.7909 30.0539C94.1202 29.2566 94.3022 28.3466 94.3369 27.3239C94.3889 26.2839 94.4149 25.4433 94.4149 24.8019L96.3389 25.3739C94.4495 25.6686 92.8289 25.9286 91.4769 26.1539C90.1249 26.3793 88.9635 26.5959 87.9929 26.8039C87.0222 26.9946 86.1642 27.2113 85.4189 27.4539C84.6909 27.7139 84.0755 28.0173 83.5729 28.3639C83.0702 28.7106 82.6802 29.1093 82.4029 29.5599C82.1429 30.0106 82.0129 30.5393 82.0129 31.1459C82.0129 31.8393 82.1862 32.4546 82.5329 32.9919C82.8795 33.5119 83.3822 33.9279 84.0409 34.2399C84.7169 34.5519 85.5489 34.7079 86.5369 34.7079ZM113.974 38.9199L103.782 10.8399H110.048L117.12 31.1979L124.166 10.8399H130.458L120.266 38.9199H113.974ZM146.875 39.6999C144.032 39.6999 141.536 39.0846 139.387 37.8539C137.237 36.6233 135.556 34.9159 134.343 32.7319C133.147 30.5479 132.549 28.0346 132.549 25.1919C132.549 22.1239 133.138 19.4633 134.317 17.2099C135.495 14.9393 137.133 13.1799 139.231 11.9319C141.328 10.6839 143.755 10.0599 146.511 10.0599C149.423 10.0599 151.893 10.7446 153.921 12.1139C155.966 13.4659 157.483 15.3813 158.471 17.8599C159.459 20.3386 159.831 23.2593 159.589 26.6219H153.375V24.3339C153.357 21.2833 152.82 19.0559 151.763 17.6519C150.705 16.2479 149.041 15.5459 146.771 15.5459C144.205 15.5459 142.299 16.3433 141.051 17.9379C139.803 19.5153 139.179 21.8293 139.179 24.8799C139.179 27.7226 139.803 29.9239 141.051 31.4839C142.299 33.0439 144.119 33.8239 146.511 33.8239C148.053 33.8239 149.379 33.4859 150.489 32.8099C151.615 32.1166 152.482 31.1199 153.089 29.8199L159.277 31.6919C158.202 34.2226 156.538 36.1899 154.285 37.5939C152.049 38.9979 149.579 39.6999 146.875 39.6999ZM137.203 26.6219V21.8899H156.521V26.6219H137.203ZM165.91 38.9199V0.699921H172.176V38.9199H165.91Z" fill="#E6EFF5"></path></svg>