<svg xmlns="http://www.w3.org/2000/svg" width="182" height="40" viewBox="0 0 182 40" fill="none"><path d="M0.64 38.9199V1.47992H6.282L19.23 27.9999L32.178 1.47992H37.82V38.9199H31.97V14.9219L20.478 38.9199H17.982L6.516 14.9219V38.9199H0.64ZM57.5264 39.6999C54.7184 39.6999 52.2657 39.0673 50.1684 37.8019C48.071 36.5366 46.4417 34.7946 45.2804 32.5759C44.1364 30.3399 43.5644 27.7746 43.5644 24.8799C43.5644 21.9333 44.1537 19.3506 45.3324 17.1319C46.511 14.9133 48.149 13.1799 50.2464 11.9319C52.3437 10.6839 54.7704 10.0599 57.5264 10.0599C60.3517 10.0599 62.813 10.6926 64.9104 11.9579C67.0077 13.2233 68.637 14.9739 69.7984 17.2099C70.9597 19.4286 71.5404 21.9853 71.5404 24.8799C71.5404 27.7919 70.951 30.3659 69.7724 32.6019C68.611 34.8206 66.9817 36.5626 64.8844 37.8279C62.787 39.0759 60.3344 39.6999 57.5264 39.6999ZM57.5264 33.8239C60.0224 33.8239 61.877 32.9919 63.0904 31.3279C64.3037 29.6639 64.9104 27.5146 64.9104 24.8799C64.9104 22.1586 64.295 19.9919 63.0644 18.3799C61.8337 16.7506 59.9877 15.9359 57.5264 15.9359C55.845 15.9359 54.4584 16.3173 53.3664 17.0799C52.2917 17.8253 51.4944 18.8739 50.9744 20.2259C50.4544 21.5606 50.1944 23.1119 50.1944 24.8799C50.1944 27.6013 50.8097 29.7766 52.0404 31.4059C53.2884 33.0179 55.117 33.8239 57.5264 33.8239ZM89.6709 39.6999C86.8629 39.6999 84.4102 39.0673 82.3129 37.8019C80.2156 36.5366 78.5862 34.7946 77.4249 32.5759C76.2809 30.3399 75.7089 27.7746 75.7089 24.8799C75.7089 21.9333 76.2982 19.3506 77.4769 17.1319C78.6556 14.9133 80.2936 13.1799 82.3909 11.9319C84.4882 10.6839 86.9149 10.0599 89.6709 10.0599C92.4962 10.0599 94.9576 10.6926 97.0549 11.9579C99.1522 13.2233 100.782 14.9739 101.943 17.2099C103.104 19.4286 103.685 21.9853 103.685 24.8799C103.685 27.7919 103.096 30.3659 101.917 32.6019C100.756 34.8206 99.1262 36.5626 97.0289 37.8279C94.9316 39.0759 92.4789 39.6999 89.6709 39.6999ZM89.6709 33.8239C92.1669 33.8239 94.0216 32.9919 95.2349 31.3279C96.4482 29.6639 97.0549 27.5146 97.0549 24.8799C97.0549 22.1586 96.4396 19.9919 95.2089 18.3799C93.9782 16.7506 92.1322 15.9359 89.6709 15.9359C87.9896 15.9359 86.6029 16.3173 85.5109 17.0799C84.4362 17.8253 83.6389 18.8739 83.1189 20.2259C82.5989 21.5606 82.3389 23.1119 82.3389 24.8799C82.3389 27.6013 82.9542 29.7766 84.1849 31.4059C85.4329 33.0179 87.2616 33.8239 89.6709 33.8239ZM120.671 39.6999C118.089 39.6999 115.835 39.0499 113.911 37.7499C111.987 36.4499 110.497 34.6819 109.439 32.4459C108.382 30.2099 107.853 27.6879 107.853 24.8799C107.853 22.0373 108.382 19.5066 109.439 17.2879C110.514 15.0519 112.031 13.2926 113.989 12.0099C115.948 10.7099 118.253 10.0599 120.905 10.0599C123.575 10.0599 125.811 10.7099 127.613 12.0099C129.433 13.2926 130.811 15.0519 131.747 17.2879C132.683 19.5239 133.151 22.0546 133.151 24.8799C133.151 27.6706 132.683 30.1926 131.747 32.4459C130.811 34.6819 129.416 36.4499 127.561 37.7499C125.707 39.0499 123.41 39.6999 120.671 39.6999ZM121.633 34.0839C123.315 34.0839 124.667 33.7026 125.689 32.9399C126.729 32.1599 127.483 31.0766 127.951 29.6899C128.437 28.3033 128.679 26.6999 128.679 24.8799C128.679 23.0426 128.437 21.4393 127.951 20.0699C127.483 18.6833 126.747 17.6086 125.741 16.8459C124.736 16.0659 123.436 15.6759 121.841 15.6759C120.16 15.6759 118.773 16.0919 117.681 16.9239C116.589 17.7386 115.783 18.8479 115.263 20.2519C114.743 21.6386 114.483 23.1813 114.483 24.8799C114.483 26.5959 114.735 28.1559 115.237 29.5599C115.757 30.9466 116.546 32.0473 117.603 32.8619C118.661 33.6766 120.004 34.0839 121.633 34.0839ZM128.679 38.9199V19.2119H127.899V1.47992H134.217V38.9199H128.679ZM142.027 38.9199V0.699921H148.293V38.9199H142.027ZM168.847 39.6999C166.005 39.6999 163.509 39.0846 161.359 37.8539C159.21 36.6233 157.529 34.9159 156.315 32.7319C155.119 30.5479 154.521 28.0346 154.521 25.1919C154.521 22.1239 155.111 19.4633 156.289 17.2099C157.468 14.9393 159.106 13.1799 161.203 11.9319C163.301 10.6839 165.727 10.0599 168.483 10.0599C171.395 10.0599 173.865 10.7446 175.893 12.1139C177.939 13.4659 179.455 15.3813 180.443 17.8599C181.431 20.3386 181.804 23.2593 181.561 26.6219H175.347V24.3339C175.33 21.2833 174.793 19.0559 173.735 17.6519C172.678 16.2479 171.014 15.5459 168.743 15.5459C166.178 15.5459 164.271 16.3433 163.023 17.9379C161.775 19.5153 161.151 21.8293 161.151 24.8799C161.151 27.7226 161.775 29.9239 163.023 31.4839C164.271 33.0439 166.091 33.8239 168.483 33.8239C170.026 33.8239 171.352 33.4859 172.461 32.8099C173.588 32.1166 174.455 31.1199 175.061 29.8199L181.249 31.6919C180.175 34.2226 178.511 36.1899 176.257 37.5939C174.021 38.9979 171.551 39.6999 168.847 39.6999ZM159.175 26.6219V21.8899H178.493V26.6219H159.175Z" fill="#E6EFF5"></path></svg>