<svg xmlns="http://www.w3.org/2000/svg" width="100" height="38" viewBox="0 0 100 38" fill="none"><path d="M0.64 37.9199V0.47992H16.11C16.474 0.47992 16.942 0.497253 17.514 0.53192C18.086 0.549254 18.6147 0.601254 19.1 0.687921C21.2667 1.01725 23.052 1.73659 24.456 2.84592C25.8773 3.95525 26.926 5.35925 27.602 7.05792C28.2953 8.73925 28.642 10.6113 28.642 12.6739C28.642 14.7193 28.2953 16.5913 27.602 18.2899C26.9087 19.9713 25.8513 21.3666 24.43 22.4759C23.026 23.5853 21.2493 24.3046 19.1 24.6339C18.6147 24.7033 18.0773 24.7553 17.488 24.7899C16.916 24.8246 16.4567 24.8419 16.11 24.8419H6.906V37.9199H0.64ZM6.906 18.9919H15.85C16.1967 18.9919 16.5867 18.9746 17.02 18.9399C17.4533 18.9053 17.852 18.8359 18.216 18.7319C19.256 18.4719 20.0707 18.0126 20.66 17.3539C21.2667 16.6953 21.6913 15.9499 21.934 15.1179C22.194 14.2859 22.324 13.4713 22.324 12.6739C22.324 11.8766 22.194 11.0619 21.934 10.2299C21.6913 9.38059 21.2667 8.62659 20.66 7.96792C20.0707 7.30925 19.256 6.84992 18.216 6.58992C17.852 6.48592 17.4533 6.42525 17.02 6.40792C16.5867 6.37325 16.1967 6.35592 15.85 6.35592H6.906V18.9919ZM33.8509 37.9199V0.47992H40.1169V16.2359H57.8489V0.47992H64.0889V37.9199H57.8489V22.1119H40.1169V37.9199H33.8509ZM71.3783 37.9199V0.47992H86.8483C87.2123 0.47992 87.6803 0.497253 88.2523 0.53192C88.8243 0.549254 89.3529 0.601254 89.8383 0.687921C92.0049 1.01725 93.7903 1.73659 95.1943 2.84592C96.6156 3.95525 97.6643 5.35925 98.3403 7.05792C99.0336 8.73925 99.3803 10.6113 99.3803 12.6739C99.3803 14.7193 99.0336 16.5913 98.3403 18.2899C97.6469 19.9713 96.5896 21.3666 95.1683 22.4759C93.7643 23.5853 91.9876 24.3046 89.8383 24.6339C89.3529 24.7033 88.8156 24.7553 88.2263 24.7899C87.6543 24.8246 87.1949 24.8419 86.8483 24.8419H77.6443V37.9199H71.3783ZM77.6443 18.9919H86.5883C86.9349 18.9919 87.3249 18.9746 87.7583 18.9399C88.1916 18.9053 88.5903 18.8359 88.9543 18.7319C89.9943 18.4719 90.8089 18.0126 91.3983 17.3539C92.0049 16.6953 92.4296 15.9499 92.6723 15.1179C92.9323 14.2859 93.0623 13.4713 93.0623 12.6739C93.0623 11.8766 92.9323 11.0619 92.6723 10.2299C92.4296 9.38059 92.0049 8.62659 91.3983 7.96792C90.8089 7.30925 89.9943 6.84992 88.9543 6.58992C88.5903 6.48592 88.1916 6.42525 87.7583 6.40792C87.3249 6.37325 86.9349 6.35592 86.5883 6.35592H77.6443V18.9919Z" fill="#E6EFF5"></path></svg>