<svg xmlns="http://www.w3.org/2000/svg" width="178" height="51" viewBox="0 0 178 51" fill="none"><path d="M0.64 37.9199V0.47992H16.11C16.474 0.47992 16.942 0.497253 17.514 0.53192C18.086 0.549254 18.6147 0.601254 19.1 0.687921C21.2667 1.01725 23.052 1.73659 24.456 2.84592C25.8773 3.95525 26.926 5.35925 27.602 7.05792C28.2953 8.73925 28.642 10.6113 28.642 12.6739C28.642 14.7193 28.2953 16.5913 27.602 18.2899C26.9087 19.9713 25.8513 21.3666 24.43 22.4759C23.026 23.5853 21.2493 24.3046 19.1 24.6339C18.6147 24.7033 18.0773 24.7553 17.488 24.7899C16.916 24.8246 16.4567 24.8419 16.11 24.8419H6.906V37.9199H0.64ZM6.906 18.9919H15.85C16.1967 18.9919 16.5867 18.9746 17.02 18.9399C17.4533 18.9053 17.852 18.8359 18.216 18.7319C19.256 18.4719 20.0707 18.0126 20.66 17.3539C21.2667 16.6953 21.6913 15.9499 21.934 15.1179C22.194 14.2859 22.324 13.4713 22.324 12.6739C22.324 11.8766 22.194 11.0619 21.934 10.2299C21.6913 9.38059 21.2667 8.62659 20.66 7.96792C20.0707 7.30925 19.256 6.84992 18.216 6.58992C17.852 6.48592 17.4533 6.42525 17.02 6.40792C16.5867 6.37325 16.1967 6.35592 15.85 6.35592H6.906V18.9919ZM37.5429 50.3999L42.9509 35.5539L43.0549 39.9219L30.8089 9.83992H37.3349L46.0189 32.0959H44.3549L52.8049 9.83992H59.0709L43.4189 50.3999H37.5429ZM81.4886 37.9199C79.634 38.2666 77.814 38.4139 76.0286 38.3619C74.2606 38.3273 72.6746 38.0066 71.2706 37.3999C69.8666 36.7759 68.8006 35.7966 68.0726 34.4619C67.4313 33.2486 67.0933 32.0093 67.0586 30.7439C67.024 29.4786 67.0066 28.0486 67.0066 26.4539V2.03992H73.2466V26.0899C73.2466 27.2166 73.2553 28.2046 73.2726 29.0539C73.3073 29.9033 73.4893 30.5966 73.8186 31.1339C74.4426 32.1739 75.4393 32.7546 76.8086 32.8759C78.178 32.9973 79.738 32.9279 81.4886 32.6679V37.9199ZM61.9106 14.7539V9.83992H81.4886V14.7539H61.9106ZM106.949 37.9199V24.3999C106.949 23.5159 106.888 22.5366 106.767 21.4619C106.645 20.3873 106.359 19.3559 105.909 18.3679C105.475 17.3626 104.817 16.5393 103.933 15.8979C103.066 15.2566 101.887 14.9359 100.397 14.9359C99.5994 14.9359 98.8107 15.0659 98.0307 15.3259C97.2507 15.5859 96.5401 16.0366 95.8987 16.6779C95.2747 17.3019 94.7721 18.1686 94.3907 19.2779C94.0094 20.3699 93.8187 21.7739 93.8187 23.4899L90.1007 21.9039C90.1007 19.5119 90.5601 17.3453 91.4787 15.4039C92.4147 13.4626 93.7841 11.9199 95.5867 10.7759C97.3894 9.61459 99.6081 9.03392 102.243 9.03392C104.323 9.03392 106.039 9.38059 107.391 10.0739C108.743 10.7673 109.817 11.6513 110.615 12.7259C111.412 13.8006 112.001 14.9446 112.383 16.1579C112.764 17.3713 113.007 18.5239 113.111 19.6159C113.232 20.6906 113.293 21.5659 113.293 22.2419V37.9199H106.949ZM87.4747 37.9199V0.47992H93.0647V20.1879H93.8187V37.9199H87.4747ZM132.48 38.6999C129.672 38.6999 127.219 38.0673 125.122 36.8019C123.024 35.5366 121.395 33.7946 120.234 31.5759C119.09 29.3399 118.518 26.7746 118.518 23.8799C118.518 20.9333 119.107 18.3506 120.286 16.1319C121.464 13.9133 123.102 12.1799 125.2 10.9319C127.297 9.68392 129.724 9.05992 132.48 9.05992C135.305 9.05992 137.766 9.69259 139.864 10.9579C141.961 12.2233 143.59 13.9739 144.752 16.2099C145.913 18.4286 146.494 20.9853 146.494 23.8799C146.494 26.7919 145.904 29.3659 144.726 31.6019C143.564 33.8206 141.935 35.5626 139.838 36.8279C137.74 38.0759 135.288 38.6999 132.48 38.6999ZM132.48 32.8239C134.976 32.8239 136.83 31.9919 138.044 30.3279C139.257 28.6639 139.864 26.5146 139.864 23.8799C139.864 21.1586 139.248 18.9919 138.018 17.3799C136.787 15.7506 134.941 14.9359 132.48 14.9359C130.798 14.9359 129.412 15.3173 128.32 16.0799C127.245 16.8253 126.448 17.8739 125.928 19.2259C125.408 20.5606 125.148 22.1119 125.148 23.8799C125.148 26.6013 125.763 28.7766 126.994 30.4059C128.242 32.0179 130.07 32.8239 132.48 32.8239ZM171.644 37.9199V24.3999C171.644 23.5159 171.583 22.5366 171.462 21.4619C171.341 20.3873 171.055 19.3559 170.604 18.3679C170.171 17.3626 169.512 16.5393 168.628 15.8979C167.761 15.2566 166.583 14.9359 165.092 14.9359C164.295 14.9359 163.506 15.0659 162.726 15.3259C161.946 15.5859 161.235 16.0366 160.594 16.6779C159.97 17.3019 159.467 18.1686 159.086 19.2779C158.705 20.3699 158.514 21.7739 158.514 23.4899L154.796 21.9039C154.796 19.5119 155.255 17.3453 156.174 15.4039C157.11 13.4626 158.479 11.9199 160.282 10.7759C162.085 9.61459 164.303 9.03392 166.938 9.03392C169.018 9.03392 170.734 9.38059 172.086 10.0739C173.438 10.7673 174.513 11.6513 175.31 12.7259C176.107 13.8006 176.697 14.9446 177.078 16.1579C177.459 17.3713 177.702 18.5239 177.806 19.6159C177.927 20.6906 177.988 21.5659 177.988 22.2419V37.9199H171.644ZM152.17 37.9199V9.83992H157.76V18.5499H158.514V37.9199H152.17Z" fill="#E6EFF5"></path></svg>